<?xml version="1.0" standalone="yes"?>
<svg width="760" height="150" xmlns="http://www.w3.org/2000/svg"><path style="stroke: #af4b3d;" class="elevation route-segment1" d="M0,30L0,30"></path><path style="stroke: #af4b3d;" class="elevation route-segment2" d="M0,30L2,29"></path><path style="stroke: #af4b3d;" class="elevation route-segment3" d="M2,29L4,37"></path><path style="stroke: #af4b3d;" class="elevation route-segment4" d="M4,37L4,37"></path><path style="stroke: #af4b3d;" class="elevation route-segment5" d="M4,37L7,36"></path><path style="stroke: #af4b3d;" class="elevation route-segment6" d="M7,36L8,37"></path><path style="stroke: #af4b3d;" class="elevation route-segment7" d="M8,37L9,37"></path><path style="stroke: #af4b3d;" class="elevation route-segment8" d="M9,37L11,37"></path><path style="stroke: #af4b3d;" class="elevation route-segment9" d="M11,37L13,33"></path><path style="stroke: #af4b3d;" class="elevation route-segment10" d="M13,33L15,34"></path><path style="stroke: #af4b3d;" class="elevation route-segment11" d="M15,34L17,34"></path><path style="stroke: #af4b3d;" class="elevation route-segment12" d="M17,34L18,31"></path><path style="stroke: #af4b3d;" class="elevation route-segment13" d="M18,31L20,29"></path><path style="stroke: #af4b3d;" class="elevation route-segment14" d="M20,29L26,23"></path><path style="stroke: #a53e30;" class="elevation route-segment15" d="M26,23L28,22"></path><path style="stroke: #a53e30;" class="elevation route-segment16" d="M28,22L28,22"></path><path style="stroke: #a53e30;" class="elevation route-segment17" d="M28,22L29,22"></path><path style="stroke: #a53e30;" class="elevation route-segment18" d="M29,22L30,22"></path><path style="stroke: #a53e30;" class="elevation route-segment19" d="M30,22L31,23"></path><path style="stroke: #a53e30;" class="elevation route-segment20" d="M31,23L31,23"></path><path style="stroke: #a53e30;" class="elevation route-segment21" d="M31,23L32,22"></path><path style="stroke: #a53e30;" class="elevation route-segment22" d="M32,22L33,22"></path><path style="stroke: #a53e30;" class="elevation route-segment23" d="M33,22L34,22"></path><path style="stroke: #a53e30;" class="elevation route-segment24" d="M34,22L35,22"></path><path style="stroke: #a53e30;" class="elevation route-segment25" d="M35,22L37,23"></path><path style="stroke: #a53e30;" class="elevation route-segment26" d="M37,23L43,29"></path><path style="stroke: #af4b3d;" class="elevation route-segment27" d="M43,29L45,31"></path><path style="stroke: #af4b3d;" class="elevation route-segment28" d="M45,31L46,34"></path><path style="stroke: #af4b3d;" class="elevation route-segment29" d="M46,34L48,34"></path><path style="stroke: #af4b3d;" class="elevation route-segment30" d="M48,34L50,33"></path><path style="stroke: #af4b3d;" class="elevation route-segment31" d="M50,33L52,37"></path><path style="stroke: #af4b3d;" class="elevation route-segment32" d="M52,37L54,37"></path><path style="stroke: #af4b3d;" class="elevation route-segment33" d="M54,37L55,37"></path><path style="stroke: #af4b3d;" class="elevation route-segment34" d="M55,37L56,36"></path><path style="stroke: #af4b3d;" class="elevation route-segment35" d="M56,36L58,37"></path><path style="stroke: #af4b3d;" class="elevation route-segment36" d="M58,37L58,37"></path><path style="stroke: #af4b3d;" class="elevation route-segment37" d="M58,37L60,29"></path><path style="stroke: #af4b3d;" class="elevation route-segment38" d="M60,29L62,30"></path><path style="stroke: #af4b3d;" class="elevation route-segment39" d="M62,30L63,30"></path><path style="stroke: #af4b3d;" class="elevation route-segment40" d="M63,30L63,30"></path><path style="stroke: #af4b3d;" class="elevation route-segment41" d=""></path></svg>
