<?xml version="1.0" standalone="yes"?>
<svg width="760" height="150" xmlns="http://www.w3.org/2000/svg"><path style="stroke: #51843b;" class="elevation route-segment1" d="M0,132L2,128"></path><path style="stroke: #4f813a;" class="elevation route-segment2" d="M2,128L2,128"></path><path style="stroke: #4f813a;" class="elevation route-segment3" d="M2,128L2,128"></path><path style="stroke: #4f813a;" class="elevation route-segment4" d="M2,128L3,127"></path><path style="stroke: #4e803a;" class="elevation route-segment5" d="M3,127L3,127"></path><path style="stroke: #4e803a;" class="elevation route-segment6" d="M3,127L5,126"></path><path style="stroke: #4d7f39;" class="elevation route-segment7" d="M5,126L5,126"></path><path style="stroke: #4d7f39;" class="elevation route-segment8" d="M5,126L5,126"></path><path style="stroke: #4d7f39;" class="elevation route-segment9" d="M5,126L5,126"></path><path style="stroke: #4d7f39;" class="elevation route-segment10" d="M5,126L5,126"></path><path style="stroke: #4d7f39;" class="elevation route-segment11" d="M5,126L5,126"></path><path style="stroke: #4d7f39;" class="elevation route-segment12" d="M5,126L5,126"></path><path style="stroke: #4d7f39;" class="elevation route-segment13" d="M5,126L5,130"></path><path style="stroke: #50833b;" class="elevation route-segment14" d="M5,130L5,130"></path><path style="stroke: #50833b;" class="elevation route-segment15" d="M5,130L5,130"></path><path style="stroke: #50833b;" class="elevation route-segment16" d="M5,130L5,130"></path><path style="stroke: #50833b;" class="elevation route-segment17" d="M5,130L5,130"></path><path style="stroke: #50833b;" class="elevation route-segment18" d="M5,130L5,130"></path><path style="stroke: #50833b;" class="elevation route-segment19" d="M5,130L5,130"></path><path style="stroke: #50833b;" class="elevation route-segment20" d="M5,130L5,130"></path><path style="stroke: #50833b;" class="elevation route-segment21" d="M5,130L5,130"></path><path style="stroke: #50833b;" class="elevation route-segment22" d="M5,130L6,130"></path><path style="stroke: #50833b;" class="elevation route-segment23" d="M6,130L6,130"></path><path style="stroke: #50833b;" class="elevation route-segment24" d="M6,130L7,133"></path><path style="stroke: #51853b;" class="elevation route-segment25" d="M7,133L7,133"></path><path style="stroke: #51853b;" class="elevation route-segment26" d="M7,133L7,133"></path><path style="stroke: #51853b;" class="elevation route-segment27" d="M7,133L7,133"></path><path style="stroke: #51853b;" class="elevation route-segment28" d="M7,133L7,135"></path><path style="stroke: #53863c;" class="elevation route-segment29" d="M7,135L7,135"></path><path style="stroke: #53863c;" class="elevation route-segment30" d="M7,135L7,135"></path><path style="stroke: #53863c;" class="elevation route-segment31" d="M7,135L7,135"></path><path style="stroke: #53863c;" class="elevation route-segment32" d="M7,135L7,135"></path><path style="stroke: #53863c;" class="elevation route-segment33" d="M7,135L7,138"></path><path style="stroke: #55893d;" class="elevation route-segment34" d="M7,138L7,138"></path><path style="stroke: #55893d;" class="elevation route-segment35" d="M7,138L7,138"></path><path style="stroke: #55893d;" class="elevation route-segment36" d="M7,138L7,138"></path><path style="stroke: #55893d;" class="elevation route-segment37" d="M7,138L7,138"></path><path style="stroke: #55893d;" class="elevation route-segment38" d="M7,138L8,138"></path><path style="stroke: #55893d;" class="elevation route-segment39" d="M8,138L8,138"></path><path style="stroke: #55893d;" class="elevation route-segment40" d="M8,138L8,138"></path><path style="stroke: #55893d;" class="elevation route-segment41" d="M8,138L8,138"></path><path style="stroke: #55893d;" class="elevation route-segment42" d="M8,138L8,138"></path><path style="stroke: #55893d;" class="elevation route-segment43" d="M8,138L8,138"></path><path style="stroke: #55893d;" class="elevation route-segment44" d="M8,138L8,138"></path><path style="stroke: #55893d;" class="elevation route-segment45" d="M8,138L8,142"></path><path style="stroke: #578c3e;" class="elevation route-segment46" d="M8,142L9,140"></path><path style="stroke: #558a3d;" class="elevation route-segment47" d="M9,140L10,140"></path><path style="stroke: #558a3d;" class="elevation route-segment48" d="M10,140L11,140"></path><path style="stroke: #558a3d;" class="elevation route-segment49" d="M11,140L11,140"></path><path style="stroke: #558a3d;" class="elevation route-segment50" d="M11,140L11,140"></path><path style="stroke: #558a3d;" class="elevation route-segment51" d="M11,140L11,137"></path><path style="stroke: #53883c;" class="elevation route-segment52" d="M11,137L11,137"></path><path style="stroke: #53883c;" class="elevation route-segment53" d="M11,137L11,136"></path><path style="stroke: #53873c;" class="elevation route-segment54" d="M11,136L11,136"></path><path style="stroke: #53873c;" class="elevation route-segment55" d="M11,136L11,136"></path><path style="stroke: #53873c;" class="elevation route-segment56" d="M11,136L11,136"></path><path style="stroke: #53873c;" class="elevation route-segment57" d="M11,136L11,136"></path><path style="stroke: #53873c;" class="elevation route-segment58" d="M11,136L11,136"></path><path style="stroke: #53873c;" class="elevation route-segment59" d="M11,136L11,136"></path><path style="stroke: #53873c;" class="elevation route-segment60" d="M11,136L11,136"></path><path style="stroke: #53873c;" class="elevation route-segment61" d="M11,136L11,135"></path><path style="stroke: #52863c;" class="elevation route-segment62" d="M11,135L11,135"></path><path style="stroke: #52863c;" class="elevation route-segment63" d="M11,135L11,135"></path><path style="stroke: #52863c;" class="elevation route-segment64" d="M11,135L11,135"></path><path style="stroke: #52863c;" class="elevation route-segment65" d="M11,135L11,135"></path><path style="stroke: #52863c;" class="elevation route-segment66" d="M11,135L11,135"></path><path style="stroke: #52863c;" class="elevation route-segment67" d="M11,135L11,136"></path><path style="stroke: #53873c;" class="elevation route-segment68" d="M11,136L12,136"></path><path style="stroke: #53873c;" class="elevation route-segment69" d="M12,136L12,136"></path><path style="stroke: #53873c;" class="elevation route-segment70" d="M12,136L14,135"></path><path style="stroke: #52863c;" class="elevation route-segment71" d="M14,135L14,135"></path><path style="stroke: #52863c;" class="elevation route-segment72" d="M14,135L16,136"></path><path style="stroke: #53873c;" class="elevation route-segment73" d="M16,136L16,136"></path><path style="stroke: #53873c;" class="elevation route-segment74" d="M16,136L17,136"></path><path style="stroke: #53873c;" class="elevation route-segment75" d="M17,136L17,135"></path><path style="stroke: #52863c;" class="elevation route-segment76" d="M17,135L17,135"></path><path style="stroke: #52863c;" class="elevation route-segment77" d="M17,135L17,135"></path><path style="stroke: #52863c;" class="elevation route-segment78" d="M17,135L17,135"></path><path style="stroke: #52863c;" class="elevation route-segment79" d="M17,135L17,135"></path><path style="stroke: #52863c;" class="elevation route-segment80" d="M17,135L17,135"></path><path style="stroke: #52863c;" class="elevation route-segment81" d="M17,135L17,136"></path><path style="stroke: #53873c;" class="elevation route-segment82" d="M17,136L17,136"></path><path style="stroke: #53873c;" class="elevation route-segment83" d="M17,136L17,136"></path><path style="stroke: #53873c;" class="elevation route-segment84" d="M17,136L17,136"></path><path style="stroke: #53873c;" class="elevation route-segment85" d="M17,136L17,136"></path><path style="stroke: #53873c;" class="elevation route-segment86" d="M17,136L17,136"></path><path style="stroke: #53873c;" class="elevation route-segment87" d="M17,136L17,136"></path><path style="stroke: #53873c;" class="elevation route-segment88" d="M17,136L17,136"></path><path style="stroke: #53873c;" class="elevation route-segment89" d="M17,136L17,137"></path><path style="stroke: #53883c;" class="elevation route-segment90" d="M17,137L17,137"></path><path style="stroke: #53883c;" class="elevation route-segment91" d="M17,137L17,140"></path><path style="stroke: #558a3d;" class="elevation route-segment92" d="M17,140L17,140"></path><path style="stroke: #558a3d;" class="elevation route-segment93" d="M17,140L17,140"></path><path style="stroke: #558a3d;" class="elevation route-segment94" d="M17,140L18,140"></path><path style="stroke: #558a3d;" class="elevation route-segment95" d="M18,140L19,140"></path><path style="stroke: #558a3d;" class="elevation route-segment96" d="M19,140L20,142"></path><path style="stroke: #578c3e;" class="elevation route-segment97" d="M20,142L21,142"></path><path style="stroke: #578c3e;" class="elevation route-segment98" d="M21,142L22,144"></path><path style="stroke: #588e3f;" class="elevation route-segment99" d="M22,144L24,144"></path><path style="stroke: #588e3f;" class="elevation route-segment100" d="M24,144L28,147"></path><path style="stroke: #59903f;" class="elevation route-segment101" d="M28,147L29,146"></path><path style="stroke: #598f3f;" class="elevation route-segment102" d="M29,146L30,144"></path><path style="stroke: #588e3f;" class="elevation route-segment103" d="M30,144L32,144"></path><path style="stroke: #588e3f;" class="elevation route-segment104" d="M32,144L32,144"></path><path style="stroke: #588e3f;" class="elevation route-segment105" d="M32,144L32,142"></path><path style="stroke: #578c3e;" class="elevation route-segment106" d="M32,142L33,142"></path><path style="stroke: #578c3e;" class="elevation route-segment107" d="M33,142L34,142"></path><path style="stroke: #578c3e;" class="elevation route-segment108" d="M34,142L34,144"></path><path style="stroke: #588e3f;" class="elevation route-segment109" d="M34,144L35,144"></path><path style="stroke: #588e3f;" class="elevation route-segment110" d="M35,144L36,144"></path><path style="stroke: #588e3f;" class="elevation route-segment111" d="M36,144L37,146"></path><path style="stroke: #598f3f;" class="elevation route-segment112" d="M37,146L37,146"></path><path style="stroke: #598f3f;" class="elevation route-segment113" d="M37,146L38,143"></path><path style="stroke: #578d3e;" class="elevation route-segment114" d="M38,143L38,143"></path><path style="stroke: #578d3e;" class="elevation route-segment115" d="M38,143L38,143"></path><path style="stroke: #578d3e;" class="elevation route-segment116" d="M38,143L39,145"></path><path style="stroke: #588e3f;" class="elevation route-segment117" d="M39,145L40,145"></path><path style="stroke: #588e3f;" class="elevation route-segment118" d="M40,145L40,145"></path><path style="stroke: #588e3f;" class="elevation route-segment119" d="M40,145L40,145"></path><path style="stroke: #588e3f;" class="elevation route-segment120" d="M40,145L40,145"></path><path style="stroke: #588e3f;" class="elevation route-segment121" d="M40,145L40,145"></path><path style="stroke: #588e3f;" class="elevation route-segment122" d="M40,145L40,145"></path><path style="stroke: #588e3f;" class="elevation route-segment123" d="M40,145L40,146"></path><path style="stroke: #598f3f;" class="elevation route-segment124" d="M40,146L40,146"></path><path style="stroke: #598f3f;" class="elevation route-segment125" d="M40,146L40,146"></path><path style="stroke: #598f3f;" class="elevation route-segment126" d="M40,146L40,146"></path><path style="stroke: #598f3f;" class="elevation route-segment127" d="M40,146L40,146"></path><path style="stroke: #598f3f;" class="elevation route-segment128" d="M40,146L41,146"></path><path style="stroke: #598f3f;" class="elevation route-segment129" d="M41,146L41,146"></path><path style="stroke: #598f3f;" class="elevation route-segment130" d="M41,146L41,146"></path><path style="stroke: #598f3f;" class="elevation route-segment131" d="M41,146L41,146"></path><path style="stroke: #598f3f;" class="elevation route-segment132" d="M41,146L41,146"></path><path style="stroke: #598f3f;" class="elevation route-segment133" d="M41,146L41,146"></path><path style="stroke: #598f3f;" class="elevation route-segment134" d="M41,146L41,145"></path><path style="stroke: #588e3f;" class="elevation route-segment135" d="M41,145L41,145"></path><path style="stroke: #588e3f;" class="elevation route-segment136" d="M41,145L41,145"></path><path style="stroke: #588e3f;" class="elevation route-segment137" d="M41,145L41,145"></path><path style="stroke: #588e3f;" class="elevation route-segment138" d="M41,145L41,145"></path><path style="stroke: #588e3f;" class="elevation route-segment139" d="M41,145L41,145"></path><path style="stroke: #588e3f;" class="elevation route-segment140" d="M41,145L41,145"></path><path style="stroke: #588e3f;" class="elevation route-segment141" d="M41,145L41,145"></path><path style="stroke: #588e3f;" class="elevation route-segment142" d="M41,145L41,145"></path><path style="stroke: #588e3f;" class="elevation route-segment143" d="M41,145L42,143"></path><path style="stroke: #578d3e;" class="elevation route-segment144" d="M42,143L43,143"></path><path style="stroke: #578d3e;" class="elevation route-segment145" d="M43,143L43,143"></path><path style="stroke: #578d3e;" class="elevation route-segment146" d="M43,143L43,143"></path><path style="stroke: #578d3e;" class="elevation route-segment147" d="M43,143L44,142"></path><path style="stroke: #578c3e;" class="elevation route-segment148" d="M44,142L45,142"></path><path style="stroke: #578c3e;" class="elevation route-segment149" d="M45,142L45,139"></path><path style="stroke: #558a3d;" class="elevation route-segment150" d="M45,139L45,139"></path><path style="stroke: #558a3d;" class="elevation route-segment151" d="M45,139L45,139"></path><path style="stroke: #558a3d;" class="elevation route-segment152" d="M45,139L45,139"></path><path style="stroke: #558a3d;" class="elevation route-segment153" d="M45,139L45,139"></path><path style="stroke: #558a3d;" class="elevation route-segment154" d="M45,139L45,139"></path><path style="stroke: #558a3d;" class="elevation route-segment155" d="M45,139L45,139"></path><path style="stroke: #558a3d;" class="elevation route-segment156" d="M45,139L45,139"></path><path style="stroke: #558a3d;" class="elevation route-segment157" d="M45,139L45,139"></path><path style="stroke: #558a3d;" class="elevation route-segment158" d="M45,139L45,139"></path><path style="stroke: #558a3d;" class="elevation route-segment159" d="M45,139L45,139"></path><path style="stroke: #558a3d;" class="elevation route-segment160" d="M45,139L47,128"></path><path style="stroke: #4e813a;" class="elevation route-segment161" d="M47,128L47,128"></path><path style="stroke: #4e813a;" class="elevation route-segment162" d="M47,128L47,128"></path><path style="stroke: #4e813a;" class="elevation route-segment163" d="M47,128L47,128"></path><path style="stroke: #4e813a;" class="elevation route-segment164" d="M47,128L48,133"></path><path style="stroke: #52853b;" class="elevation route-segment165" d="M48,133L48,134"></path><path style="stroke: #52863c;" class="elevation route-segment166" d="M48,134L48,134"></path><path style="stroke: #52863c;" class="elevation route-segment167" d="M48,134L48,134"></path><path style="stroke: #52863c;" class="elevation route-segment168" d="M48,134L48,134"></path><path style="stroke: #52863c;" class="elevation route-segment169" d="M48,134L48,134"></path><path style="stroke: #52863c;" class="elevation route-segment170" d="M48,134L50,131"></path><path style="stroke: #50833b;" class="elevation route-segment171" d="M50,131L50,131"></path><path style="stroke: #50833b;" class="elevation route-segment172" d="M50,131L50,131"></path><path style="stroke: #50833b;" class="elevation route-segment173" d="M50,131L50,131"></path><path style="stroke: #50833b;" class="elevation route-segment174" d="M50,131L50,131"></path><path style="stroke: #50833b;" class="elevation route-segment175" d="M50,131L50,131"></path><path style="stroke: #50833b;" class="elevation route-segment176" d="M50,131L53,123"></path><path style="stroke: #4c7d39;" class="elevation route-segment177" d="M53,123L53,123"></path><path style="stroke: #4c7d39;" class="elevation route-segment178" d="M53,123L53,123"></path><path style="stroke: #4c7d39;" class="elevation route-segment179" d="M53,123L53,123"></path><path style="stroke: #4c7d39;" class="elevation route-segment180" d="M53,123L53,123"></path><path style="stroke: #4c7d39;" class="elevation route-segment181" d="M53,123L53,123"></path><path style="stroke: #4c7d39;" class="elevation route-segment182" d="M53,123L53,123"></path><path style="stroke: #4c7d39;" class="elevation route-segment183" d="M53,123L53,123"></path><path style="stroke: #4c7d39;" class="elevation route-segment184" d="M53,123L53,123"></path><path style="stroke: #4c7d39;" class="elevation route-segment185" d="M53,123L53,123"></path><path style="stroke: #4c7d39;" class="elevation route-segment186" d="M53,123L53,123"></path><path style="stroke: #4c7d39;" class="elevation route-segment187" d="M53,123L53,123"></path><path style="stroke: #4c7d39;" class="elevation route-segment188" d="M53,123L53,123"></path><path style="stroke: #4c7d39;" class="elevation route-segment189" d="M53,123L53,123"></path><path style="stroke: #4c7d39;" class="elevation route-segment190" d="M53,123L53,123"></path><path style="stroke: #4c7d39;" class="elevation route-segment191" d="M53,123L54,124"></path><path style="stroke: #4c7e39;" class="elevation route-segment192" d="M54,124L55,124"></path><path style="stroke: #4c7e39;" class="elevation route-segment193" d="M55,124L55,124"></path><path style="stroke: #4c7e39;" class="elevation route-segment194" d="M55,124L55,124"></path><path style="stroke: #4c7e39;" class="elevation route-segment195" d="M55,124L55,124"></path><path style="stroke: #4c7e39;" class="elevation route-segment196" d="M55,124L55,124"></path><path style="stroke: #4c7e39;" class="elevation route-segment197" d="M55,124L55,124"></path><path style="stroke: #4c7e39;" class="elevation route-segment198" d="M55,124L55,124"></path><path style="stroke: #4c7e39;" class="elevation route-segment199" d="M55,124L55,124"></path><path style="stroke: #4c7e39;" class="elevation route-segment200" d="M55,124L55,124"></path><path style="stroke: #4c7e39;" class="elevation route-segment201" d="M55,124L55,124"></path><path style="stroke: #4c7e39;" class="elevation route-segment202" d="M55,124L55,124"></path><path style="stroke: #4c7e39;" class="elevation route-segment203" d="M55,124L55,124"></path><path style="stroke: #4c7e39;" class="elevation route-segment204" d="M55,124L55,125"></path><path style="stroke: #4d7e39;" class="elevation route-segment205" d="M55,125L55,125"></path><path style="stroke: #4d7e39;" class="elevation route-segment206" d="M55,125L55,125"></path><path style="stroke: #4d7e39;" class="elevation route-segment207" d="M55,125L55,125"></path><path style="stroke: #4d7e39;" class="elevation route-segment208" d="M55,125L55,125"></path><path style="stroke: #4d7e39;" class="elevation route-segment209" d="M55,125L55,123"></path><path style="stroke: #4c7d39;" class="elevation route-segment210" d="M55,123L55,123"></path><path style="stroke: #4c7d39;" class="elevation route-segment211" d="M55,123L55,123"></path><path style="stroke: #4c7d39;" class="elevation route-segment212" d="M55,123L55,123"></path><path style="stroke: #4c7d39;" class="elevation route-segment213" d="M55,123L55,123"></path><path style="stroke: #4c7d39;" class="elevation route-segment214" d="M55,123L55,123"></path><path style="stroke: #4c7d39;" class="elevation route-segment215" d="M55,123L55,123"></path><path style="stroke: #4c7d39;" class="elevation route-segment216" d="M55,123L55,123"></path><path style="stroke: #4c7d39;" class="elevation route-segment217" d="M55,123L55,123"></path><path style="stroke: #4c7d39;" class="elevation route-segment218" d="M55,123L55,123"></path><path style="stroke: #4c7d39;" class="elevation route-segment219" d="M55,123L55,123"></path><path style="stroke: #4c7d39;" class="elevation route-segment220" d="M55,123L55,123"></path><path style="stroke: #4c7d39;" class="elevation route-segment221" d="M55,123L55,123"></path><path style="stroke: #4c7d39;" class="elevation route-segment222" d="M55,123L55,123"></path><path style="stroke: #4c7d39;" class="elevation route-segment223" d="M55,123L55,123"></path><path style="stroke: #4c7d39;" class="elevation route-segment224" d="M55,123L55,123"></path><path style="stroke: #4c7d39;" class="elevation route-segment225" d="M55,123L55,123"></path><path style="stroke: #4c7d39;" class="elevation route-segment226" d="M55,123L55,123"></path><path style="stroke: #4c7d39;" class="elevation route-segment227" d="M55,123L55,123"></path><path style="stroke: #4c7d39;" class="elevation route-segment228" d="M55,123L55,123"></path><path style="stroke: #4c7d39;" class="elevation route-segment229" d="M55,123L55,123"></path><path style="stroke: #4c7d39;" class="elevation route-segment230" d="M55,123L55,123"></path><path style="stroke: #4c7d39;" class="elevation route-segment231" d="M55,123L55,123"></path><path style="stroke: #4c7d39;" class="elevation route-segment232" d="M55,123L55,123"></path><path style="stroke: #4c7d39;" class="elevation route-segment233" d="M55,123L55,123"></path><path style="stroke: #4c7d39;" class="elevation route-segment234" d="M55,123L55,123"></path><path style="stroke: #4c7d39;" class="elevation route-segment235" d="M55,123L55,122"></path><path style="stroke: #4b7c38;" class="elevation route-segment236" d="M55,122L55,122"></path><path style="stroke: #4b7c38;" class="elevation route-segment237" d="M55,122L55,122"></path><path style="stroke: #4b7c38;" class="elevation route-segment238" d="M55,122L55,122"></path><path style="stroke: #4b7c38;" class="elevation route-segment239" d="M55,122L55,122"></path><path style="stroke: #4b7c38;" class="elevation route-segment240" d="M55,122L55,122"></path><path style="stroke: #4b7c38;" class="elevation route-segment241" d="M55,122L55,122"></path><path style="stroke: #4b7c38;" class="elevation route-segment242" d="M55,122L55,122"></path><path style="stroke: #4b7c38;" class="elevation route-segment243" d="M55,122L56,120"></path><path style="stroke: #4a7a38;" class="elevation route-segment244" d="M56,120L56,120"></path><path style="stroke: #4a7a38;" class="elevation route-segment245" d="M56,120L56,122"></path><path style="stroke: #4b7c38;" class="elevation route-segment246" d="M56,122L56,122"></path><path style="stroke: #4b7c38;" class="elevation route-segment247" d="M56,122L56,123"></path><path style="stroke: #4b7d38;" class="elevation route-segment248" d="M56,123L56,123"></path><path style="stroke: #4b7d38;" class="elevation route-segment249" d="M56,123L56,123"></path><path style="stroke: #4b7d38;" class="elevation route-segment250" d="M56,123L56,123"></path><path style="stroke: #4b7d38;" class="elevation route-segment251" d="M56,123L56,123"></path><path style="stroke: #4b7d38;" class="elevation route-segment252" d="M56,123L56,123"></path><path style="stroke: #4b7d38;" class="elevation route-segment253" d="M56,123L56,123"></path><path style="stroke: #4b7d38;" class="elevation route-segment254" d="M56,123L56,123"></path><path style="stroke: #4b7d38;" class="elevation route-segment255" d="M56,123L56,123"></path><path style="stroke: #4b7d38;" class="elevation route-segment256" d="M56,123L56,125"></path><path style="stroke: #4d7e39;" class="elevation route-segment257" d="M56,125L56,125"></path><path style="stroke: #4d7e39;" class="elevation route-segment258" d="M56,125L56,125"></path><path style="stroke: #4d7e39;" class="elevation route-segment259" d="M56,125L56,125"></path><path style="stroke: #4d7e39;" class="elevation route-segment260" d="M56,125L56,125"></path><path style="stroke: #4d7e39;" class="elevation route-segment261" d="M56,125L56,125"></path><path style="stroke: #4d7e39;" class="elevation route-segment262" d="M56,125L56,125"></path><path style="stroke: #4d7e39;" class="elevation route-segment263" d="M56,125L56,125"></path><path style="stroke: #4d7e39;" class="elevation route-segment264" d="M56,125L56,125"></path><path style="stroke: #4d7e39;" class="elevation route-segment265" d="M56,125L56,125"></path><path style="stroke: #4d7e39;" class="elevation route-segment266" d="M56,125L56,128"></path><path style="stroke: #4f813a;" class="elevation route-segment267" d="M56,128L56,121"></path><path style="stroke: #4b7b38;" class="elevation route-segment268" d="M56,121L56,121"></path><path style="stroke: #4b7b38;" class="elevation route-segment269" d="M56,121L56,121"></path><path style="stroke: #4b7b38;" class="elevation route-segment270" d="M56,121L56,121"></path><path style="stroke: #4b7b38;" class="elevation route-segment271" d="M56,121L56,121"></path><path style="stroke: #4b7b38;" class="elevation route-segment272" d="M56,121L56,121"></path><path style="stroke: #4b7b38;" class="elevation route-segment273" d="M56,121L56,121"></path><path style="stroke: #4b7b38;" class="elevation route-segment274" d="M56,121L56,121"></path><path style="stroke: #4b7b38;" class="elevation route-segment275" d="M56,121L56,121"></path><path style="stroke: #4b7b38;" class="elevation route-segment276" d="M56,121L56,121"></path><path style="stroke: #4b7b38;" class="elevation route-segment277" d="M56,121L56,121"></path><path style="stroke: #4b7b38;" class="elevation route-segment278" d="M56,121L56,123"></path><path style="stroke: #4c7d39;" class="elevation route-segment279" d="M56,123L56,123"></path><path style="stroke: #4c7d39;" class="elevation route-segment280" d="M56,123L56,123"></path><path style="stroke: #4c7d39;" class="elevation route-segment281" d="M56,123L56,123"></path><path style="stroke: #4c7d39;" class="elevation route-segment282" d="M56,123L56,123"></path><path style="stroke: #4c7d39;" class="elevation route-segment283" d="M56,123L56,123"></path><path style="stroke: #4c7d39;" class="elevation route-segment284" d="M56,123L56,123"></path><path style="stroke: #4c7d39;" class="elevation route-segment285" d="M56,123L56,123"></path><path style="stroke: #4c7d39;" class="elevation route-segment286" d="M56,123L56,123"></path><path style="stroke: #4c7d39;" class="elevation route-segment287" d="M56,123L56,123"></path><path style="stroke: #4c7d39;" class="elevation route-segment288" d="M56,123L56,121"></path><path style="stroke: #4b7b38;" class="elevation route-segment289" d="M56,121L56,121"></path><path style="stroke: #4b7b38;" class="elevation route-segment290" d="M56,121L56,121"></path><path style="stroke: #4b7b38;" class="elevation route-segment291" d="M56,121L56,121"></path><path style="stroke: #4b7b38;" class="elevation route-segment292" d="M56,121L56,121"></path><path style="stroke: #4b7b38;" class="elevation route-segment293" d="M56,121L56,121"></path><path style="stroke: #4b7b38;" class="elevation route-segment294" d="M56,121L56,121"></path><path style="stroke: #4b7b38;" class="elevation route-segment295" d="M56,121L56,121"></path><path style="stroke: #4b7b38;" class="elevation route-segment296" d="M56,121L56,119"></path><path style="stroke: #497a38;" class="elevation route-segment297" d="M56,119L56,119"></path><path style="stroke: #497a38;" class="elevation route-segment298" d="M56,119L56,119"></path><path style="stroke: #497a38;" class="elevation route-segment299" d="M56,119L56,119"></path><path style="stroke: #497a38;" class="elevation route-segment300" d="M56,119L56,119"></path><path style="stroke: #497a38;" class="elevation route-segment301" d="M56,119L57,117"></path><path style="stroke: #487837;" class="elevation route-segment302" d="M57,117L57,117"></path><path style="stroke: #487837;" class="elevation route-segment303" d="M57,117L57,117"></path><path style="stroke: #487837;" class="elevation route-segment304" d="M57,117L57,117"></path><path style="stroke: #487837;" class="elevation route-segment305" d="M57,117L57,117"></path><path style="stroke: #487837;" class="elevation route-segment306" d="M57,117L57,117"></path><path style="stroke: #487837;" class="elevation route-segment307" d="M57,117L57,117"></path><path style="stroke: #487837;" class="elevation route-segment308" d="M57,117L57,115"></path><path style="stroke: #477636;" class="elevation route-segment309" d="M57,115L57,115"></path><path style="stroke: #477636;" class="elevation route-segment310" d="M57,115L57,115"></path><path style="stroke: #477636;" class="elevation route-segment311" d="M57,115L57,115"></path><path style="stroke: #477636;" class="elevation route-segment312" d="M57,115L57,115"></path><path style="stroke: #477636;" class="elevation route-segment313" d="M57,115L57,115"></path><path style="stroke: #477636;" class="elevation route-segment314" d="M57,115L57,115"></path><path style="stroke: #477636;" class="elevation route-segment315" d="M57,115L57,115"></path><path style="stroke: #477636;" class="elevation route-segment316" d="M57,115L57,115"></path><path style="stroke: #477636;" class="elevation route-segment317" d="M57,115L57,119"></path><path style="stroke: #497937;" class="elevation route-segment318" d="M57,119L57,119"></path><path style="stroke: #497937;" class="elevation route-segment319" d="M57,119L58,117"></path><path style="stroke: #487837;" class="elevation route-segment320" d="M58,117L59,117"></path><path style="stroke: #487837;" class="elevation route-segment321" d="M59,117L59,117"></path><path style="stroke: #487837;" class="elevation route-segment322" d="M59,117L59,117"></path><path style="stroke: #487837;" class="elevation route-segment323" d="M59,117L59,115"></path><path style="stroke: #477636;" class="elevation route-segment324" d="M59,115L59,120"></path><path style="stroke: #4a7a38;" class="elevation route-segment325" d="M59,120L59,120"></path><path style="stroke: #4a7a38;" class="elevation route-segment326" d="M59,120L59,120"></path><path style="stroke: #4a7a38;" class="elevation route-segment327" d="M59,120L59,120"></path><path style="stroke: #4a7a38;" class="elevation route-segment328" d="M59,120L59,120"></path><path style="stroke: #4a7a38;" class="elevation route-segment329" d="M59,120L59,120"></path><path style="stroke: #4a7a38;" class="elevation route-segment330" d="M59,120L59,115"></path><path style="stroke: #477636;" class="elevation route-segment331" d="M59,115L59,117"></path><path style="stroke: #487837;" class="elevation route-segment332" d="M59,117L59,117"></path><path style="stroke: #487837;" class="elevation route-segment333" d="M59,117L59,117"></path><path style="stroke: #487837;" class="elevation route-segment334" d="M59,117L60,117"></path><path style="stroke: #487837;" class="elevation route-segment335" d="M60,117L61,119"></path><path style="stroke: #497937;" class="elevation route-segment336" d="M61,119L61,119"></path><path style="stroke: #497937;" class="elevation route-segment337" d="M61,119L61,115"></path><path style="stroke: #477636;" class="elevation route-segment338" d="M61,115L61,115"></path><path style="stroke: #477636;" class="elevation route-segment339" d="M61,115L61,115"></path><path style="stroke: #477636;" class="elevation route-segment340" d="M61,115L61,115"></path><path style="stroke: #477636;" class="elevation route-segment341" d="M61,115L61,115"></path><path style="stroke: #477636;" class="elevation route-segment342" d="M61,115L61,115"></path><path style="stroke: #477636;" class="elevation route-segment343" d="M61,115L61,115"></path><path style="stroke: #477636;" class="elevation route-segment344" d="M61,115L61,115"></path><path style="stroke: #477636;" class="elevation route-segment345" d="M61,115L61,115"></path><path style="stroke: #477636;" class="elevation route-segment346" d="M61,115L61,117"></path><path style="stroke: #487837;" class="elevation route-segment347" d="M61,117L61,117"></path><path style="stroke: #487837;" class="elevation route-segment348" d="M61,117L61,117"></path><path style="stroke: #487837;" class="elevation route-segment349" d="M61,117L61,117"></path><path style="stroke: #487837;" class="elevation route-segment350" d="M61,117L61,117"></path><path style="stroke: #487837;" class="elevation route-segment351" d="M61,117L62,119"></path><path style="stroke: #497a38;" class="elevation route-segment352" d="M62,119L62,119"></path><path style="stroke: #497a38;" class="elevation route-segment353" d="M62,119L62,119"></path><path style="stroke: #497a38;" class="elevation route-segment354" d="M62,119L62,119"></path><path style="stroke: #497a38;" class="elevation route-segment355" d="M62,119L62,119"></path><path style="stroke: #497a38;" class="elevation route-segment356" d="M62,119L62,121"></path><path style="stroke: #4b7b38;" class="elevation route-segment357" d="M62,121L62,121"></path><path style="stroke: #4b7b38;" class="elevation route-segment358" d="M62,121L62,121"></path><path style="stroke: #4b7b38;" class="elevation route-segment359" d="M62,121L62,121"></path><path style="stroke: #4b7b38;" class="elevation route-segment360" d="M62,121L62,121"></path><path style="stroke: #4b7b38;" class="elevation route-segment361" d="M62,121L62,121"></path><path style="stroke: #4b7b38;" class="elevation route-segment362" d="M62,121L62,121"></path><path style="stroke: #4b7b38;" class="elevation route-segment363" d="M62,121L62,121"></path><path style="stroke: #4b7b38;" class="elevation route-segment364" d="M62,121L62,123"></path><path style="stroke: #4c7d39;" class="elevation route-segment365" d="M62,123L62,123"></path><path style="stroke: #4c7d39;" class="elevation route-segment366" d="M62,123L62,123"></path><path style="stroke: #4c7d39;" class="elevation route-segment367" d="M62,123L62,123"></path><path style="stroke: #4c7d39;" class="elevation route-segment368" d="M62,123L62,123"></path><path style="stroke: #4c7d39;" class="elevation route-segment369" d="M62,123L62,123"></path><path style="stroke: #4c7d39;" class="elevation route-segment370" d="M62,123L62,123"></path><path style="stroke: #4c7d39;" class="elevation route-segment371" d="M62,123L62,123"></path><path style="stroke: #4c7d39;" class="elevation route-segment372" d="M62,123L62,123"></path><path style="stroke: #4c7d39;" class="elevation route-segment373" d="M62,123L62,123"></path><path style="stroke: #4c7d39;" class="elevation route-segment374" d="M62,123L62,121"></path><path style="stroke: #4b7b38;" class="elevation route-segment375" d="M62,121L62,121"></path><path style="stroke: #4b7b38;" class="elevation route-segment376" d="M62,121L62,121"></path><path style="stroke: #4b7b38;" class="elevation route-segment377" d="M62,121L62,121"></path><path style="stroke: #4b7b38;" class="elevation route-segment378" d="M62,121L62,121"></path><path style="stroke: #4b7b38;" class="elevation route-segment379" d="M62,121L62,121"></path><path style="stroke: #4b7b38;" class="elevation route-segment380" d="M62,121L62,121"></path><path style="stroke: #4b7b38;" class="elevation route-segment381" d="M62,121L62,121"></path><path style="stroke: #4b7b38;" class="elevation route-segment382" d="M62,121L62,121"></path><path style="stroke: #4b7b38;" class="elevation route-segment383" d="M62,121L62,121"></path><path style="stroke: #4b7b38;" class="elevation route-segment384" d="M62,121L62,121"></path><path style="stroke: #4b7b38;" class="elevation route-segment385" d="M62,121L62,128"></path><path style="stroke: #4f813a;" class="elevation route-segment386" d="M62,128L62,125"></path><path style="stroke: #4d7e39;" class="elevation route-segment387" d="M62,125L62,125"></path><path style="stroke: #4d7e39;" class="elevation route-segment388" d="M62,125L62,125"></path><path style="stroke: #4d7e39;" class="elevation route-segment389" d="M62,125L62,125"></path><path style="stroke: #4d7e39;" class="elevation route-segment390" d="M62,125L62,125"></path><path style="stroke: #4d7e39;" class="elevation route-segment391" d="M62,125L62,125"></path><path style="stroke: #4d7e39;" class="elevation route-segment392" d="M62,125L62,125"></path><path style="stroke: #4d7e39;" class="elevation route-segment393" d="M62,125L62,125"></path><path style="stroke: #4d7e39;" class="elevation route-segment394" d="M62,125L62,123"></path><path style="stroke: #4b7d38;" class="elevation route-segment395" d="M62,123L62,123"></path><path style="stroke: #4b7d38;" class="elevation route-segment396" d="M62,123L62,123"></path><path style="stroke: #4b7d38;" class="elevation route-segment397" d="M62,123L62,123"></path><path style="stroke: #4b7d38;" class="elevation route-segment398" d="M62,123L62,123"></path><path style="stroke: #4b7d38;" class="elevation route-segment399" d="M62,123L62,123"></path><path style="stroke: #4b7d38;" class="elevation route-segment400" d="M62,123L62,123"></path><path style="stroke: #4b7d38;" class="elevation route-segment401" d="M62,123L62,123"></path><path style="stroke: #4b7d38;" class="elevation route-segment402" d="M62,123L62,123"></path><path style="stroke: #4b7d38;" class="elevation route-segment403" d="M62,123L62,123"></path><path style="stroke: #4b7d38;" class="elevation route-segment404" d="M62,123L62,123"></path><path style="stroke: #4b7d38;" class="elevation route-segment405" d="M62,123L62,122"></path><path style="stroke: #4b7c38;" class="elevation route-segment406" d="M62,122L62,122"></path><path style="stroke: #4b7c38;" class="elevation route-segment407" d="M62,122L62,120"></path><path style="stroke: #4a7a38;" class="elevation route-segment408" d="M62,120L63,120"></path><path style="stroke: #4a7a38;" class="elevation route-segment409" d="M63,120L65,121"></path><path style="stroke: #4a7b38;" class="elevation route-segment410" d="M65,121L65,121"></path><path style="stroke: #4a7b38;" class="elevation route-segment411" d="M65,121L66,122"></path><path style="stroke: #4b7c38;" class="elevation route-segment412" d="M66,122L70,119"></path><path style="stroke: #497a38;" class="elevation route-segment413" d="M70,119L70,119"></path><path style="stroke: #497a38;" class="elevation route-segment414" d="M70,119L71,119"></path><path style="stroke: #497937;" class="elevation route-segment415" d="M71,119L74,119"></path><path style="stroke: #497937;" class="elevation route-segment416" d="M74,119L74,119"></path><path style="stroke: #497937;" class="elevation route-segment417" d="M74,119L77,120"></path><path style="stroke: #4a7a38;" class="elevation route-segment418" d="M77,120L78,121"></path><path style="stroke: #4b7b38;" class="elevation route-segment419" d="M78,121L79,121"></path><path style="stroke: #4b7b38;" class="elevation route-segment420" d="M79,121L79,121"></path><path style="stroke: #4b7b38;" class="elevation route-segment421" d="M79,121L81,121"></path><path style="stroke: #4b7b38;" class="elevation route-segment422" d="M81,121L81,121"></path><path style="stroke: #4b7b38;" class="elevation route-segment423" d="M81,121L81,121"></path><path style="stroke: #4b7b38;" class="elevation route-segment424" d="M81,121L81,121"></path><path style="stroke: #4b7b38;" class="elevation route-segment425" d="M81,121L81,121"></path><path style="stroke: #4b7b38;" class="elevation route-segment426" d="M81,121L81,121"></path><path style="stroke: #4b7b38;" class="elevation route-segment427" d="M81,121L81,121"></path><path style="stroke: #4b7b38;" class="elevation route-segment428" d="M81,121L81,121"></path><path style="stroke: #4b7b38;" class="elevation route-segment429" d="M81,121L81,121"></path><path style="stroke: #4b7b38;" class="elevation route-segment430" d="M81,121L81,121"></path><path style="stroke: #4b7b38;" class="elevation route-segment431" d="M81,121L81,121"></path><path style="stroke: #4b7b38;" class="elevation route-segment432" d="M81,121L81,121"></path><path style="stroke: #4b7b38;" class="elevation route-segment433" d="M81,121L81,121"></path><path style="stroke: #4b7b38;" class="elevation route-segment434" d="M81,121L81,121"></path><path style="stroke: #4b7b38;" class="elevation route-segment435" d="M81,121L81,123"></path><path style="stroke: #4b7d38;" class="elevation route-segment436" d="M81,123L81,123"></path><path style="stroke: #4b7d38;" class="elevation route-segment437" d="M81,123L81,123"></path><path style="stroke: #4b7d38;" class="elevation route-segment438" d="M81,123L81,123"></path><path style="stroke: #4b7d38;" class="elevation route-segment439" d="M81,123L82,123"></path><path style="stroke: #4b7d38;" class="elevation route-segment440" d="M82,123L82,123"></path><path style="stroke: #4b7d38;" class="elevation route-segment441" d="M82,123L83,123"></path><path style="stroke: #4b7d38;" class="elevation route-segment442" d="M83,123L86,124"></path><path style="stroke: #4c7d39;" class="elevation route-segment443" d="M86,124L87,126"></path><path style="stroke: #4d7f39;" class="elevation route-segment444" d="M87,126L88,126"></path><path style="stroke: #4d7f39;" class="elevation route-segment445" d="M88,126L89,126"></path><path style="stroke: #4d7f39;" class="elevation route-segment446" d="M89,126L89,126"></path><path style="stroke: #4d7f39;" class="elevation route-segment447" d="M89,126L89,126"></path><path style="stroke: #4d7f39;" class="elevation route-segment448" d="M89,126L89,126"></path><path style="stroke: #4d7f39;" class="elevation route-segment449" d="M89,126L89,126"></path><path style="stroke: #4d7f39;" class="elevation route-segment450" d="M89,126L91,127"></path><path style="stroke: #4e803a;" class="elevation route-segment451" d="M91,127L91,127"></path><path style="stroke: #4e803a;" class="elevation route-segment452" d="M91,127L92,128"></path><path style="stroke: #4f813a;" class="elevation route-segment453" d="M92,128L92,128"></path><path style="stroke: #4f813a;" class="elevation route-segment454" d="M92,128L92,128"></path><path style="stroke: #4f813a;" class="elevation route-segment455" d="M92,128L95,132"></path><path style="stroke: #51843b;" class="elevation route-segment456" d="M0,0"></path></svg>
