<?xml version="1.0" standalone="yes"?>
<svg width="760" height="150" xmlns="http://www.w3.org/2000/svg"><path style="stroke: #416f34;" class="elevation route-segment1" d="M2,105L2,105"></path><path style="stroke: #416f34;" class="elevation route-segment2" d="M2,105L3,103"></path><path style="stroke: #416f34;" class="elevation route-segment3" d="M3,103L3,103"></path><path style="stroke: #416f34;" class="elevation route-segment4" d="M3,103L3,103"></path><path style="stroke: #416f34;" class="elevation route-segment5" d="M3,103L3,103"></path><path style="stroke: #416f34;" class="elevation route-segment6" d="M3,103L3,103"></path><path style="stroke: #416f34;" class="elevation route-segment7" d="M3,103L3,103"></path><path style="stroke: #416f34;" class="elevation route-segment8" d="M3,103L3,103"></path><path style="stroke: #416f34;" class="elevation route-segment9" d="M3,103L4,103"></path><path style="stroke: #416f34;" class="elevation route-segment10" d="M4,103L5,103"></path><path style="stroke: #416f34;" class="elevation route-segment11" d="M5,103L5,103"></path><path style="stroke: #416f34;" class="elevation route-segment12" d="M5,103L5,103"></path><path style="stroke: #416f34;" class="elevation route-segment13" d="M5,103L6,103"></path><path style="stroke: #416f34;" class="elevation route-segment14" d="M6,103L7,103"></path><path style="stroke: #416f34;" class="elevation route-segment15" d="M7,103L7,103"></path><path style="stroke: #416f34;" class="elevation route-segment16" d="M7,103L8,103"></path><path style="stroke: #416f34;" class="elevation route-segment17" d="M8,103L8,103"></path><path style="stroke: #416f34;" class="elevation route-segment18" d="M8,103L8,103"></path><path style="stroke: #416f34;" class="elevation route-segment19" d="M8,103L8,103"></path><path style="stroke: #416f34;" class="elevation route-segment20" d="M8,103L8,103"></path><path style="stroke: #416f34;" class="elevation route-segment21" d="M8,103L8,103"></path><path style="stroke: #416f34;" class="elevation route-segment22" d="M8,103L8,103"></path><path style="stroke: #416f34;" class="elevation route-segment23" d="M8,103L8,103"></path><path style="stroke: #416f34;" class="elevation route-segment24" d="M8,103L9,103"></path><path style="stroke: #416f34;" class="elevation route-segment25" d="M9,103L9,103"></path><path style="stroke: #416f34;" class="elevation route-segment26" d="M9,103L9,103"></path><path style="stroke: #416f34;" class="elevation route-segment27" d="M9,103L9,103"></path><path style="stroke: #416f34;" class="elevation route-segment28" d="M9,103L10,103"></path><path style="stroke: #416f34;" class="elevation route-segment29" d="M10,103L10,103"></path><path style="stroke: #416f34;" class="elevation route-segment30" d="M10,103L11,102"></path><path style="stroke: #416f34;" class="elevation route-segment31" d="M11,102L12,100"></path><path style="stroke: #416f34;" class="elevation route-segment32" d="M12,100L12,100"></path><path style="stroke: #416f34;" class="elevation route-segment33" d="M12,100L13,100"></path><path style="stroke: #416f34;" class="elevation route-segment34" d="M13,100L13,100"></path><path style="stroke: #416f34;" class="elevation route-segment35" d="M13,100L13,100"></path><path style="stroke: #416f34;" class="elevation route-segment36" d="M13,100L13,100"></path><path style="stroke: #416f34;" class="elevation route-segment37" d="M13,100L13,94"></path><path style="stroke: #546737;" class="elevation route-segment38" d="M13,94L13,94"></path><path style="stroke: #546737;" class="elevation route-segment39" d="M13,94L14,94"></path><path style="stroke: #546737;" class="elevation route-segment40" d="M14,94L14,94"></path><path style="stroke: #546737;" class="elevation route-segment41" d="M14,94L16,92"></path><path style="stroke: #546737;" class="elevation route-segment42" d="M16,92L16,92"></path><path style="stroke: #546737;" class="elevation route-segment43" d="M16,92L17,92"></path><path style="stroke: #546737;" class="elevation route-segment44" d="M17,92L18,91"></path><path style="stroke: #546737;" class="elevation route-segment45" d="M18,91L18,91"></path><path style="stroke: #546737;" class="elevation route-segment46" d="M18,91L18,91"></path><path style="stroke: #546737;" class="elevation route-segment47" d="M18,91L20,91"></path><path style="stroke: #546737;" class="elevation route-segment48" d="M20,91L21,90"></path><path style="stroke: #546737;" class="elevation route-segment49" d="M21,90L21,90"></path><path style="stroke: #546737;" class="elevation route-segment50" d="M21,90L22,90"></path><path style="stroke: #546737;" class="elevation route-segment51" d="M22,90L25,92"></path><path style="stroke: #546737;" class="elevation route-segment52" d="M25,92L26,92"></path><path style="stroke: #546737;" class="elevation route-segment53" d="M26,92L28,92"></path><path style="stroke: #546737;" class="elevation route-segment54" d="M28,92L28,92"></path><path style="stroke: #546737;" class="elevation route-segment55" d="M28,92L30,90"></path><path style="stroke: #546737;" class="elevation route-segment56" d="M30,90L32,88"></path><path style="stroke: #546737;" class="elevation route-segment57" d="M32,88L34,87"></path><path style="stroke: #546737;" class="elevation route-segment58" d="M34,87L34,87"></path><path style="stroke: #546737;" class="elevation route-segment59" d="M34,87L34,87"></path><path style="stroke: #546737;" class="elevation route-segment60" d="M34,87L36,87"></path><path style="stroke: #546737;" class="elevation route-segment61" d="M36,87L38,89"></path><path style="stroke: #546737;" class="elevation route-segment62" d="M38,89L38,89"></path><path style="stroke: #546737;" class="elevation route-segment63" d="M38,89L38,89"></path><path style="stroke: #546737;" class="elevation route-segment64" d="M38,89L40,91"></path><path style="stroke: #546737;" class="elevation route-segment65" d="M40,91L41,91"></path><path style="stroke: #546737;" class="elevation route-segment66" d="M41,91L42,92"></path><path style="stroke: #546737;" class="elevation route-segment67" d="M42,92L42,92"></path><path style="stroke: #546737;" class="elevation route-segment68" d="M42,92L43,91"></path><path style="stroke: #546737;" class="elevation route-segment69" d="M43,91L44,95"></path><path style="stroke: #546737;" class="elevation route-segment70" d="M44,95L44,95"></path><path style="stroke: #546737;" class="elevation route-segment71" d="M44,95L46,92"></path><path style="stroke: #546737;" class="elevation route-segment72" d="M46,92L47,92"></path><path style="stroke: #546737;" class="elevation route-segment73" d="M47,92L48,91"></path><path style="stroke: #546737;" class="elevation route-segment74" d="M48,91L48,91"></path><path style="stroke: #546737;" class="elevation route-segment75" d="M48,91L48,95"></path><path style="stroke: #546737;" class="elevation route-segment76" d="M48,95L48,95"></path><path style="stroke: #546737;" class="elevation route-segment77" d="M48,95L49,95"></path><path style="stroke: #546737;" class="elevation route-segment78" d="M49,95L50,92"></path><path style="stroke: #546737;" class="elevation route-segment79" d="M50,92L50,92"></path><path style="stroke: #546737;" class="elevation route-segment80" d="M50,92L50,92"></path><path style="stroke: #546737;" class="elevation route-segment81" d="M50,92L50,97"></path><path style="stroke: #546737;" class="elevation route-segment82" d="M50,97L50,97"></path><path style="stroke: #546737;" class="elevation route-segment83" d="M50,97L50,97"></path><path style="stroke: #546737;" class="elevation route-segment84" d="M50,97L50,97"></path><path style="stroke: #546737;" class="elevation route-segment85" d="M50,97L50,97"></path><path style="stroke: #546737;" class="elevation route-segment86" d="M50,97L51,97"></path><path style="stroke: #546737;" class="elevation route-segment87" d="M51,97L51,97"></path><path style="stroke: #546737;" class="elevation route-segment88" d="M51,97L52,92"></path><path style="stroke: #546737;" class="elevation route-segment89" d="M52,92L52,92"></path><path style="stroke: #546737;" class="elevation route-segment90" d="M52,92L52,102"></path><path style="stroke: #416f34;" class="elevation route-segment91" d="M52,102L52,102"></path><path style="stroke: #416f34;" class="elevation route-segment92" d="M52,102L52,102"></path><path style="stroke: #416f34;" class="elevation route-segment93" d="M52,102L53,102"></path><path style="stroke: #416f34;" class="elevation route-segment94" d="M53,102L55,103"></path><path style="stroke: #416f34;" class="elevation route-segment95" d="M55,103L56,103"></path><path style="stroke: #416f34;" class="elevation route-segment96" d="M56,103L57,101"></path><path style="stroke: #416f34;" class="elevation route-segment97" d="M57,101L57,101"></path><path style="stroke: #416f34;" class="elevation route-segment98" d="M57,101L57,101"></path><path style="stroke: #416f34;" class="elevation route-segment99" d="M57,101L57,101"></path><path style="stroke: #416f34;" class="elevation route-segment100" d="M57,101L57,101"></path><path style="stroke: #416f34;" class="elevation route-segment101" d="M57,101L58,97"></path><path style="stroke: #546737;" class="elevation route-segment102" d="M58,97L59,96"></path><path style="stroke: #546737;" class="elevation route-segment103" d="M59,96L60,96"></path><path style="stroke: #546737;" class="elevation route-segment104" d="M60,96L61,99"></path><path style="stroke: #416f34;" class="elevation route-segment105" d="M61,99L63,98"></path><path style="stroke: #416f34;" class="elevation route-segment106" d="M63,98L64,99"></path><path style="stroke: #416f34;" class="elevation route-segment107" d="M64,99L66,100"></path><path style="stroke: #416f34;" class="elevation route-segment108" d="M66,100L68,100"></path><path style="stroke: #416f34;" class="elevation route-segment109" d="M68,100L69,100"></path><path style="stroke: #416f34;" class="elevation route-segment110" d="M69,100L69,100"></path><path style="stroke: #416f34;" class="elevation route-segment111" d="M69,100L69,100"></path><path style="stroke: #416f34;" class="elevation route-segment112" d="M69,100L69,100"></path><path style="stroke: #416f34;" class="elevation route-segment113" d="M69,100L69,100"></path><path style="stroke: #416f34;" class="elevation route-segment114" d="M69,100L69,100"></path><path style="stroke: #416f34;" class="elevation route-segment115" d="M69,100L69,100"></path><path style="stroke: #416f34;" class="elevation route-segment116" d="M69,100L69,102"></path><path style="stroke: #416f34;" class="elevation route-segment117" d="M69,102L69,102"></path><path style="stroke: #416f34;" class="elevation route-segment118" d="M69,102L69,102"></path><path style="stroke: #416f34;" class="elevation route-segment119" d="M69,102L69,102"></path><path style="stroke: #416f34;" class="elevation route-segment120" d="M69,102L69,102"></path><path style="stroke: #416f34;" class="elevation route-segment121" d="M69,102L69,102"></path><path style="stroke: #416f34;" class="elevation route-segment122" d="M69,102L69,102"></path><path style="stroke: #416f34;" class="elevation route-segment123" d="M69,102L69,102"></path><path style="stroke: #416f34;" class="elevation route-segment124" d="M69,102L70,102"></path><path style="stroke: #416f34;" class="elevation route-segment125" d="M70,102L71,103"></path><path style="stroke: #416f34;" class="elevation route-segment126" d="M71,103L72,103"></path><path style="stroke: #416f34;" class="elevation route-segment127" d="M72,103L76,101"></path><path style="stroke: #416f34;" class="elevation route-segment128" d="M76,101L80,98"></path><path style="stroke: #416f34;" class="elevation route-segment129" d="M80,98L80,98"></path><path style="stroke: #416f34;" class="elevation route-segment130" d="M80,98L81,98"></path><path style="stroke: #416f34;" class="elevation route-segment131" d="M81,98L82,100"></path><path style="stroke: #416f34;" class="elevation route-segment132" d="M82,100L82,100"></path><path style="stroke: #416f34;" class="elevation route-segment133" d="M82,100L83,100"></path><path style="stroke: #416f34;" class="elevation route-segment134" d="M83,100L84,101"></path><path style="stroke: #416f34;" class="elevation route-segment135" d="M84,101L84,101"></path><path style="stroke: #416f34;" class="elevation route-segment136" d="M84,101L84,101"></path><path style="stroke: #416f34;" class="elevation route-segment137" d="M84,101L84,101"></path><path style="stroke: #416f34;" class="elevation route-segment138" d="M84,101L85,100"></path><path style="stroke: #416f34;" class="elevation route-segment139" d="M85,100L86,97"></path><path style="stroke: #546737;" class="elevation route-segment140" d="M86,97L89,99"></path><path style="stroke: #416f34;" class="elevation route-segment141" d="M89,99L91,98"></path><path style="stroke: #546737;" class="elevation route-segment142" d="M91,98L93,99"></path><path style="stroke: #416f34;" class="elevation route-segment143" d="M93,99L94,102"></path><path style="stroke: #416f34;" class="elevation route-segment144" d="M94,102L95,101"></path><path style="stroke: #416f34;" class="elevation route-segment145" d="M95,101L95,101"></path><path style="stroke: #416f34;" class="elevation route-segment146" d="M95,101L95,101"></path><path style="stroke: #416f34;" class="elevation route-segment147" d="M95,101L98,93"></path><path style="stroke: #546737;" class="elevation route-segment148" d="M98,93L99,93"></path><path style="stroke: #546737;" class="elevation route-segment149" d="M99,93L101,91"></path><path style="stroke: #546737;" class="elevation route-segment150" d="M101,91L103,91"></path><path style="stroke: #546737;" class="elevation route-segment151" d="M103,91L103,91"></path><path style="stroke: #546737;" class="elevation route-segment152" d="M103,91L103,91"></path><path style="stroke: #546737;" class="elevation route-segment153" d="M103,91L103,91"></path><path style="stroke: #546737;" class="elevation route-segment154" d="M103,91L103,91"></path><path style="stroke: #546737;" class="elevation route-segment155" d="M103,91L103,91"></path><path style="stroke: #546737;" class="elevation route-segment156" d="M103,91L103,91"></path><path style="stroke: #546737;" class="elevation route-segment157" d="M103,91L105,92"></path><path style="stroke: #546737;" class="elevation route-segment158" d="M105,92L106,91"></path><path style="stroke: #546737;" class="elevation route-segment159" d="M106,91L106,91"></path><path style="stroke: #546737;" class="elevation route-segment160" d="M106,91L107,91"></path><path style="stroke: #546737;" class="elevation route-segment161" d="M107,91L107,93"></path><path style="stroke: #546737;" class="elevation route-segment162" d="M107,93L107,93"></path><path style="stroke: #546737;" class="elevation route-segment163" d="M107,93L109,99"></path><path style="stroke: #416f34;" class="elevation route-segment164" d="M109,99L112,98"></path><path style="stroke: #416f34;" class="elevation route-segment165" d="M112,98L114,96"></path><path style="stroke: #546737;" class="elevation route-segment166" d="M114,96L116,95"></path><path style="stroke: #546737;" class="elevation route-segment167" d="M116,95L119,93"></path><path style="stroke: #546737;" class="elevation route-segment168" d="M119,93L121,96"></path><path style="stroke: #546737;" class="elevation route-segment169" d="M121,96L122,93"></path><path style="stroke: #546737;" class="elevation route-segment170" d="M122,93L123,95"></path><path style="stroke: #546737;" class="elevation route-segment171" d="M123,95L123,95"></path><path style="stroke: #546737;" class="elevation route-segment172" d="M123,95L123,95"></path><path style="stroke: #546737;" class="elevation route-segment173" d="M123,95L123,93"></path><path style="stroke: #546737;" class="elevation route-segment174" d="M123,93L124,93"></path><path style="stroke: #546737;" class="elevation route-segment175" d="M124,93L125,93"></path><path style="stroke: #546737;" class="elevation route-segment176" d="M125,93L126,95"></path><path style="stroke: #546737;" class="elevation route-segment177" d="M126,95L126,95"></path><path style="stroke: #546737;" class="elevation route-segment178" d="M126,95L126,95"></path><path style="stroke: #546737;" class="elevation route-segment179" d="M126,95L127,97"></path><path style="stroke: #546737;" class="elevation route-segment180" d="M127,97L129,98"></path><path style="stroke: #416f34;" class="elevation route-segment181" d="M129,98L131,99"></path><path style="stroke: #416f34;" class="elevation route-segment182" d="M131,99L133,102"></path><path style="stroke: #416f34;" class="elevation route-segment183" d="M133,102L133,102"></path><path style="stroke: #416f34;" class="elevation route-segment184" d="M133,102L133,102"></path><path style="stroke: #416f34;" class="elevation route-segment185" d="M133,102L134,102"></path><path style="stroke: #416f34;" class="elevation route-segment186" d="M134,102L134,102"></path><path style="stroke: #416f34;" class="elevation route-segment187" d="M134,102L134,102"></path><path style="stroke: #416f34;" class="elevation route-segment188" d="M134,102L134,102"></path><path style="stroke: #416f34;" class="elevation route-segment189" d="M134,102L136,99"></path><path style="stroke: #416f34;" class="elevation route-segment190" d="M136,99L138,96"></path><path style="stroke: #546737;" class="elevation route-segment191" d="M138,96L140,95"></path><path style="stroke: #546737;" class="elevation route-segment192" d="M140,95L141,99"></path><path style="stroke: #416f34;" class="elevation route-segment193" d="M141,99L141,99"></path><path style="stroke: #416f34;" class="elevation route-segment194" d="M141,99L143,101"></path><path style="stroke: #416f34;" class="elevation route-segment195" d="M143,101L144,98"></path><path style="stroke: #416f34;" class="elevation route-segment196" d="M144,98L144,98"></path><path style="stroke: #416f34;" class="elevation route-segment197" d="M144,98L146,100"></path><path style="stroke: #416f34;" class="elevation route-segment198" d="M146,100L148,102"></path><path style="stroke: #416f34;" class="elevation route-segment199" d="M148,102L151,100"></path><path style="stroke: #416f34;" class="elevation route-segment200" d="M151,100L154,104"></path><path style="stroke: #416f34;" class="elevation route-segment201" d="M154,104L155,105"></path><path style="stroke: #416f34;" class="elevation route-segment202" d="M155,105L155,105"></path><path style="stroke: #416f34;" class="elevation route-segment203" d="M155,105L155,105"></path><path style="stroke: #416f34;" class="elevation route-segment204" d="M155,105L155,105"></path><path style="stroke: #416f34;" class="elevation route-segment205" d="M155,105L155,105"></path><path style="stroke: #416f34;" class="elevation route-segment206" d="M155,105L155,105"></path><path style="stroke: #416f34;" class="elevation route-segment207" d="M155,105L156,104"></path><path style="stroke: #416f34;" class="elevation route-segment208" d="M156,104L159,100"></path><path style="stroke: #416f34;" class="elevation route-segment209" d="M159,100L162,102"></path><path style="stroke: #416f34;" class="elevation route-segment210" d="M162,102L164,100"></path><path style="stroke: #416f34;" class="elevation route-segment211" d="M164,100L166,98"></path><path style="stroke: #416f34;" class="elevation route-segment212" d="M166,98L166,98"></path><path style="stroke: #416f34;" class="elevation route-segment213" d="M166,98L167,101"></path><path style="stroke: #416f34;" class="elevation route-segment214" d="M167,101L168,99"></path><path style="stroke: #416f34;" class="elevation route-segment215" d="M168,99L168,99"></path><path style="stroke: #416f34;" class="elevation route-segment216" d="M168,99L170,95"></path><path style="stroke: #546737;" class="elevation route-segment217" d="M170,95L172,96"></path><path style="stroke: #546737;" class="elevation route-segment218" d="M172,96L174,99"></path><path style="stroke: #416f34;" class="elevation route-segment219" d="M174,99L176,102"></path><path style="stroke: #416f34;" class="elevation route-segment220" d="M176,102L176,102"></path><path style="stroke: #416f34;" class="elevation route-segment221" d="M176,102L176,102"></path><path style="stroke: #416f34;" class="elevation route-segment222" d="M176,102L176,102"></path><path style="stroke: #416f34;" class="elevation route-segment223" d="M176,102L177,102"></path><path style="stroke: #416f34;" class="elevation route-segment224" d="M177,102L177,102"></path><path style="stroke: #416f34;" class="elevation route-segment225" d="M177,102L177,102"></path><path style="stroke: #416f34;" class="elevation route-segment226" d="M177,102L179,99"></path><path style="stroke: #416f34;" class="elevation route-segment227" d="M179,99L181,98"></path><path style="stroke: #416f34;" class="elevation route-segment228" d="M181,98L183,97"></path><path style="stroke: #546737;" class="elevation route-segment229" d="M183,97L184,95"></path><path style="stroke: #546737;" class="elevation route-segment230" d="M184,95L184,95"></path><path style="stroke: #546737;" class="elevation route-segment231" d="M184,95L184,95"></path><path style="stroke: #546737;" class="elevation route-segment232" d="M184,95L185,93"></path><path style="stroke: #546737;" class="elevation route-segment233" d="M185,93L186,93"></path><path style="stroke: #546737;" class="elevation route-segment234" d="M186,93L187,93"></path><path style="stroke: #546737;" class="elevation route-segment235" d="M187,93L187,95"></path><path style="stroke: #546737;" class="elevation route-segment236" d="M187,95L187,95"></path><path style="stroke: #546737;" class="elevation route-segment237" d="M187,95L187,95"></path><path style="stroke: #546737;" class="elevation route-segment238" d="M187,95L188,93"></path><path style="stroke: #546737;" class="elevation route-segment239" d="M188,93L189,96"></path><path style="stroke: #546737;" class="elevation route-segment240" d="M189,96L191,93"></path><path style="stroke: #546737;" class="elevation route-segment241" d="M191,93L194,95"></path><path style="stroke: #546737;" class="elevation route-segment242" d="M194,95L196,96"></path><path style="stroke: #546737;" class="elevation route-segment243" d="M196,96L198,98"></path><path style="stroke: #416f34;" class="elevation route-segment244" d="M198,98L201,99"></path><path style="stroke: #416f34;" class="elevation route-segment245" d="M201,99L203,93"></path><path style="stroke: #546737;" class="elevation route-segment246" d="M203,93L203,93"></path><path style="stroke: #546737;" class="elevation route-segment247" d="M203,93L203,91"></path><path style="stroke: #546737;" class="elevation route-segment248" d="M203,91L204,91"></path><path style="stroke: #546737;" class="elevation route-segment249" d="M204,91L204,91"></path><path style="stroke: #546737;" class="elevation route-segment250" d="M204,91L205,92"></path><path style="stroke: #546737;" class="elevation route-segment251" d="M205,92L207,91"></path><path style="stroke: #546737;" class="elevation route-segment252" d="M207,91L207,91"></path><path style="stroke: #546737;" class="elevation route-segment253" d="M207,91L207,91"></path><path style="stroke: #546737;" class="elevation route-segment254" d="M207,91L207,91"></path><path style="stroke: #546737;" class="elevation route-segment255" d="M207,91L207,91"></path><path style="stroke: #546737;" class="elevation route-segment256" d="M207,91L207,91"></path><path style="stroke: #546737;" class="elevation route-segment257" d="M207,91L207,91"></path><path style="stroke: #546737;" class="elevation route-segment258" d="M207,91L209,91"></path><path style="stroke: #546737;" class="elevation route-segment259" d="M209,91L211,93"></path><path style="stroke: #546737;" class="elevation route-segment260" d="M211,93L212,93"></path><path style="stroke: #546737;" class="elevation route-segment261" d="M212,93L215,101"></path><path style="stroke: #416f34;" class="elevation route-segment262" d="M215,101L215,101"></path><path style="stroke: #416f34;" class="elevation route-segment263" d="M215,101L215,101"></path><path style="stroke: #416f34;" class="elevation route-segment264" d="M215,101L216,102"></path><path style="stroke: #416f34;" class="elevation route-segment265" d="M216,102L217,99"></path><path style="stroke: #416f34;" class="elevation route-segment266" d="M217,99L219,98"></path><path style="stroke: #546737;" class="elevation route-segment267" d="M219,98L221,99"></path><path style="stroke: #416f34;" class="elevation route-segment268" d="M221,99L224,97"></path><path style="stroke: #546737;" class="elevation route-segment269" d="M224,97L225,100"></path><path style="stroke: #416f34;" class="elevation route-segment270" d="M225,100L225,101"></path><path style="stroke: #416f34;" class="elevation route-segment271" d="M225,101L225,101"></path><path style="stroke: #416f34;" class="elevation route-segment272" d="M225,101L226,101"></path><path style="stroke: #416f34;" class="elevation route-segment273" d="M226,101L226,101"></path><path style="stroke: #416f34;" class="elevation route-segment274" d="M226,101L227,100"></path><path style="stroke: #416f34;" class="elevation route-segment275" d="M227,100L228,100"></path><path style="stroke: #416f34;" class="elevation route-segment276" d="M228,100L228,100"></path><path style="stroke: #416f34;" class="elevation route-segment277" d="M228,100L229,98"></path><path style="stroke: #416f34;" class="elevation route-segment278" d="M229,98L230,98"></path><path style="stroke: #416f34;" class="elevation route-segment279" d="M230,98L230,98"></path><path style="stroke: #416f34;" class="elevation route-segment280" d="M230,98L234,101"></path><path style="stroke: #416f34;" class="elevation route-segment281" d="M234,101L238,103"></path><path style="stroke: #416f34;" class="elevation route-segment282" d="M238,103L239,103"></path><path style="stroke: #416f34;" class="elevation route-segment283" d="M239,103L240,102"></path><path style="stroke: #416f34;" class="elevation route-segment284" d="M240,102L241,102"></path><path style="stroke: #416f34;" class="elevation route-segment285" d="M241,102L241,102"></path><path style="stroke: #416f34;" class="elevation route-segment286" d="M241,102L241,102"></path><path style="stroke: #416f34;" class="elevation route-segment287" d="M241,102L241,102"></path><path style="stroke: #416f34;" class="elevation route-segment288" d="M241,102L241,102"></path><path style="stroke: #416f34;" class="elevation route-segment289" d="M241,102L241,102"></path><path style="stroke: #416f34;" class="elevation route-segment290" d="M241,102L241,102"></path><path style="stroke: #416f34;" class="elevation route-segment291" d="M241,102L241,102"></path><path style="stroke: #416f34;" class="elevation route-segment292" d="M241,102L241,100"></path><path style="stroke: #416f34;" class="elevation route-segment293" d="M241,100L241,100"></path><path style="stroke: #416f34;" class="elevation route-segment294" d="M241,100L241,100"></path><path style="stroke: #416f34;" class="elevation route-segment295" d="M241,100L241,100"></path><path style="stroke: #416f34;" class="elevation route-segment296" d="M241,100L241,100"></path><path style="stroke: #416f34;" class="elevation route-segment297" d="M241,100L241,100"></path><path style="stroke: #416f34;" class="elevation route-segment298" d="M241,100L241,100"></path><path style="stroke: #416f34;" class="elevation route-segment299" d="M241,100L242,100"></path><path style="stroke: #416f34;" class="elevation route-segment300" d="M242,100L244,100"></path><path style="stroke: #416f34;" class="elevation route-segment301" d="M244,100L246,99"></path><path style="stroke: #416f34;" class="elevation route-segment302" d="M246,99L247,98"></path><path style="stroke: #416f34;" class="elevation route-segment303" d="M247,98L249,99"></path><path style="stroke: #416f34;" class="elevation route-segment304" d="M249,99L250,96"></path><path style="stroke: #546737;" class="elevation route-segment305" d="M250,96L251,96"></path><path style="stroke: #546737;" class="elevation route-segment306" d="M251,96L252,97"></path><path style="stroke: #546737;" class="elevation route-segment307" d="M252,97L253,101"></path><path style="stroke: #416f34;" class="elevation route-segment308" d="M253,101L253,101"></path><path style="stroke: #416f34;" class="elevation route-segment309" d="M253,101L253,101"></path><path style="stroke: #416f34;" class="elevation route-segment310" d="M253,101L253,101"></path><path style="stroke: #416f34;" class="elevation route-segment311" d="M253,101L253,101"></path><path style="stroke: #416f34;" class="elevation route-segment312" d="M253,101L254,103"></path><path style="stroke: #416f34;" class="elevation route-segment313" d="M254,103L255,103"></path><path style="stroke: #416f34;" class="elevation route-segment314" d="M255,103L257,102"></path><path style="stroke: #416f34;" class="elevation route-segment315" d="M257,102L258,102"></path><path style="stroke: #416f34;" class="elevation route-segment316" d="M258,102L258,102"></path><path style="stroke: #416f34;" class="elevation route-segment317" d="M258,102L258,102"></path><path style="stroke: #416f34;" class="elevation route-segment318" d="M258,102L258,92"></path><path style="stroke: #546737;" class="elevation route-segment319" d="M258,92L258,92"></path><path style="stroke: #546737;" class="elevation route-segment320" d="M258,92L259,97"></path><path style="stroke: #546737;" class="elevation route-segment321" d="M259,97L259,97"></path><path style="stroke: #546737;" class="elevation route-segment322" d="M259,97L260,97"></path><path style="stroke: #546737;" class="elevation route-segment323" d="M260,97L260,97"></path><path style="stroke: #546737;" class="elevation route-segment324" d="M260,97L260,97"></path><path style="stroke: #546737;" class="elevation route-segment325" d="M260,97L260,97"></path><path style="stroke: #546737;" class="elevation route-segment326" d="M260,97L260,97"></path><path style="stroke: #546737;" class="elevation route-segment327" d="M260,97L260,92"></path><path style="stroke: #546737;" class="elevation route-segment328" d="M260,92L260,92"></path><path style="stroke: #546737;" class="elevation route-segment329" d="M260,92L260,92"></path><path style="stroke: #546737;" class="elevation route-segment330" d="M260,92L261,95"></path><path style="stroke: #546737;" class="elevation route-segment331" d="M261,95L262,95"></path><path style="stroke: #546737;" class="elevation route-segment332" d="M262,95L262,95"></path><path style="stroke: #546737;" class="elevation route-segment333" d="M262,95L262,91"></path><path style="stroke: #546737;" class="elevation route-segment334" d="M262,91L262,91"></path><path style="stroke: #546737;" class="elevation route-segment335" d="M262,91L263,92"></path><path style="stroke: #546737;" class="elevation route-segment336" d="M263,92L264,92"></path><path style="stroke: #546737;" class="elevation route-segment337" d="M264,92L266,95"></path><path style="stroke: #546737;" class="elevation route-segment338" d="M266,95L266,95"></path><path style="stroke: #546737;" class="elevation route-segment339" d="M266,95L267,91"></path><path style="stroke: #546737;" class="elevation route-segment340" d="M267,91L268,92"></path><path style="stroke: #546737;" class="elevation route-segment341" d="M268,92L268,92"></path><path style="stroke: #546737;" class="elevation route-segment342" d="M268,92L269,91"></path><path style="stroke: #546737;" class="elevation route-segment343" d="M269,91L270,91"></path><path style="stroke: #546737;" class="elevation route-segment344" d="M270,91L272,89"></path><path style="stroke: #546737;" class="elevation route-segment345" d="M272,89L272,89"></path><path style="stroke: #546737;" class="elevation route-segment346" d="M272,89L272,89"></path><path style="stroke: #546737;" class="elevation route-segment347" d="M272,89L274,87"></path><path style="stroke: #546737;" class="elevation route-segment348" d="M274,87L276,87"></path><path style="stroke: #546737;" class="elevation route-segment349" d="M276,87L276,87"></path><path style="stroke: #546737;" class="elevation route-segment350" d="M276,87L276,87"></path><path style="stroke: #546737;" class="elevation route-segment351" d="M276,87L278,88"></path><path style="stroke: #546737;" class="elevation route-segment352" d="M278,88L280,90"></path><path style="stroke: #546737;" class="elevation route-segment353" d="M280,90L282,92"></path><path style="stroke: #546737;" class="elevation route-segment354" d="M282,92L282,92"></path><path style="stroke: #546737;" class="elevation route-segment355" d="M282,92L284,92"></path><path style="stroke: #546737;" class="elevation route-segment356" d="M284,92L285,92"></path><path style="stroke: #546737;" class="elevation route-segment357" d="M285,92L288,90"></path><path style="stroke: #546737;" class="elevation route-segment358" d="M288,90L289,90"></path><path style="stroke: #546737;" class="elevation route-segment359" d="M289,90L289,90"></path><path style="stroke: #546737;" class="elevation route-segment360" d="M289,90L290,91"></path><path style="stroke: #546737;" class="elevation route-segment361" d="M290,91L292,91"></path><path style="stroke: #546737;" class="elevation route-segment362" d="M292,91L292,91"></path><path style="stroke: #546737;" class="elevation route-segment363" d="M292,91L292,91"></path><path style="stroke: #546737;" class="elevation route-segment364" d="M292,91L293,92"></path><path style="stroke: #546737;" class="elevation route-segment365" d="M293,92L294,92"></path><path style="stroke: #546737;" class="elevation route-segment366" d="M294,92L294,92"></path><path style="stroke: #546737;" class="elevation route-segment367" d="M294,92L296,94"></path><path style="stroke: #546737;" class="elevation route-segment368" d="M296,94L296,94"></path><path style="stroke: #546737;" class="elevation route-segment369" d="M296,94L297,94"></path><path style="stroke: #546737;" class="elevation route-segment370" d="M297,94L297,94"></path><path style="stroke: #546737;" class="elevation route-segment371" d="M297,94L297,100"></path><path style="stroke: #416f34;" class="elevation route-segment372" d="M297,100L297,100"></path><path style="stroke: #416f34;" class="elevation route-segment373" d="M297,100L297,100"></path><path style="stroke: #416f34;" class="elevation route-segment374" d="M297,100L297,100"></path><path style="stroke: #416f34;" class="elevation route-segment375" d="M297,100L298,100"></path><path style="stroke: #416f34;" class="elevation route-segment376" d="M298,100L298,100"></path><path style="stroke: #416f34;" class="elevation route-segment377" d="M298,100L299,102"></path><path style="stroke: #416f34;" class="elevation route-segment378" d="M299,102L300,103"></path><path style="stroke: #416f34;" class="elevation route-segment379" d="M300,103L300,103"></path><path style="stroke: #416f34;" class="elevation route-segment380" d="M300,103L301,103"></path><path style="stroke: #416f34;" class="elevation route-segment381" d="M301,103L301,103"></path><path style="stroke: #416f34;" class="elevation route-segment382" d="M301,103L301,103"></path><path style="stroke: #416f34;" class="elevation route-segment383" d="M301,103L301,103"></path><path style="stroke: #416f34;" class="elevation route-segment384" d="M301,103L302,103"></path><path style="stroke: #416f34;" class="elevation route-segment385" d="M302,103L302,103"></path><path style="stroke: #416f34;" class="elevation route-segment386" d="M302,103L302,103"></path><path style="stroke: #416f34;" class="elevation route-segment387" d="M302,103L302,103"></path><path style="stroke: #416f34;" class="elevation route-segment388" d="M302,103L302,103"></path><path style="stroke: #416f34;" class="elevation route-segment389" d="M302,103L302,103"></path><path style="stroke: #416f34;" class="elevation route-segment390" d="M302,103L302,103"></path><path style="stroke: #416f34;" class="elevation route-segment391" d="M302,103L302,103"></path><path style="stroke: #416f34;" class="elevation route-segment392" d="M302,103L303,103"></path><path style="stroke: #416f34;" class="elevation route-segment393" d="M303,103L303,103"></path><path style="stroke: #416f34;" class="elevation route-segment394" d="M303,103L304,103"></path><path style="stroke: #416f34;" class="elevation route-segment395" d="M304,103L305,103"></path><path style="stroke: #416f34;" class="elevation route-segment396" d="M305,103L305,103"></path><path style="stroke: #416f34;" class="elevation route-segment397" d="M305,103L305,103"></path><path style="stroke: #416f34;" class="elevation route-segment398" d="M305,103L306,103"></path><path style="stroke: #416f34;" class="elevation route-segment399" d="M306,103L307,103"></path><path style="stroke: #416f34;" class="elevation route-segment400" d="M307,103L307,103"></path><path style="stroke: #416f34;" class="elevation route-segment401" d="M307,103L307,103"></path><path style="stroke: #416f34;" class="elevation route-segment402" d="M307,103L307,103"></path><path style="stroke: #416f34;" class="elevation route-segment403" d="M307,103L307,103"></path><path style="stroke: #416f34;" class="elevation route-segment404" d="M307,103L307,103"></path><path style="stroke: #416f34;" class="elevation route-segment405" d="M307,103L307,103"></path><path style="stroke: #416f34;" class="elevation route-segment406" d="M307,103L308,105"></path><path style="stroke: #416f34;" class="elevation route-segment407" d="M308,105L308,105"></path><path style="stroke: #416f34;" class="elevation route-segment408" d="M308,105L310,107"></path><path style="stroke: #416f34;" class="elevation route-segment409" d="M310,107L310,107"></path><path style="stroke: #416f34;" class="elevation route-segment410" d=""></path></svg>
