<?xml version="1.0" standalone="yes"?>
<svg width="760" height="150" xmlns="http://www.w3.org/2000/svg"><path style="stroke: #497a38;" class="elevation route-segment1" d="M1,119L3,118"></path><path style="stroke: #497937;" class="elevation route-segment2" d="M3,118L6,121"></path><path style="stroke: #4a7b38;" class="elevation route-segment3" d="M6,121L14,121"></path><path style="stroke: #4b7b38;" class="elevation route-segment4" d="M14,121L18,125"></path><path style="stroke: #4d7e39;" class="elevation route-segment5" d="M18,125L25,126"></path><path style="stroke: #4d7f39;" class="elevation route-segment6" d="M25,126L27,125"></path><path style="stroke: #4d7e39;" class="elevation route-segment7" d="M27,125L32,126"></path><path style="stroke: #4d7f39;" class="elevation route-segment8" d="M32,126L35,125"></path><path style="stroke: #4d7e39;" class="elevation route-segment9" d="M35,125L41,123"></path><path style="stroke: #4b7d38;" class="elevation route-segment10" d="M41,123L45,125"></path><path style="stroke: #4d7e39;" class="elevation route-segment11" d="M45,125L46,126"></path><path style="stroke: #4d7f39;" class="elevation route-segment12" d="M46,126L48,126"></path><path style="stroke: #4d7f39;" class="elevation route-segment13" d="M48,126L51,126"></path><path style="stroke: #4d7f39;" class="elevation route-segment14" d="M51,126L56,127"></path><path style="stroke: #4e803a;" class="elevation route-segment15" d="M56,127L64,132"></path><path style="stroke: #51843b;" class="elevation route-segment16" d="M64,132L72,132"></path><path style="stroke: #51843b;" class="elevation route-segment17" d="M72,132L73,132"></path><path style="stroke: #51843b;" class="elevation route-segment18" d="M73,132L77,133"></path><path style="stroke: #52853b;" class="elevation route-segment19" d="M77,133L81,135"></path><path style="stroke: #52863c;" class="elevation route-segment20" d="M81,135L85,135"></path><path style="stroke: #53863c;" class="elevation route-segment21" d="M85,135L87,136"></path><path style="stroke: #53873c;" class="elevation route-segment22" d="M87,136L89,137"></path><path style="stroke: #54883d;" class="elevation route-segment23" d="M89,137L91,138"></path><path style="stroke: #55893d;" class="elevation route-segment24" d="M91,138L93,139"></path><path style="stroke: #558a3d;" class="elevation route-segment25" d="M93,139L95,138"></path><path style="stroke: #55893d;" class="elevation route-segment26" d="M95,138L97,139"></path><path style="stroke: #558a3d;" class="elevation route-segment27" d="M97,139L107,140"></path><path style="stroke: #568b3d;" class="elevation route-segment28" d="M107,140L112,140"></path><path style="stroke: #568b3d;" class="elevation route-segment29" d="M112,140L113,141"></path><path style="stroke: #568b3e;" class="elevation route-segment30" d="M113,141L114,141"></path><path style="stroke: #568b3e;" class="elevation route-segment31" d="M114,141L115,141"></path><path style="stroke: #568b3e;" class="elevation route-segment32" d="M115,141L116,141"></path><path style="stroke: #568b3e;" class="elevation route-segment33" d="M116,141L117,139"></path><path style="stroke: #558a3d;" class="elevation route-segment34" d="M117,139L118,137"></path><path style="stroke: #54883d;" class="elevation route-segment35" d="M118,137L120,138"></path><path style="stroke: #54893d;" class="elevation route-segment36" d="M120,138L121,138"></path><path style="stroke: #54893d;" class="elevation route-segment37" d="M121,138L124,136"></path><path style="stroke: #53873c;" class="elevation route-segment38" d="M124,136L126,136"></path><path style="stroke: #53873c;" class="elevation route-segment39" d="M126,136L127,138"></path><path style="stroke: #54883d;" class="elevation route-segment40" d="M127,138L129,137"></path><path style="stroke: #53883c;" class="elevation route-segment41" d="M129,137L132,134"></path><path style="stroke: #52853c;" class="elevation route-segment42" d="M132,134L134,133"></path><path style="stroke: #51853b;" class="elevation route-segment43" d="M134,133L135,133"></path><path style="stroke: #52853b;" class="elevation route-segment44" d="M135,133L138,133"></path><path style="stroke: #52853b;" class="elevation route-segment45" d="M138,133L139,127"></path><path style="stroke: #4e803a;" class="elevation route-segment46" d="M139,127L140,128"></path><path style="stroke: #4e813a;" class="elevation route-segment47" d="M140,128L143,128"></path><path style="stroke: #4e813a;" class="elevation route-segment48" d="M143,128L146,118"></path><path style="stroke: #497937;" class="elevation route-segment49" d="M146,118L147,117"></path><path style="stroke: #487837;" class="elevation route-segment50" d="M147,117L148,117"></path><path style="stroke: #487837;" class="elevation route-segment51" d="M148,117L149,117"></path><path style="stroke: #487837;" class="elevation route-segment52" d="M149,117L149,113"></path><path style="stroke: #467536;" class="elevation route-segment53" d="M149,113L149,113"></path><path style="stroke: #467536;" class="elevation route-segment54" d="M149,113L150,113"></path><path style="stroke: #467536;" class="elevation route-segment55" d="M150,113L151,114"></path><path style="stroke: #467636;" class="elevation route-segment56" d="M151,114L152,109"></path><path style="stroke: #437135;" class="elevation route-segment57" d="M152,109L153,109"></path><path style="stroke: #437135;" class="elevation route-segment58" d="M153,109L154,112"></path><path style="stroke: #457435;" class="elevation route-segment59" d="M154,112L155,105"></path><path style="stroke: #416f34;" class="elevation route-segment60" d="M155,105L157,102"></path><path style="stroke: #3f6c33;" class="elevation route-segment61" d="M157,102L159,98"></path><path style="stroke: #416a33;" class="elevation route-segment62" d="M159,98L161,94"></path><path style="stroke: #4c6835;" class="elevation route-segment63" d="M161,94L163,83"></path><path style="stroke: #66653a;" class="elevation route-segment64" d="M163,83L164,84"></path><path style="stroke: #64653a;" class="elevation route-segment65" d="M164,84L165,84"></path><path style="stroke: #64653a;" class="elevation route-segment66" d="M165,84L166,82"></path><path style="stroke: #69653b;" class="elevation route-segment67" d="M166,82L167,82"></path><path style="stroke: #69653b;" class="elevation route-segment68" d="M167,82L168,77"></path><path style="stroke: #77633e;" class="elevation route-segment69" d="M168,77L168,73"></path><path style="stroke: #7f6240;" class="elevation route-segment70" d="M168,73L168,73"></path><path style="stroke: #7f6240;" class="elevation route-segment71" d="M168,73L168,68"></path><path style="stroke: #8d6042;" class="elevation route-segment72" d="M168,68L168,68"></path><path style="stroke: #8d6042;" class="elevation route-segment73" d="M168,68L168,73"></path><path style="stroke: #7f6240;" class="elevation route-segment74" d="M168,73L168,73"></path><path style="stroke: #7f6240;" class="elevation route-segment75" d="M168,73L169,68"></path><path style="stroke: #8d6042;" class="elevation route-segment76" d="M169,68L170,69"></path><path style="stroke: #8a6042;" class="elevation route-segment77" d="M170,69L171,69"></path><path style="stroke: #8a6042;" class="elevation route-segment78" d="M171,69L172,69"></path><path style="stroke: #8a6042;" class="elevation route-segment79" d="M172,69L173,69"></path><path style="stroke: #8a6042;" class="elevation route-segment80" d="M173,69L174,69"></path><path style="stroke: #8b6042;" class="elevation route-segment81" d="M174,69L175,69"></path><path style="stroke: #8b6042;" class="elevation route-segment82" d="M175,69L176,67"></path><path style="stroke: #905f43;" class="elevation route-segment83" d="M176,67L177,65"></path><path style="stroke: #945f44;" class="elevation route-segment84" d="M177,65L179,65"></path><path style="stroke: #955f44;" class="elevation route-segment85" d="M179,65L181,58"></path><path style="stroke: #a65d48;" class="elevation route-segment86" d="M181,58L183,59"></path><path style="stroke: #a35d47;" class="elevation route-segment87" d="M183,59L184,59"></path><path style="stroke: #a35d47;" class="elevation route-segment88" d="M184,59L185,61"></path><path style="stroke: #9f5e46;" class="elevation route-segment89" d="M185,61L186,61"></path><path style="stroke: #9f5e46;" class="elevation route-segment90" d="M186,61L186,61"></path><path style="stroke: #9f5e46;" class="elevation route-segment91" d="M186,61L186,61"></path><path style="stroke: #9f5e46;" class="elevation route-segment92" d="M186,61L187,61"></path><path style="stroke: #9f5e46;" class="elevation route-segment93" d="M187,61L188,58"></path><path style="stroke: #a55d47;" class="elevation route-segment94" d="M188,58L189,58"></path><path style="stroke: #a55d47;" class="elevation route-segment95" d="M189,58L190,57"></path><path style="stroke: #a85c48;" class="elevation route-segment96" d="M190,57L191,57"></path><path style="stroke: #a85c48;" class="elevation route-segment97" d="M191,57L192,57"></path><path style="stroke: #a75d48;" class="elevation route-segment98" d="M192,57L193,57"></path><path style="stroke: #a75d48;" class="elevation route-segment99" d="M193,57L194,56"></path><path style="stroke: #ab5c49;" class="elevation route-segment100" d="M194,56L195,56"></path><path style="stroke: #ab5c49;" class="elevation route-segment101" d="M195,56L196,54"></path><path style="stroke: #af5b4a;" class="elevation route-segment102" d="M196,54L197,54"></path><path style="stroke: #af5b4a;" class="elevation route-segment103" d="M197,54L197,50"></path><path style="stroke: #b95a4c;" class="elevation route-segment104" d="M197,50L198,46"></path><path style="stroke: #b95749;" class="elevation route-segment105" d="M198,46L200,44"></path><path style="stroke: #b75547;" class="elevation route-segment106" d="M200,44L201,38"></path><path style="stroke: #b35042;" class="elevation route-segment107" d="M201,38L202,36"></path><path style="stroke: #b24e40;" class="elevation route-segment108" d="M202,36L205,36"></path><path style="stroke: #b24e40;" class="elevation route-segment109" d="M205,36L206,34"></path><path style="stroke: #b04d3f;" class="elevation route-segment110" d="M206,34L207,34"></path><path style="stroke: #b04c3e;" class="elevation route-segment111" d="M207,34L209,42"></path><path style="stroke: #b65446;" class="elevation route-segment112" d="M209,42L209,34"></path><path style="stroke: #b04c3e;" class="elevation route-segment113" d="M209,34L210,34"></path><path style="stroke: #b04c3e;" class="elevation route-segment114" d="M210,34L211,34"></path><path style="stroke: #b04c3e;" class="elevation route-segment115" d="M211,34L212,34"></path><path style="stroke: #b04d3f;" class="elevation route-segment116" d="M212,34L214,36"></path><path style="stroke: #b24e40;" class="elevation route-segment117" d="M214,36L215,34"></path><path style="stroke: #b04c3e;" class="elevation route-segment118" d="M215,34L216,34"></path><path style="stroke: #b04c3e;" class="elevation route-segment119" d="M216,34L217,33"></path><path style="stroke: #af4b3d;" class="elevation route-segment120" d="M217,33L220,31"></path><path style="stroke: #ae4a3c;" class="elevation route-segment121" d="M220,31L221,31"></path><path style="stroke: #ae4a3c;" class="elevation route-segment122" d="M221,31L221,30"></path><path style="stroke: #ad493b;" class="elevation route-segment123" d="M221,30L222,30"></path><path style="stroke: #ad493b;" class="elevation route-segment124" d="M222,30L225,30"></path><path style="stroke: #ad493b;" class="elevation route-segment125" d="M225,30L225,30"></path><path style="stroke: #ad493b;" class="elevation route-segment126" d="M225,30L228,28"></path><path style="stroke: #ac4739;" class="elevation route-segment127" d="M228,28L230,27"></path><path style="stroke: #ab4638;" class="elevation route-segment128" d="M230,27L233,27"></path><path style="stroke: #ab4638;" class="elevation route-segment129" d="M233,27L239,18"></path><path style="stroke: #a53e30;" class="elevation route-segment130" d="M239,18L242,12"></path><path style="stroke: #a1392b;" class="elevation route-segment131" d="M242,12L243,15"></path><path style="stroke: #a33b2d;" class="elevation route-segment132" d="M243,15L244,18"></path><path style="stroke: #a53e30;" class="elevation route-segment133" d="M244,18L246,14"></path><path style="stroke: #a23b2d;" class="elevation route-segment134" d="M246,14L248,11"></path><path style="stroke: #a0382a;" class="elevation route-segment135" d="M248,11L251,12"></path><path style="stroke: #a1392b;" class="elevation route-segment136" d="M251,12L253,18"></path><path style="stroke: #a53e30;" class="elevation route-segment137" d="M253,18L258,27"></path><path style="stroke: #ab4638;" class="elevation route-segment138" d="M258,27L261,27"></path><path style="stroke: #ab4638;" class="elevation route-segment139" d="M261,27L263,28"></path><path style="stroke: #ac4739;" class="elevation route-segment140" d="M263,28L266,30"></path><path style="stroke: #ad493b;" class="elevation route-segment141" d="M266,30L267,30"></path><path style="stroke: #ad493b;" class="elevation route-segment142" d="M267,30L268,30"></path><path style="stroke: #ad493b;" class="elevation route-segment143" d="M268,30L269,30"></path><path style="stroke: #ad493b;" class="elevation route-segment144" d="M269,30L270,30"></path><path style="stroke: #ad493b;" class="elevation route-segment145" d="M270,30L273,30"></path><path style="stroke: #ad493b;" class="elevation route-segment146" d="M273,30L274,30"></path><path style="stroke: #ad493b;" class="elevation route-segment147" d="M274,30L275,30"></path><path style="stroke: #ad493b;" class="elevation route-segment148" d="M275,30L276,26"></path><path style="stroke: #ab4638;" class="elevation route-segment149" d="M276,26L277,36"></path><path style="stroke: #b14e40;" class="elevation route-segment150" d="M277,36L278,32"></path><path style="stroke: #ae4a3c;" class="elevation route-segment151" d="M278,32L279,39"></path><path style="stroke: #b45143;" class="elevation route-segment152" d="M279,39L280,39"></path><path style="stroke: #b45143;" class="elevation route-segment153" d="M280,39L281,39"></path><path style="stroke: #b45143;" class="elevation route-segment154" d="M281,39L281,45"></path><path style="stroke: #b85648;" class="elevation route-segment155" d="M281,45L282,45"></path><path style="stroke: #b85648;" class="elevation route-segment156" d="M282,45L283,51"></path><path style="stroke: #b85a4b;" class="elevation route-segment157" d="M283,51L284,51"></path><path style="stroke: #b85a4b;" class="elevation route-segment158" d="M284,51L286,51"></path><path style="stroke: #b75b4b;" class="elevation route-segment159" d="M286,51L286,51"></path><path style="stroke: #b75b4b;" class="elevation route-segment160" d="M286,51L286,51"></path><path style="stroke: #b75b4b;" class="elevation route-segment161" d="M286,51L287,48"></path><path style="stroke: #ba594b;" class="elevation route-segment162" d="M287,48L288,48"></path><path style="stroke: #ba594b;" class="elevation route-segment163" d="M288,48L288,48"></path><path style="stroke: #ba594b;" class="elevation route-segment164" d="M288,48L289,47"></path><path style="stroke: #b9584a;" class="elevation route-segment165" d="M289,47L291,41"></path><path style="stroke: #b55244;" class="elevation route-segment166" d="M291,41L292,48"></path><path style="stroke: #ba594b;" class="elevation route-segment167" d="M292,48L293,48"></path><path style="stroke: #ba594b;" class="elevation route-segment168" d="M293,48L294,41"></path><path style="stroke: #b55345;" class="elevation route-segment169" d="M294,41L295,49"></path><path style="stroke: #bb5a4c;" class="elevation route-segment170" d="M295,49L296,49"></path><path style="stroke: #bb5a4c;" class="elevation route-segment171" d="M296,49L297,44"></path><path style="stroke: #b75547;" class="elevation route-segment172" d="M297,44L297,44"></path><path style="stroke: #b75547;" class="elevation route-segment173" d="M297,44L297,44"></path><path style="stroke: #b75547;" class="elevation route-segment174" d="M297,44L298,44"></path><path style="stroke: #b75547;" class="elevation route-segment175" d="M298,44L299,49"></path><path style="stroke: #bb594b;" class="elevation route-segment176" d="M299,49L299,49"></path><path style="stroke: #bb594b;" class="elevation route-segment177" d="M299,49L299,49"></path><path style="stroke: #bb594b;" class="elevation route-segment178" d="M299,49L300,51"></path><path style="stroke: #b85a4b;" class="elevation route-segment179" d="M300,51L301,51"></path><path style="stroke: #b85a4b;" class="elevation route-segment180" d="M301,51L301,50"></path><path style="stroke: #b95a4c;" class="elevation route-segment181" d="M301,50L302,50"></path><path style="stroke: #b95a4c;" class="elevation route-segment182" d="M302,50L303,50"></path><path style="stroke: #b95a4c;" class="elevation route-segment183" d="M303,50L304,38"></path><path style="stroke: #b35042;" class="elevation route-segment184" d="M304,38L305,38"></path><path style="stroke: #b35042;" class="elevation route-segment185" d="M305,38L305,38"></path><path style="stroke: #b35042;" class="elevation route-segment186" d="M305,38L306,38"></path><path style="stroke: #b35042;" class="elevation route-segment187" d="M306,38L307,38"></path><path style="stroke: #b35042;" class="elevation route-segment188" d="M307,38L308,38"></path><path style="stroke: #b35042;" class="elevation route-segment189" d="M308,38L308,38"></path><path style="stroke: #b35042;" class="elevation route-segment190" d="M308,38L309,47"></path><path style="stroke: #ba584a;" class="elevation route-segment191" d="M309,47L309,47"></path><path style="stroke: #ba584a;" class="elevation route-segment192" d="M309,47L309,48"></path><path style="stroke: #ba594b;" class="elevation route-segment193" d="M309,48L310,39"></path><path style="stroke: #b45143;" class="elevation route-segment194" d="M310,39L311,39"></path><path style="stroke: #b45143;" class="elevation route-segment195" d="M311,39L312,46"></path><path style="stroke: #b85648;" class="elevation route-segment196" d="M312,46L313,46"></path><path style="stroke: #b85648;" class="elevation route-segment197" d="M313,46L315,47"></path><path style="stroke: #ba584a;" class="elevation route-segment198" d="M315,47L316,47"></path><path style="stroke: #ba584a;" class="elevation route-segment199" d="M316,47L317,52"></path><path style="stroke: #b45b4b;" class="elevation route-segment200" d="M317,52L318,50"></path><path style="stroke: #ba5a4c;" class="elevation route-segment201" d="M318,50L319,50"></path><path style="stroke: #ba5a4c;" class="elevation route-segment202" d="M319,50L320,50"></path><path style="stroke: #ba5a4c;" class="elevation route-segment203" d="M320,50L321,52"></path><path style="stroke: #b45b4b;" class="elevation route-segment204" d="M321,52L321,52"></path><path style="stroke: #b45b4b;" class="elevation route-segment205" d="M321,52L322,52"></path><path style="stroke: #b45b4b;" class="elevation route-segment206" d="M322,52L324,57"></path><path style="stroke: #a85c48;" class="elevation route-segment207" d="M324,57L324,57"></path><path style="stroke: #a85c48;" class="elevation route-segment208" d="M324,57L325,57"></path><path style="stroke: #a85c48;" class="elevation route-segment209" d="M325,57L326,57"></path><path style="stroke: #a85c48;" class="elevation route-segment210" d="M326,57L327,62"></path><path style="stroke: #9c5e46;" class="elevation route-segment211" d="M327,62L329,61"></path><path style="stroke: #9d5e46;" class="elevation route-segment212" d="M329,61L329,61"></path><path style="stroke: #9d5e46;" class="elevation route-segment213" d="M329,61L330,61"></path><path style="stroke: #9f5e46;" class="elevation route-segment214" d="M330,61L331,64"></path><path style="stroke: #975f45;" class="elevation route-segment215" d="M331,64L333,62"></path><path style="stroke: #9b5e45;" class="elevation route-segment216" d="M333,62L334,63"></path><path style="stroke: #995e45;" class="elevation route-segment217" d="M334,63L335,63"></path><path style="stroke: #995e45;" class="elevation route-segment218" d="M335,63L337,64"></path><path style="stroke: #975f45;" class="elevation route-segment219" d="M337,64L339,60"></path><path style="stroke: #a05d46;" class="elevation route-segment220" d="M339,60L339,60"></path><path style="stroke: #a05d46;" class="elevation route-segment221" d="M339,60L339,60"></path><path style="stroke: #a05d46;" class="elevation route-segment222" d="M339,60L340,60"></path><path style="stroke: #a05d46;" class="elevation route-segment223" d="M340,60L341,59"></path><path style="stroke: #a25d47;" class="elevation route-segment224" d="M341,59L345,56"></path><path style="stroke: #ab5c49;" class="elevation route-segment225" d="M345,56L345,56"></path><path style="stroke: #ac5c49;" class="elevation route-segment226" d="M345,56L346,55"></path><path style="stroke: #ae5c49;" class="elevation route-segment227" d="M346,55L348,54"></path><path style="stroke: #b15b4a;" class="elevation route-segment228" d="M348,54L350,53"></path><path style="stroke: #b35b4a;" class="elevation route-segment229" d="M350,53L351,53"></path><path style="stroke: #b25b4a;" class="elevation route-segment230" d="M351,53L352,53"></path><path style="stroke: #b25b4a;" class="elevation route-segment231" d="M352,53L354,57"></path><path style="stroke: #a75d48;" class="elevation route-segment232" d="M354,57L357,56"></path><path style="stroke: #ab5c49;" class="elevation route-segment233" d="M357,56L360,57"></path><path style="stroke: #a95c48;" class="elevation route-segment234" d="M360,57L363,57"></path><path style="stroke: #a85c48;" class="elevation route-segment235" d="M363,57L364,60"></path><path style="stroke: #a15d47;" class="elevation route-segment236" d="M364,60L365,59"></path><path style="stroke: #a25d47;" class="elevation route-segment237" d="M365,59L365,58"></path><path style="stroke: #a55d47;" class="elevation route-segment238" d="M365,58L366,58"></path><path style="stroke: #a55d47;" class="elevation route-segment239" d="M366,58L367,56"></path><path style="stroke: #ac5c49;" class="elevation route-segment240" d="M367,56L369,53"></path><path style="stroke: #b25b4a;" class="elevation route-segment241" d="M369,53L376,44"></path><path style="stroke: #b75547;" class="elevation route-segment242" d="M376,44L378,41"></path><path style="stroke: #b55244;" class="elevation route-segment243" d="M378,41L381,34"></path><path style="stroke: #b04d3f;" class="elevation route-segment244" d="M381,34L382,30"></path><path style="stroke: #ad493b;" class="elevation route-segment245" d="M382,30L384,31"></path><path style="stroke: #ae493b;" class="elevation route-segment246" d="M384,31L386,26"></path><path style="stroke: #ab4638;" class="elevation route-segment247" d="M386,26L388,25"></path><path style="stroke: #aa4436;" class="elevation route-segment248" d="M388,25L391,19"></path><path style="stroke: #a63f31;" class="elevation route-segment249" d="M391,19L394,13"></path><path style="stroke: #a13a2c;" class="elevation route-segment250" d="M394,13L400,7"></path><path style="stroke: #9d3426;" class="elevation route-segment251" d="M400,7L401,7"></path><path style="stroke: #9d3426;" class="elevation route-segment252" d="M401,7L402,7"></path><path style="stroke: #9d3426;" class="elevation route-segment253" d="M402,7L403,6"></path><path style="stroke: #9c3325;" class="elevation route-segment254" d="M403,6L404,6"></path><path style="stroke: #9c3325;" class="elevation route-segment255" d="M404,6L405,6"></path><path style="stroke: #9c3325;" class="elevation route-segment256" d="M405,6L407,4"></path><path style="stroke: #9b3224;" class="elevation route-segment257" d="M407,4L409,2"></path><path style="stroke: #9a3022;" class="elevation route-segment258" d="M409,2L410,6"></path><path style="stroke: #9c3325;" class="elevation route-segment259" d="M410,6L412,8"></path><path style="stroke: #9e3628;" class="elevation route-segment260" d="M412,8L414,6"></path><path style="stroke: #9c3325;" class="elevation route-segment261" d="M414,6L416,4"></path><path style="stroke: #9b3224;" class="elevation route-segment262" d="M416,4L417,4"></path><path style="stroke: #9b3224;" class="elevation route-segment263" d="M417,4L419,6"></path><path style="stroke: #9d3426;" class="elevation route-segment264" d="M419,6L421,6"></path><path style="stroke: #9d3426;" class="elevation route-segment265" d="M421,6L422,5"></path><path style="stroke: #9c3325;" class="elevation route-segment266" d="M422,5L422,5"></path><path style="stroke: #9c3325;" class="elevation route-segment267" d="M422,5L423,8"></path><path style="stroke: #9e3527;" class="elevation route-segment268" d="M423,8L424,4"></path><path style="stroke: #9b3224;" class="elevation route-segment269" d="M424,4L424,4"></path><path style="stroke: #9b3224;" class="elevation route-segment270" d="M424,4L425,1"></path><path style="stroke: #993022;" class="elevation route-segment271" d="M425,1L427,4"></path><path style="stroke: #9b3224;" class="elevation route-segment272" d="M427,4L429,6"></path><path style="stroke: #9d3426;" class="elevation route-segment273" d="M429,6L431,7"></path><path style="stroke: #9d3527;" class="elevation route-segment274" d="M431,7L433,11"></path><path style="stroke: #a0382a;" class="elevation route-segment275" d="M433,11L436,14"></path><path style="stroke: #a23b2d;" class="elevation route-segment276" d="M436,14L440,15"></path><path style="stroke: #a33c2e;" class="elevation route-segment277" d="M440,15L446,16"></path><path style="stroke: #a43d2f;" class="elevation route-segment278" d="M446,16L447,17"></path><path style="stroke: #a43d2f;" class="elevation route-segment279" d="M447,17L450,20"></path><path style="stroke: #a64032;" class="elevation route-segment280" d="M450,20L450,22"></path><path style="stroke: #a84234;" class="elevation route-segment281" d="M450,22L452,24"></path><path style="stroke: #a94436;" class="elevation route-segment282" d="M452,24L453,25"></path><path style="stroke: #aa4537;" class="elevation route-segment283" d="M453,25L455,25"></path><path style="stroke: #aa4537;" class="elevation route-segment284" d="M455,25L460,28"></path><path style="stroke: #ac4739;" class="elevation route-segment285" d="M460,28L464,27"></path><path style="stroke: #ab4638;" class="elevation route-segment286" d="M464,27L471,31"></path><path style="stroke: #ae4a3c;" class="elevation route-segment287" d="M471,31L474,34"></path><path style="stroke: #b04c3e;" class="elevation route-segment288" d="M474,34L477,34"></path><path style="stroke: #b04c3e;" class="elevation route-segment289" d="M477,34L479,37"></path><path style="stroke: #b24f41;" class="elevation route-segment290" d="M479,37L481,38"></path><path style="stroke: #b35042;" class="elevation route-segment291" d="M481,38L483,41"></path><path style="stroke: #b55244;" class="elevation route-segment292" d="M483,41L483,41"></path><path style="stroke: #b55244;" class="elevation route-segment293" d="M483,41L485,38"></path><path style="stroke: #b35042;" class="elevation route-segment294" d="M485,38L487,36"></path><path style="stroke: #b24e40;" class="elevation route-segment295" d="M487,36L496,31"></path><path style="stroke: #ae4a3c;" class="elevation route-segment296" d="M496,31L506,28"></path><path style="stroke: #ac4739;" class="elevation route-segment297" d="M506,28L511,25"></path><path style="stroke: #aa4537;" class="elevation route-segment298" d="M511,25L513,25"></path><path style="stroke: #aa4537;" class="elevation route-segment299" d="M513,25L516,22"></path><path style="stroke: #a84234;" class="elevation route-segment300" d="M516,22L517,20"></path><path style="stroke: #a64032;" class="elevation route-segment301" d="M517,20L520,17"></path><path style="stroke: #a43e30;" class="elevation route-segment302" d="M520,17L521,17"></path><path style="stroke: #a43e30;" class="elevation route-segment303" d="M521,17L524,15"></path><path style="stroke: #a33c2e;" class="elevation route-segment304" d="M524,15L530,24"></path><path style="stroke: #a94436;" class="elevation route-segment305" d="M530,24L533,23"></path><path style="stroke: #a94335;" class="elevation route-segment306" d="M533,23L534,25"></path><path style="stroke: #aa4436;" class="elevation route-segment307" d="M534,25L537,26"></path><path style="stroke: #ab4638;" class="elevation route-segment308" d="M537,26L539,25"></path><path style="stroke: #aa4436;" class="elevation route-segment309" d="M539,25L541,25"></path><path style="stroke: #aa4436;" class="elevation route-segment310" d="M541,25L543,33"></path><path style="stroke: #af4b3d;" class="elevation route-segment311" d="M543,33L546,34"></path><path style="stroke: #b04c3e;" class="elevation route-segment312" d="M546,34L550,35"></path><path style="stroke: #b14e40;" class="elevation route-segment313" d="M550,35L555,40"></path><path style="stroke: #b45143;" class="elevation route-segment314" d="M555,40L557,42"></path><path style="stroke: #b65345;" class="elevation route-segment315" d="M557,42L561,43"></path><path style="stroke: #b65446;" class="elevation route-segment316" d="M561,43L569,49"></path><path style="stroke: #bb594b;" class="elevation route-segment317" d="M569,49L572,53"></path><path style="stroke: #b25b4a;" class="elevation route-segment318" d="M572,53L577,54"></path><path style="stroke: #af5b4a;" class="elevation route-segment319" d="M577,54L582,57"></path><path style="stroke: #a85c48;" class="elevation route-segment320" d="M582,57L586,63"></path><path style="stroke: #9a5e45;" class="elevation route-segment321" d="M586,63L591,64"></path><path style="stroke: #975f45;" class="elevation route-segment322" d="M591,64L597,69"></path><path style="stroke: #8b6042;" class="elevation route-segment323" d="M597,69L600,73"></path><path style="stroke: #816140;" class="elevation route-segment324" d="M600,73L602,74"></path><path style="stroke: #7d623f;" class="elevation route-segment325" d="M602,74L604,75"></path><path style="stroke: #7b623f;" class="elevation route-segment326" d="M604,75L605,79"></path><path style="stroke: #71633d;" class="elevation route-segment327" d="M605,79L607,80"></path><path style="stroke: #70643c;" class="elevation route-segment328" d="M607,80L609,80"></path><path style="stroke: #6f643c;" class="elevation route-segment329" d="M609,80L613,83"></path><path style="stroke: #68653b;" class="elevation route-segment330" d="M613,83L614,83"></path><path style="stroke: #68653b;" class="elevation route-segment331" d="M614,83L615,85"></path><path style="stroke: #626539;" class="elevation route-segment332" d="M615,85L617,91"></path><path style="stroke: #546737;" class="elevation route-segment333" d="M617,91L621,94"></path><path style="stroke: #4b6835;" class="elevation route-segment334" d="M621,94L624,94"></path><path style="stroke: #4b6835;" class="elevation route-segment335" d="M624,94L625,96"></path><path style="stroke: #466934;" class="elevation route-segment336" d="M625,96L627,99"></path><path style="stroke: #406a32;" class="elevation route-segment337" d="M627,99L630,102"></path><path style="stroke: #3f6c33;" class="elevation route-segment338" d="M630,102L634,106"></path><path style="stroke: #426f34;" class="elevation route-segment339" d="M634,106L637,107"></path><path style="stroke: #437034;" class="elevation route-segment340" d="M637,107L643,110"></path><path style="stroke: #447335;" class="elevation route-segment341" d="M643,110L645,112"></path><path style="stroke: #457435;" class="elevation route-segment342" d="M645,112L647,115"></path><path style="stroke: #477736;" class="elevation route-segment343" d="M647,115L649,115"></path><path style="stroke: #477736;" class="elevation route-segment344" d="M649,115L651,117"></path><path style="stroke: #487837;" class="elevation route-segment345" d="M651,117L652,118"></path><path style="stroke: #497937;" class="elevation route-segment346" d="M652,118L653,117"></path><path style="stroke: #487837;" class="elevation route-segment347" d="M653,117L654,117"></path><path style="stroke: #487837;" class="elevation route-segment348" d="M654,117L656,120"></path><path style="stroke: #4a7a38;" class="elevation route-segment349" d="M656,120L657,120"></path><path style="stroke: #4a7a38;" class="elevation route-segment350" d="M657,120L658,120"></path><path style="stroke: #4a7a38;" class="elevation route-segment351" d="M658,120L658,120"></path><path style="stroke: #4a7a38;" class="elevation route-segment352" d="M658,120L658,120"></path><path style="stroke: #4a7a38;" class="elevation route-segment353" d="M0,0"></path></svg>
