<?xml version="1.0" standalone="yes"?>
<svg width="760" height="150" xmlns="http://www.w3.org/2000/svg"><path style="stroke: #5b9240;" class="elevation route-segment1" d="M0,146L1,142"></path><path style="stroke: #5b9240;" class="elevation route-segment2" d="M1,142L2,142"></path><path style="stroke: #5b9240;" class="elevation route-segment3" d="M2,142L3,145"></path><path style="stroke: #5b9240;" class="elevation route-segment4" d="M3,145L4,145"></path><path style="stroke: #5b9240;" class="elevation route-segment5" d="M4,145L5,147"></path><path style="stroke: #5b9240;" class="elevation route-segment6" d="M5,147L5,147"></path><path style="stroke: #5b9240;" class="elevation route-segment7" d="M5,147L6,147"></path><path style="stroke: #5b9240;" class="elevation route-segment8" d="M6,147L7,148"></path><path style="stroke: #5b9240;" class="elevation route-segment9" d="M7,148L8,148"></path><path style="stroke: #5b9240;" class="elevation route-segment10" d="M8,148L9,147"></path><path style="stroke: #5b9240;" class="elevation route-segment11" d="M9,147L10,148"></path><path style="stroke: #5b9240;" class="elevation route-segment12" d="M10,148L12,148"></path><path style="stroke: #5b9240;" class="elevation route-segment13" d="M12,148L12,148"></path><path style="stroke: #5b9240;" class="elevation route-segment14" d="M12,148L13,149"></path><path style="stroke: #5b9240;" class="elevation route-segment15" d="M13,149L15,149"></path><path style="stroke: #5b9240;" class="elevation route-segment16" d="M15,149L17,149"></path><path style="stroke: #5b9240;" class="elevation route-segment17" d="M17,149L21,148"></path><path style="stroke: #5b9240;" class="elevation route-segment18" d="M21,148L24,148"></path><path style="stroke: #5b9240;" class="elevation route-segment19" d="M24,148L25,148"></path><path style="stroke: #5b9240;" class="elevation route-segment20" d="M25,148L26,148"></path><path style="stroke: #5b9240;" class="elevation route-segment21" d="M26,148L26,148"></path><path style="stroke: #5b9240;" class="elevation route-segment22" d="M26,148L27,149"></path><path style="stroke: #5b9240;" class="elevation route-segment23" d="M27,149L29,149"></path><path style="stroke: #5b9240;" class="elevation route-segment24" d="M29,149L31,149"></path><path style="stroke: #5b9240;" class="elevation route-segment25" d="M31,149L33,148"></path><path style="stroke: #5b9240;" class="elevation route-segment26" d="M33,148L35,148"></path><path style="stroke: #5b9240;" class="elevation route-segment27" d="M35,148L37,148"></path><path style="stroke: #5b9240;" class="elevation route-segment28" d="M37,148L39,149"></path><path style="stroke: #5b9240;" class="elevation route-segment29" d="M39,149L41,150"></path><path style="stroke: #5b9240;" class="elevation route-segment30" d="M41,150L43,150"></path><path style="stroke: #5b9240;" class="elevation route-segment31" d="M43,150L47,150"></path><path style="stroke: #5b9240;" class="elevation route-segment32" d="M47,150L55,148"></path><path style="stroke: #5b9240;" class="elevation route-segment33" d="M55,148L56,148"></path><path style="stroke: #5b9240;" class="elevation route-segment34" d="M56,148L56,147"></path><path style="stroke: #5b9240;" class="elevation route-segment35" d="M56,147L57,147"></path><path style="stroke: #5b9240;" class="elevation route-segment36" d="M57,147L63,149"></path><path style="stroke: #5b9240;" class="elevation route-segment37" d="M63,149L79,148"></path><path style="stroke: #5b9240;" class="elevation route-segment38" d="M79,148L84,149"></path><path style="stroke: #5b9240;" class="elevation route-segment39" d="M84,149L84,149"></path><path style="stroke: #5b9240;" class="elevation route-segment40" d="M84,149L86,149"></path><path style="stroke: #5b9240;" class="elevation route-segment41" d="M86,149L86,149"></path><path style="stroke: #5b9240;" class="elevation route-segment42" d="M86,149L88,149"></path><path style="stroke: #5b9240;" class="elevation route-segment43" d="M88,149L88,149"></path><path style="stroke: #5b9240;" class="elevation route-segment44" d="M88,149L89,149"></path><path style="stroke: #5b9240;" class="elevation route-segment45" d="M89,149L89,149"></path><path style="stroke: #5b9240;" class="elevation route-segment46" d="M89,149L89,149"></path><path style="stroke: #5b9240;" class="elevation route-segment47" d="M89,149L89,149"></path><path style="stroke: #5b9240;" class="elevation route-segment48" d="M89,149L89,149"></path><path style="stroke: #5b9240;" class="elevation route-segment49" d="M89,149L89,149"></path><path style="stroke: #5b9240;" class="elevation route-segment50" d="M89,149L89,149"></path><path style="stroke: #5b9240;" class="elevation route-segment51" d="M89,149L89,149"></path><path style="stroke: #5b9240;" class="elevation route-segment52" d="M89,149L90,149"></path><path style="stroke: #5b9240;" class="elevation route-segment53" d="M90,149L91,149"></path><path style="stroke: #5b9240;" class="elevation route-segment54" d="M91,149L92,149"></path><path style="stroke: #5b9240;" class="elevation route-segment55" d="M92,149L93,149"></path><path style="stroke: #5b9240;" class="elevation route-segment56" d="M93,149L94,149"></path><path style="stroke: #5b9240;" class="elevation route-segment57" d="M94,149L95,149"></path><path style="stroke: #5b9240;" class="elevation route-segment58" d="M95,149L96,149"></path><path style="stroke: #5b9240;" class="elevation route-segment59" d="M96,149L96,149"></path><path style="stroke: #5b9240;" class="elevation route-segment60" d="M96,149L96,149"></path><path style="stroke: #5b9240;" class="elevation route-segment61" d="M96,149L96,149"></path><path style="stroke: #5b9240;" class="elevation route-segment62" d="M96,149L96,149"></path><path style="stroke: #5b9240;" class="elevation route-segment63" d="M96,149L96,149"></path><path style="stroke: #5b9240;" class="elevation route-segment64" d="M96,149L96,149"></path><path style="stroke: #5b9240;" class="elevation route-segment65" d="M96,149L96,149"></path><path style="stroke: #5b9240;" class="elevation route-segment66" d="M96,149L96,149"></path><path style="stroke: #5b9240;" class="elevation route-segment67" d="M96,149L96,149"></path><path style="stroke: #5b9240;" class="elevation route-segment68" d="M96,149L96,149"></path><path style="stroke: #5b9240;" class="elevation route-segment69" d="M96,149L96,149"></path><path style="stroke: #5b9240;" class="elevation route-segment70" d="M96,149L96,149"></path><path style="stroke: #5b9240;" class="elevation route-segment71" d="M96,149L96,149"></path><path style="stroke: #5b9240;" class="elevation route-segment72" d="M96,149L96,149"></path><path style="stroke: #5b9240;" class="elevation route-segment73" d="M96,149L96,149"></path><path style="stroke: #5b9240;" class="elevation route-segment74" d="M96,149L96,149"></path><path style="stroke: #5b9240;" class="elevation route-segment75" d="M96,149L96,149"></path><path style="stroke: #5b9240;" class="elevation route-segment76" d="M96,149L96,149"></path><path style="stroke: #5b9240;" class="elevation route-segment77" d="M96,149L97,148"></path><path style="stroke: #5b9240;" class="elevation route-segment78" d="M97,148L97,148"></path><path style="stroke: #5b9240;" class="elevation route-segment79" d="M97,148L97,148"></path><path style="stroke: #5b9240;" class="elevation route-segment80" d="M97,148L97,148"></path><path style="stroke: #5b9240;" class="elevation route-segment81" d="M97,148L97,148"></path><path style="stroke: #5b9240;" class="elevation route-segment82" d="M97,148L97,148"></path><path style="stroke: #5b9240;" class="elevation route-segment83" d="M97,148L97,148"></path><path style="stroke: #5b9240;" class="elevation route-segment84" d="M97,148L97,148"></path><path style="stroke: #5b9240;" class="elevation route-segment85" d="M97,148L97,148"></path><path style="stroke: #5b9240;" class="elevation route-segment86" d="M97,148L99,149"></path><path style="stroke: #5b9240;" class="elevation route-segment87" d="M99,149L99,149"></path><path style="stroke: #5b9240;" class="elevation route-segment88" d="M99,149L102,148"></path><path style="stroke: #5b9240;" class="elevation route-segment89" d="M102,148L102,148"></path><path style="stroke: #5b9240;" class="elevation route-segment90" d="M102,148L105,149"></path><path style="stroke: #5b9240;" class="elevation route-segment91" d="M105,149L112,148"></path><path style="stroke: #5b9240;" class="elevation route-segment92" d="M112,148L127,149"></path><path style="stroke: #5b9240;" class="elevation route-segment93" d="M127,149L133,147"></path><path style="stroke: #5b9240;" class="elevation route-segment94" d="M133,147L134,147"></path><path style="stroke: #5b9240;" class="elevation route-segment95" d="M134,147L134,147"></path><path style="stroke: #5b9240;" class="elevation route-segment96" d="M134,147L135,148"></path><path style="stroke: #5b9240;" class="elevation route-segment97" d="M135,148L136,148"></path><path style="stroke: #5b9240;" class="elevation route-segment98" d="M136,148L143,150"></path><path style="stroke: #5b9240;" class="elevation route-segment99" d="M143,150L147,150"></path><path style="stroke: #5b9240;" class="elevation route-segment100" d="M147,150L149,150"></path><path style="stroke: #5b9240;" class="elevation route-segment101" d="M149,150L151,149"></path><path style="stroke: #5b9240;" class="elevation route-segment102" d="M151,149L153,148"></path><path style="stroke: #5b9240;" class="elevation route-segment103" d="M153,148L155,148"></path><path style="stroke: #5b9240;" class="elevation route-segment104" d="M155,148L157,148"></path><path style="stroke: #5b9240;" class="elevation route-segment105" d="M157,148L159,149"></path><path style="stroke: #5b9240;" class="elevation route-segment106" d="M159,149L161,149"></path><path style="stroke: #5b9240;" class="elevation route-segment107" d="M161,149L164,149"></path><path style="stroke: #5b9240;" class="elevation route-segment108" d="M164,149L165,148"></path><path style="stroke: #5b9240;" class="elevation route-segment109" d="M165,148L165,148"></path><path style="stroke: #5b9240;" class="elevation route-segment110" d="M165,148L166,148"></path><path style="stroke: #5b9240;" class="elevation route-segment111" d="M166,148L167,148"></path><path style="stroke: #5b9240;" class="elevation route-segment112" d="M167,148L169,148"></path><path style="stroke: #5b9240;" class="elevation route-segment113" d="M169,148L173,149"></path><path style="stroke: #5b9240;" class="elevation route-segment114" d="M173,149L175,149"></path><path style="stroke: #5b9240;" class="elevation route-segment115" d="M175,149L177,149"></path><path style="stroke: #5b9240;" class="elevation route-segment116" d="M177,149L178,148"></path><path style="stroke: #5b9240;" class="elevation route-segment117" d="M178,148L180,148"></path><path style="stroke: #5b9240;" class="elevation route-segment118" d="M180,148L181,147"></path><path style="stroke: #5b9240;" class="elevation route-segment119" d="M181,147L182,148"></path><path style="stroke: #5b9240;" class="elevation route-segment120" d="M182,148L183,148"></path><path style="stroke: #5b9240;" class="elevation route-segment121" d="M183,148L184,147"></path><path style="stroke: #5b9240;" class="elevation route-segment122" d="M184,147L185,147"></path><path style="stroke: #5b9240;" class="elevation route-segment123" d="M185,147L185,147"></path><path style="stroke: #5b9240;" class="elevation route-segment124" d="M185,147L186,145"></path><path style="stroke: #5b9240;" class="elevation route-segment125" d="M186,145L187,145"></path><path style="stroke: #5b9240;" class="elevation route-segment126" d="M187,145L188,142"></path><path style="stroke: #5b9240;" class="elevation route-segment127" d="M188,142L189,142"></path><path style="stroke: #5b9240;" class="elevation route-segment128" d="M189,142L190,146"></path><path style="stroke: #5b9240;" class="elevation route-segment129" d=""></path></svg>
