<?xml version="1.0" standalone="yes"?>
<svg width="760" height="150" xmlns="http://www.w3.org/2000/svg"><path style="stroke: #4a7a38;" class="elevation route-segment1" d="M1,121L3,118"></path><path style="stroke: #4a7a38;" class="elevation route-segment2" d="M3,118L4,115"></path><path style="stroke: #4a7a38;" class="elevation route-segment3" d="M4,115L8,112"></path><path style="stroke: #416f34;" class="elevation route-segment4" d="M8,112L10,111"></path><path style="stroke: #416f34;" class="elevation route-segment5" d="M10,111L11,111"></path><path style="stroke: #416f34;" class="elevation route-segment6" d="M11,111L14,112"></path><path style="stroke: #416f34;" class="elevation route-segment7" d="M14,112L15,110"></path><path style="stroke: #416f34;" class="elevation route-segment8" d="M15,110L17,112"></path><path style="stroke: #416f34;" class="elevation route-segment9" d="M17,112L19,108"></path><path style="stroke: #416f34;" class="elevation route-segment10" d="M19,108L20,108"></path><path style="stroke: #416f34;" class="elevation route-segment11" d="M20,108L21,108"></path><path style="stroke: #416f34;" class="elevation route-segment12" d="M21,108L23,104"></path><path style="stroke: #416f34;" class="elevation route-segment13" d="M23,104L24,103"></path><path style="stroke: #416f34;" class="elevation route-segment14" d="M24,103L25,102"></path><path style="stroke: #416f34;" class="elevation route-segment15" d="M25,102L26,101"></path><path style="stroke: #416f34;" class="elevation route-segment16" d="M26,101L27,103"></path><path style="stroke: #416f34;" class="elevation route-segment17" d="M27,103L28,103"></path><path style="stroke: #416f34;" class="elevation route-segment18" d="M28,103L28,102"></path><path style="stroke: #416f34;" class="elevation route-segment19" d="M28,102L29,103"></path><path style="stroke: #416f34;" class="elevation route-segment20" d="M29,103L31,101"></path><path style="stroke: #416f34;" class="elevation route-segment21" d="M31,101L32,103"></path><path style="stroke: #416f34;" class="elevation route-segment22" d="M32,103L33,102"></path><path style="stroke: #416f34;" class="elevation route-segment23" d="M33,102L34,102"></path><path style="stroke: #416f34;" class="elevation route-segment24" d="M34,102L35,103"></path><path style="stroke: #416f34;" class="elevation route-segment25" d="M35,103L36,103"></path><path style="stroke: #416f34;" class="elevation route-segment26" d="M36,103L37,102"></path><path style="stroke: #416f34;" class="elevation route-segment27" d="M37,102L39,102"></path><path style="stroke: #416f34;" class="elevation route-segment28" d="M39,102L41,103"></path><path style="stroke: #416f34;" class="elevation route-segment29" d="M41,103L43,101"></path><path style="stroke: #416f34;" class="elevation route-segment30" d="M43,101L45,104"></path><path style="stroke: #416f34;" class="elevation route-segment31" d="M45,104L46,104"></path><path style="stroke: #416f34;" class="elevation route-segment32" d="M46,104L47,103"></path><path style="stroke: #416f34;" class="elevation route-segment33" d="M47,103L48,102"></path><path style="stroke: #416f34;" class="elevation route-segment34" d="M48,102L49,102"></path><path style="stroke: #416f34;" class="elevation route-segment35" d="M49,102L51,100"></path><path style="stroke: #416f34;" class="elevation route-segment36" d="M51,100L52,100"></path><path style="stroke: #416f34;" class="elevation route-segment37" d="M52,100L53,99"></path><path style="stroke: #416f34;" class="elevation route-segment38" d="M53,99L54,99"></path><path style="stroke: #416f34;" class="elevation route-segment39" d="M54,99L55,101"></path><path style="stroke: #416f34;" class="elevation route-segment40" d="M55,101L56,101"></path><path style="stroke: #416f34;" class="elevation route-segment41" d="M56,101L56,102"></path><path style="stroke: #416f34;" class="elevation route-segment42" d="M56,102L57,99"></path><path style="stroke: #416f34;" class="elevation route-segment43" d="M57,99L58,102"></path><path style="stroke: #416f34;" class="elevation route-segment44" d="M58,102L59,102"></path><path style="stroke: #416f34;" class="elevation route-segment45" d="M59,102L60,102"></path><path style="stroke: #416f34;" class="elevation route-segment46" d="M60,102L61,103"></path><path style="stroke: #416f34;" class="elevation route-segment47" d="M61,103L63,100"></path><path style="stroke: #416f34;" class="elevation route-segment48" d="M63,100L65,99"></path><path style="stroke: #416f34;" class="elevation route-segment49" d="M65,99L66,100"></path><path style="stroke: #416f34;" class="elevation route-segment50" d="M66,100L67,100"></path><path style="stroke: #416f34;" class="elevation route-segment51" d="M67,100L69,102"></path><path style="stroke: #416f34;" class="elevation route-segment52" d="M69,102L70,101"></path><path style="stroke: #416f34;" class="elevation route-segment53" d="M70,101L71,102"></path><path style="stroke: #416f34;" class="elevation route-segment54" d="M71,102L72,101"></path><path style="stroke: #416f34;" class="elevation route-segment55" d="M72,101L73,101"></path><path style="stroke: #416f34;" class="elevation route-segment56" d="M73,101L74,102"></path><path style="stroke: #416f34;" class="elevation route-segment57" d="M74,102L75,102"></path><path style="stroke: #416f34;" class="elevation route-segment58" d="M75,102L76,102"></path><path style="stroke: #416f34;" class="elevation route-segment59" d="M76,102L77,102"></path><path style="stroke: #416f34;" class="elevation route-segment60" d="M77,102L78,102"></path><path style="stroke: #416f34;" class="elevation route-segment61" d="M78,102L79,99"></path><path style="stroke: #416f34;" class="elevation route-segment62" d="M79,99L80,99"></path><path style="stroke: #416f34;" class="elevation route-segment63" d="M80,99L81,97"></path><path style="stroke: #546737;" class="elevation route-segment64" d="M81,97L82,97"></path><path style="stroke: #546737;" class="elevation route-segment65" d="M82,97L83,97"></path><path style="stroke: #546737;" class="elevation route-segment66" d="M83,97L84,97"></path><path style="stroke: #546737;" class="elevation route-segment67" d="M84,97L85,98"></path><path style="stroke: #546737;" class="elevation route-segment68" d="M85,98L86,97"></path><path style="stroke: #546737;" class="elevation route-segment69" d="M86,97L88,100"></path><path style="stroke: #416f34;" class="elevation route-segment70" d="M88,100L89,100"></path><path style="stroke: #416f34;" class="elevation route-segment71" d="M89,100L90,97"></path><path style="stroke: #546737;" class="elevation route-segment72" d="M90,97L92,100"></path><path style="stroke: #416f34;" class="elevation route-segment73" d="M92,100L92,100"></path><path style="stroke: #416f34;" class="elevation route-segment74" d="M92,100L94,98"></path><path style="stroke: #416f34;" class="elevation route-segment75" d="M94,98L96,98"></path><path style="stroke: #416f34;" class="elevation route-segment76" d="M96,98L96,98"></path><path style="stroke: #416f34;" class="elevation route-segment77" d="M96,98L98,97"></path><path style="stroke: #546737;" class="elevation route-segment78" d="M98,97L100,97"></path><path style="stroke: #546737;" class="elevation route-segment79" d="M100,97L102,98"></path><path style="stroke: #546737;" class="elevation route-segment80" d="M102,98L104,99"></path><path style="stroke: #416f34;" class="elevation route-segment81" d="M104,99L104,99"></path><path style="stroke: #416f34;" class="elevation route-segment82" d="M104,99L106,99"></path><path style="stroke: #416f34;" class="elevation route-segment83" d="M106,99L108,98"></path><path style="stroke: #546737;" class="elevation route-segment84" d="M108,98L109,98"></path><path style="stroke: #546737;" class="elevation route-segment85" d="M109,98L110,98"></path><path style="stroke: #546737;" class="elevation route-segment86" d="M110,98L111,98"></path><path style="stroke: #546737;" class="elevation route-segment87" d="M111,98L112,96"></path><path style="stroke: #546737;" class="elevation route-segment88" d="M112,96L114,94"></path><path style="stroke: #546737;" class="elevation route-segment89" d="M114,94L117,93"></path><path style="stroke: #546737;" class="elevation route-segment90" d="M117,93L119,92"></path><path style="stroke: #546737;" class="elevation route-segment91" d="M119,92L121,95"></path><path style="stroke: #546737;" class="elevation route-segment92" d="M121,95L124,92"></path><path style="stroke: #546737;" class="elevation route-segment93" d="M124,92L125,92"></path><path style="stroke: #546737;" class="elevation route-segment94" d="M125,92L126,87"></path><path style="stroke: #546737;" class="elevation route-segment95" d="M126,87L127,87"></path><path style="stroke: #546737;" class="elevation route-segment96" d="M127,87L129,85"></path><path style="stroke: #546737;" class="elevation route-segment97" d="M129,85L131,86"></path><path style="stroke: #546737;" class="elevation route-segment98" d="M131,86L135,86"></path><path style="stroke: #546737;" class="elevation route-segment99" d="M135,86L139,79"></path><path style="stroke: #79623e;" class="elevation route-segment100" d="M139,79L141,77"></path><path style="stroke: #79623e;" class="elevation route-segment101" d="M141,77L142,77"></path><path style="stroke: #79623e;" class="elevation route-segment102" d="M142,77L143,79"></path><path style="stroke: #79623e;" class="elevation route-segment103" d="M143,79L145,82"></path><path style="stroke: #79623e;" class="elevation route-segment104" d="M145,82L146,82"></path><path style="stroke: #79623e;" class="elevation route-segment105" d="M146,82L149,80"></path><path style="stroke: #79623e;" class="elevation route-segment106" d="M149,80L152,78"></path><path style="stroke: #79623e;" class="elevation route-segment107" d="M152,78L153,80"></path><path style="stroke: #79623e;" class="elevation route-segment108" d="M153,80L155,85"></path><path style="stroke: #546737;" class="elevation route-segment109" d="M155,85L156,83"></path><path style="stroke: #79623e;" class="elevation route-segment110" d="M156,83L157,80"></path><path style="stroke: #79623e;" class="elevation route-segment111" d="M157,80L158,79"></path><path style="stroke: #79623e;" class="elevation route-segment112" d="M158,79L159,79"></path><path style="stroke: #79623e;" class="elevation route-segment113" d="M159,79L161,79"></path><path style="stroke: #79623e;" class="elevation route-segment114" d="M161,79L162,78"></path><path style="stroke: #79623e;" class="elevation route-segment115" d="M162,78L165,77"></path><path style="stroke: #79623e;" class="elevation route-segment116" d="M165,77L168,73"></path><path style="stroke: #79623e;" class="elevation route-segment117" d="M168,73L170,72"></path><path style="stroke: #79623e;" class="elevation route-segment118" d="M170,72L172,70"></path><path style="stroke: #79623e;" class="elevation route-segment119" d="M172,70L174,70"></path><path style="stroke: #79623e;" class="elevation route-segment120" d="M174,70L177,70"></path><path style="stroke: #79623e;" class="elevation route-segment121" d="M177,70L178,70"></path><path style="stroke: #79623e;" class="elevation route-segment122" d="M178,70L182,66"></path><path style="stroke: #9d5e46;" class="elevation route-segment123" d="M182,66L186,65"></path><path style="stroke: #9d5e46;" class="elevation route-segment124" d="M186,65L189,64"></path><path style="stroke: #9d5e46;" class="elevation route-segment125" d="M189,64L190,64"></path><path style="stroke: #9d5e46;" class="elevation route-segment126" d="M190,64L191,64"></path><path style="stroke: #9d5e46;" class="elevation route-segment127" d="M191,64L191,68"></path><path style="stroke: #9d5e46;" class="elevation route-segment128" d="M191,68L192,68"></path><path style="stroke: #9d5e46;" class="elevation route-segment129" d="M192,68L193,69"></path><path style="stroke: #9d5e46;" class="elevation route-segment130" d="M193,69L195,65"></path><path style="stroke: #9d5e46;" class="elevation route-segment131" d="M195,65L197,67"></path><path style="stroke: #9d5e46;" class="elevation route-segment132" d="M197,67L197,65"></path><path style="stroke: #9d5e46;" class="elevation route-segment133" d="M197,65L198,71"></path><path style="stroke: #79623e;" class="elevation route-segment134" d="M198,71L199,71"></path><path style="stroke: #79623e;" class="elevation route-segment135" d="M199,71L201,71"></path><path style="stroke: #79623e;" class="elevation route-segment136" d="M201,71L202,77"></path><path style="stroke: #79623e;" class="elevation route-segment137" d="M202,77L203,77"></path><path style="stroke: #79623e;" class="elevation route-segment138" d="M203,77L204,85"></path><path style="stroke: #546737;" class="elevation route-segment139" d="M204,85L205,83"></path><path style="stroke: #79623e;" class="elevation route-segment140" d="M205,83L206,83"></path><path style="stroke: #79623e;" class="elevation route-segment141" d="M206,83L207,83"></path><path style="stroke: #79623e;" class="elevation route-segment142" d="M207,83L209,87"></path><path style="stroke: #546737;" class="elevation route-segment143" d="M209,87L211,88"></path><path style="stroke: #546737;" class="elevation route-segment144" d="M211,88L212,87"></path><path style="stroke: #546737;" class="elevation route-segment145" d="M212,87L212,87"></path><path style="stroke: #546737;" class="elevation route-segment146" d="M212,87L213,87"></path><path style="stroke: #546737;" class="elevation route-segment147" d="M213,87L214,83"></path><path style="stroke: #546737;" class="elevation route-segment148" d="M214,83L215,85"></path><path style="stroke: #546737;" class="elevation route-segment149" d="M215,85L217,83"></path><path style="stroke: #79623e;" class="elevation route-segment150" d="M217,83L218,83"></path><path style="stroke: #79623e;" class="elevation route-segment151" d="M218,83L219,79"></path><path style="stroke: #79623e;" class="elevation route-segment152" d="M219,79L220,72"></path><path style="stroke: #79623e;" class="elevation route-segment153" d="M220,72L221,72"></path><path style="stroke: #79623e;" class="elevation route-segment154" d="M221,72L222,73"></path><path style="stroke: #79623e;" class="elevation route-segment155" d="M222,73L223,80"></path><path style="stroke: #79623e;" class="elevation route-segment156" d="M223,80L224,74"></path><path style="stroke: #79623e;" class="elevation route-segment157" d="M224,74L225,74"></path><path style="stroke: #79623e;" class="elevation route-segment158" d="M225,74L225,81"></path><path style="stroke: #79623e;" class="elevation route-segment159" d="M225,81L227,83"></path><path style="stroke: #79623e;" class="elevation route-segment160" d="M227,83L229,77"></path><path style="stroke: #79623e;" class="elevation route-segment161" d="M229,77L230,76"></path><path style="stroke: #79623e;" class="elevation route-segment162" d="M230,76L232,78"></path><path style="stroke: #79623e;" class="elevation route-segment163" d="M232,78L233,76"></path><path style="stroke: #79623e;" class="elevation route-segment164" d="M233,76L234,77"></path><path style="stroke: #79623e;" class="elevation route-segment165" d="M234,77L235,73"></path><path style="stroke: #79623e;" class="elevation route-segment166" d="M235,73L235,73"></path><path style="stroke: #79623e;" class="elevation route-segment167" d="M235,73L236,72"></path><path style="stroke: #79623e;" class="elevation route-segment168" d="M236,72L237,68"></path><path style="stroke: #9d5e46;" class="elevation route-segment169" d="M237,68L238,68"></path><path style="stroke: #9d5e46;" class="elevation route-segment170" d="M238,68L240,63"></path><path style="stroke: #9d5e46;" class="elevation route-segment171" d="M240,63L241,63"></path><path style="stroke: #9d5e46;" class="elevation route-segment172" d="M241,63L242,56"></path><path style="stroke: #9d5e46;" class="elevation route-segment173" d="M242,56L243,56"></path><path style="stroke: #9d5e46;" class="elevation route-segment174" d="M243,56L244,56"></path><path style="stroke: #9d5e46;" class="elevation route-segment175" d="M244,56L244,56"></path><path style="stroke: #9d5e46;" class="elevation route-segment176" d="M244,56L245,49"></path><path style="stroke: #b9584a;" class="elevation route-segment177" d="M245,49L247,45"></path><path style="stroke: #b9584a;" class="elevation route-segment178" d="M247,45L248,45"></path><path style="stroke: #b9584a;" class="elevation route-segment179" d="M248,45L249,41"></path><path style="stroke: #b9584a;" class="elevation route-segment180" d="M249,41L251,40"></path><path style="stroke: #b9584a;" class="elevation route-segment181" d="M251,40L254,49"></path><path style="stroke: #b9584a;" class="elevation route-segment182" d="M254,49L256,46"></path><path style="stroke: #b9584a;" class="elevation route-segment183" d="M256,46L258,46"></path><path style="stroke: #b9584a;" class="elevation route-segment184" d="M258,46L259,40"></path><path style="stroke: #b9584a;" class="elevation route-segment185" d="M259,40L260,43"></path><path style="stroke: #b9584a;" class="elevation route-segment186" d="M260,43L262,38"></path><path style="stroke: #af4b3d;" class="elevation route-segment187" d="M262,38L264,43"></path><path style="stroke: #b9584a;" class="elevation route-segment188" d="M264,43L265,40"></path><path style="stroke: #b9584a;" class="elevation route-segment189" d="M265,40L269,30"></path><path style="stroke: #af4b3d;" class="elevation route-segment190" d="M269,30L275,23"></path><path style="stroke: #a53e30;" class="elevation route-segment191" d="M275,23L277,19"></path><path style="stroke: #a53e30;" class="elevation route-segment192" d="M277,19L278,20"></path><path style="stroke: #a53e30;" class="elevation route-segment193" d="M278,20L279,23"></path><path style="stroke: #a53e30;" class="elevation route-segment194" d="M279,23L280,23"></path><path style="stroke: #a53e30;" class="elevation route-segment195" d="M280,23L281,26"></path><path style="stroke: #af4b3d;" class="elevation route-segment196" d="M281,26L282,23"></path><path style="stroke: #a53e30;" class="elevation route-segment197" d="M282,23L284,20"></path><path style="stroke: #a53e30;" class="elevation route-segment198" d="M284,20L285,20"></path><path style="stroke: #a53e30;" class="elevation route-segment199" d="M285,20L285,20"></path><path style="stroke: #a53e30;" class="elevation route-segment200" d="M285,20L286,20"></path><path style="stroke: #a53e30;" class="elevation route-segment201" d="M286,20L287,16"></path><path style="stroke: #a53e30;" class="elevation route-segment202" d="M287,16L288,16"></path><path style="stroke: #a53e30;" class="elevation route-segment203" d="M288,16L290,14"></path><path style="stroke: #a53e30;" class="elevation route-segment204" d="M290,14L291,14"></path><path style="stroke: #a53e30;" class="elevation route-segment205" d="M291,14L293,10"></path><path style="stroke: #9a3123;" class="elevation route-segment206" d="M293,10L294,11"></path><path style="stroke: #a53e30;" class="elevation route-segment207" d="M294,11L296,11"></path><path style="stroke: #a53e30;" class="elevation route-segment208" d="M296,11L297,10"></path><path style="stroke: #9a3123;" class="elevation route-segment209" d="M297,10L298,10"></path><path style="stroke: #9a3123;" class="elevation route-segment210" d="M298,10L300,10"></path><path style="stroke: #9a3123;" class="elevation route-segment211" d="M300,10L301,9"></path><path style="stroke: #9a3123;" class="elevation route-segment212" d="M301,9L303,8"></path><path style="stroke: #9a3123;" class="elevation route-segment213" d="M303,8L304,14"></path><path style="stroke: #a53e30;" class="elevation route-segment214" d="M304,14L305,14"></path><path style="stroke: #a53e30;" class="elevation route-segment215" d="M305,14L307,17"></path><path style="stroke: #a53e30;" class="elevation route-segment216" d="M307,17L309,20"></path><path style="stroke: #a53e30;" class="elevation route-segment217" d="M309,20L309,20"></path><path style="stroke: #a53e30;" class="elevation route-segment218" d="M309,20L310,23"></path><path style="stroke: #a53e30;" class="elevation route-segment219" d="M310,23L312,25"></path><path style="stroke: #af4b3d;" class="elevation route-segment220" d="M312,25L313,28"></path><path style="stroke: #af4b3d;" class="elevation route-segment221" d="M313,28L315,25"></path><path style="stroke: #af4b3d;" class="elevation route-segment222" d="M315,25L316,24"></path><path style="stroke: #a53e30;" class="elevation route-segment223" d="M316,24L318,23"></path><path style="stroke: #a53e30;" class="elevation route-segment224" d="M318,23L320,23"></path><path style="stroke: #a53e30;" class="elevation route-segment225" d="M320,23L321,27"></path><path style="stroke: #af4b3d;" class="elevation route-segment226" d="M321,27L323,30"></path><path style="stroke: #af4b3d;" class="elevation route-segment227" d="M323,30L324,27"></path><path style="stroke: #af4b3d;" class="elevation route-segment228" d="M324,27L325,27"></path><path style="stroke: #af4b3d;" class="elevation route-segment229" d="M325,27L327,28"></path><path style="stroke: #af4b3d;" class="elevation route-segment230" d="M327,28L330,30"></path><path style="stroke: #af4b3d;" class="elevation route-segment231" d="M330,30L332,32"></path><path style="stroke: #af4b3d;" class="elevation route-segment232" d="M332,32L335,40"></path><path style="stroke: #b9584a;" class="elevation route-segment233" d="M335,40L337,43"></path><path style="stroke: #b9584a;" class="elevation route-segment234" d="M337,43L337,50"></path><path style="stroke: #b9584a;" class="elevation route-segment235" d="M337,50L339,47"></path><path style="stroke: #b9584a;" class="elevation route-segment236" d="M339,47L340,47"></path><path style="stroke: #b9584a;" class="elevation route-segment237" d="M340,47L342,51"></path><path style="stroke: #b9584a;" class="elevation route-segment238" d="M342,51L344,53"></path><path style="stroke: #b9584a;" class="elevation route-segment239" d="M344,53L345,51"></path><path style="stroke: #b9584a;" class="elevation route-segment240" d="M345,51L346,51"></path><path style="stroke: #b9584a;" class="elevation route-segment241" d="M346,51L347,56"></path><path style="stroke: #9d5e46;" class="elevation route-segment242" d="M347,56L348,53"></path><path style="stroke: #b9584a;" class="elevation route-segment243" d="M348,53L351,40"></path><path style="stroke: #b9584a;" class="elevation route-segment244" d="M351,40L353,46"></path><path style="stroke: #b9584a;" class="elevation route-segment245" d="M353,46L354,50"></path><path style="stroke: #b9584a;" class="elevation route-segment246" d="M354,50L356,45"></path><path style="stroke: #b9584a;" class="elevation route-segment247" d="M356,45L357,45"></path><path style="stroke: #b9584a;" class="elevation route-segment248" d="M357,45L359,50"></path><path style="stroke: #b9584a;" class="elevation route-segment249" d="M359,50L361,50"></path><path style="stroke: #b9584a;" class="elevation route-segment250" d="M361,50L363,52"></path><path style="stroke: #b9584a;" class="elevation route-segment251" d="M363,52L365,52"></path><path style="stroke: #b9584a;" class="elevation route-segment252" d="M365,52L366,49"></path><path style="stroke: #b9584a;" class="elevation route-segment253" d="M366,49L368,44"></path><path style="stroke: #b9584a;" class="elevation route-segment254" d="M368,44L370,49"></path><path style="stroke: #b9584a;" class="elevation route-segment255" d="M370,49L372,40"></path><path style="stroke: #b9584a;" class="elevation route-segment256" d="M372,40L374,45"></path><path style="stroke: #b9584a;" class="elevation route-segment257" d="M374,45L377,44"></path><path style="stroke: #b9584a;" class="elevation route-segment258" d="M377,44L379,43"></path><path style="stroke: #b9584a;" class="elevation route-segment259" d="M379,43L381,45"></path><path style="stroke: #b9584a;" class="elevation route-segment260" d="M381,45L384,44"></path><path style="stroke: #b9584a;" class="elevation route-segment261" d="M384,44L387,41"></path><path style="stroke: #b9584a;" class="elevation route-segment262" d="M387,41L389,42"></path><path style="stroke: #b9584a;" class="elevation route-segment263" d="M389,42L391,50"></path><path style="stroke: #b9584a;" class="elevation route-segment264" d="M391,50L393,40"></path><path style="stroke: #b9584a;" class="elevation route-segment265" d="M393,40L395,36"></path><path style="stroke: #af4b3d;" class="elevation route-segment266" d="M395,36L396,42"></path><path style="stroke: #b9584a;" class="elevation route-segment267" d="M396,42L398,42"></path><path style="stroke: #b9584a;" class="elevation route-segment268" d="M398,42L399,46"></path><path style="stroke: #b9584a;" class="elevation route-segment269" d="M399,46L400,48"></path><path style="stroke: #b9584a;" class="elevation route-segment270" d="M400,48L401,48"></path><path style="stroke: #b9584a;" class="elevation route-segment271" d="M401,48L403,51"></path><path style="stroke: #b9584a;" class="elevation route-segment272" d="M403,51L405,44"></path><path style="stroke: #b9584a;" class="elevation route-segment273" d="M405,44L407,45"></path><path style="stroke: #b9584a;" class="elevation route-segment274" d="M407,45L409,38"></path><path style="stroke: #af4b3d;" class="elevation route-segment275" d="M409,38L409,38"></path><path style="stroke: #af4b3d;" class="elevation route-segment276" d="M409,38L410,45"></path><path style="stroke: #b9584a;" class="elevation route-segment277" d="M410,45L412,45"></path><path style="stroke: #b9584a;" class="elevation route-segment278" d="M412,45L414,48"></path><path style="stroke: #b9584a;" class="elevation route-segment279" d="M414,48L416,46"></path><path style="stroke: #b9584a;" class="elevation route-segment280" d="M416,46L417,44"></path><path style="stroke: #b9584a;" class="elevation route-segment281" d="M417,44L419,48"></path><path style="stroke: #b9584a;" class="elevation route-segment282" d="M419,48L420,46"></path><path style="stroke: #b9584a;" class="elevation route-segment283" d="M420,46L422,46"></path><path style="stroke: #b9584a;" class="elevation route-segment284" d="M422,46L423,44"></path><path style="stroke: #b9584a;" class="elevation route-segment285" d="M423,44L426,35"></path><path style="stroke: #af4b3d;" class="elevation route-segment286" d="M426,35L428,46"></path><path style="stroke: #b9584a;" class="elevation route-segment287" d="M428,46L429,39"></path><path style="stroke: #af4b3d;" class="elevation route-segment288" d="M429,39L431,45"></path><path style="stroke: #b9584a;" class="elevation route-segment289" d="M431,45L432,45"></path><path style="stroke: #b9584a;" class="elevation route-segment290" d="M432,45L434,51"></path><path style="stroke: #b9584a;" class="elevation route-segment291" d="M434,51L438,46"></path><path style="stroke: #b9584a;" class="elevation route-segment292" d="M438,46L440,47"></path><path style="stroke: #b9584a;" class="elevation route-segment293" d="M440,47L442,47"></path><path style="stroke: #b9584a;" class="elevation route-segment294" d="M442,47L445,39"></path><path style="stroke: #af4b3d;" class="elevation route-segment295" d="M445,39L446,44"></path><path style="stroke: #b9584a;" class="elevation route-segment296" d="M446,44L449,42"></path><path style="stroke: #b9584a;" class="elevation route-segment297" d="M449,42L450,40"></path><path style="stroke: #b9584a;" class="elevation route-segment298" d="M450,40L451,43"></path><path style="stroke: #b9584a;" class="elevation route-segment299" d="M451,43L452,46"></path><path style="stroke: #b9584a;" class="elevation route-segment300" d="M452,46L454,48"></path><path style="stroke: #b9584a;" class="elevation route-segment301" d="M454,48L455,48"></path><path style="stroke: #b9584a;" class="elevation route-segment302" d="M455,48L456,50"></path><path style="stroke: #b9584a;" class="elevation route-segment303" d="M456,50L457,53"></path><path style="stroke: #b9584a;" class="elevation route-segment304" d="M457,53L458,56"></path><path style="stroke: #9d5e46;" class="elevation route-segment305" d="M458,56L460,60"></path><path style="stroke: #9d5e46;" class="elevation route-segment306" d="M460,60L462,66"></path><path style="stroke: #9d5e46;" class="elevation route-segment307" d="M462,66L464,70"></path><path style="stroke: #79623e;" class="elevation route-segment308" d="M464,70L466,77"></path><path style="stroke: #79623e;" class="elevation route-segment309" d="M466,77L468,65"></path><path style="stroke: #9d5e46;" class="elevation route-segment310" d="M468,65L469,71"></path><path style="stroke: #79623e;" class="elevation route-segment311" d="M469,71L470,69"></path><path style="stroke: #79623e;" class="elevation route-segment312" d="M470,69L472,74"></path><path style="stroke: #79623e;" class="elevation route-segment313" d="M472,74L474,80"></path><path style="stroke: #79623e;" class="elevation route-segment314" d="M474,80L475,80"></path><path style="stroke: #79623e;" class="elevation route-segment315" d="M475,80L476,80"></path><path style="stroke: #79623e;" class="elevation route-segment316" d="M476,80L479,76"></path><path style="stroke: #79623e;" class="elevation route-segment317" d="M479,76L480,76"></path><path style="stroke: #79623e;" class="elevation route-segment318" d="M480,76L483,77"></path><path style="stroke: #79623e;" class="elevation route-segment319" d="M483,77L484,77"></path><path style="stroke: #79623e;" class="elevation route-segment320" d="M484,77L486,78"></path><path style="stroke: #79623e;" class="elevation route-segment321" d="M486,78L487,80"></path><path style="stroke: #79623e;" class="elevation route-segment322" d="M487,80L489,83"></path><path style="stroke: #79623e;" class="elevation route-segment323" d="M489,83L491,88"></path><path style="stroke: #546737;" class="elevation route-segment324" d="M491,88L492,88"></path><path style="stroke: #546737;" class="elevation route-segment325" d="M492,88L494,92"></path><path style="stroke: #546737;" class="elevation route-segment326" d="M494,92L496,90"></path><path style="stroke: #546737;" class="elevation route-segment327" d="M496,90L497,86"></path><path style="stroke: #546737;" class="elevation route-segment328" d="M497,86L499,88"></path><path style="stroke: #546737;" class="elevation route-segment329" d="M499,88L502,90"></path><path style="stroke: #546737;" class="elevation route-segment330" d="M502,90L503,90"></path><path style="stroke: #546737;" class="elevation route-segment331" d="M503,90L505,95"></path><path style="stroke: #546737;" class="elevation route-segment332" d="M505,95L506,99"></path><path style="stroke: #416f34;" class="elevation route-segment333" d="M506,99L506,101"></path><path style="stroke: #416f34;" class="elevation route-segment334" d="M506,101L508,105"></path><path style="stroke: #416f34;" class="elevation route-segment335" d="M508,105L509,108"></path><path style="stroke: #416f34;" class="elevation route-segment336" d="M509,108L513,103"></path><path style="stroke: #416f34;" class="elevation route-segment337" d="M513,103L514,104"></path><path style="stroke: #416f34;" class="elevation route-segment338" d="M514,104L515,106"></path><path style="stroke: #416f34;" class="elevation route-segment339" d="M515,106L516,106"></path><path style="stroke: #416f34;" class="elevation route-segment340" d="M516,106L518,113"></path><path style="stroke: #4a7a38;" class="elevation route-segment341" d="M518,113L520,116"></path><path style="stroke: #4a7a38;" class="elevation route-segment342" d="M520,116L525,127"></path><path style="stroke: #4a7a38;" class="elevation route-segment343" d="M525,127L525,127"></path><path style="stroke: #4a7a38;" class="elevation route-segment344" d="M0,0"></path></svg>
