<?xml version="1.0" standalone="yes"?>
<svg width="760" height="150" xmlns="http://www.w3.org/2000/svg"><path style="stroke: #4a7a38;" class="elevation route-segment1" d="M1,121L3,118"></path><path style="stroke: #4a7a38;" class="elevation route-segment2" d="M3,118L3,118"></path><path style="stroke: #4a7a38;" class="elevation route-segment3" d="M3,118L8,112"></path><path style="stroke: #416f34;" class="elevation route-segment4" d="M8,112L10,111"></path><path style="stroke: #416f34;" class="elevation route-segment5" d="M10,111L13,110"></path><path style="stroke: #416f34;" class="elevation route-segment6" d="M13,110L14,110"></path><path style="stroke: #416f34;" class="elevation route-segment7" d="M14,110L15,112"></path><path style="stroke: #416f34;" class="elevation route-segment8" d="M15,112L18,108"></path><path style="stroke: #416f34;" class="elevation route-segment9" d="M18,108L19,108"></path><path style="stroke: #416f34;" class="elevation route-segment10" d="M19,108L20,104"></path><path style="stroke: #416f34;" class="elevation route-segment11" d="M20,104L21,104"></path><path style="stroke: #416f34;" class="elevation route-segment12" d="M21,104L22,103"></path><path style="stroke: #416f34;" class="elevation route-segment13" d="M22,103L23,102"></path><path style="stroke: #416f34;" class="elevation route-segment14" d="M23,102L25,101"></path><path style="stroke: #416f34;" class="elevation route-segment15" d="M25,101L26,103"></path><path style="stroke: #416f34;" class="elevation route-segment16" d="M26,103L27,102"></path><path style="stroke: #416f34;" class="elevation route-segment17" d="M27,102L28,102"></path><path style="stroke: #416f34;" class="elevation route-segment18" d="M28,102L30,101"></path><path style="stroke: #416f34;" class="elevation route-segment19" d="M30,101L31,103"></path><path style="stroke: #416f34;" class="elevation route-segment20" d="M31,103L32,102"></path><path style="stroke: #416f34;" class="elevation route-segment21" d="M32,102L33,102"></path><path style="stroke: #416f34;" class="elevation route-segment22" d="M33,102L34,103"></path><path style="stroke: #416f34;" class="elevation route-segment23" d="M34,103L35,103"></path><path style="stroke: #416f34;" class="elevation route-segment24" d="M35,103L36,102"></path><path style="stroke: #416f34;" class="elevation route-segment25" d="M36,102L38,102"></path><path style="stroke: #416f34;" class="elevation route-segment26" d="M38,102L40,103"></path><path style="stroke: #416f34;" class="elevation route-segment27" d="M40,103L41,101"></path><path style="stroke: #416f34;" class="elevation route-segment28" d="M41,101L43,104"></path><path style="stroke: #416f34;" class="elevation route-segment29" d="M43,104L46,103"></path><path style="stroke: #416f34;" class="elevation route-segment30" d="M46,103L48,102"></path><path style="stroke: #416f34;" class="elevation route-segment31" d="M48,102L50,100"></path><path style="stroke: #416f34;" class="elevation route-segment32" d="M50,100L52,99"></path><path style="stroke: #416f34;" class="elevation route-segment33" d="M52,99L54,98"></path><path style="stroke: #546737;" class="elevation route-segment34" d="M54,98L55,101"></path><path style="stroke: #416f34;" class="elevation route-segment35" d="M55,101L56,101"></path><path style="stroke: #416f34;" class="elevation route-segment36" d="M56,101L56,99"></path><path style="stroke: #416f34;" class="elevation route-segment37" d="M56,99L57,99"></path><path style="stroke: #416f34;" class="elevation route-segment38" d="M57,99L58,102"></path><path style="stroke: #416f34;" class="elevation route-segment39" d="M58,102L59,102"></path><path style="stroke: #416f34;" class="elevation route-segment40" d="M59,102L62,100"></path><path style="stroke: #416f34;" class="elevation route-segment41" d="M62,100L63,99"></path><path style="stroke: #416f34;" class="elevation route-segment42" d="M63,99L64,100"></path><path style="stroke: #416f34;" class="elevation route-segment43" d="M64,100L66,100"></path><path style="stroke: #416f34;" class="elevation route-segment44" d="M66,100L68,102"></path><path style="stroke: #416f34;" class="elevation route-segment45" d="M68,102L69,101"></path><path style="stroke: #416f34;" class="elevation route-segment46" d="M69,101L70,102"></path><path style="stroke: #416f34;" class="elevation route-segment47" d="M70,102L71,101"></path><path style="stroke: #416f34;" class="elevation route-segment48" d="M71,101L72,101"></path><path style="stroke: #416f34;" class="elevation route-segment49" d="M72,101L73,102"></path><path style="stroke: #416f34;" class="elevation route-segment50" d="M73,102L75,102"></path><path style="stroke: #416f34;" class="elevation route-segment51" d="M75,102L77,102"></path><path style="stroke: #416f34;" class="elevation route-segment52" d="M77,102L78,102"></path><path style="stroke: #416f34;" class="elevation route-segment53" d="M78,102L79,102"></path><path style="stroke: #416f34;" class="elevation route-segment54" d="M79,102L80,99"></path><path style="stroke: #416f34;" class="elevation route-segment55" d="M80,99L81,99"></path><path style="stroke: #416f34;" class="elevation route-segment56" d="M81,99L81,97"></path><path style="stroke: #546737;" class="elevation route-segment57" d="M81,97L82,97"></path><path style="stroke: #546737;" class="elevation route-segment58" d="M82,97L83,97"></path><path style="stroke: #546737;" class="elevation route-segment59" d="M83,97L84,94"></path><path style="stroke: #546737;" class="elevation route-segment60" d="M84,94L85,98"></path><path style="stroke: #546737;" class="elevation route-segment61" d="M85,98L86,97"></path><path style="stroke: #546737;" class="elevation route-segment62" d="M86,97L88,100"></path><path style="stroke: #416f34;" class="elevation route-segment63" d="M88,100L89,100"></path><path style="stroke: #416f34;" class="elevation route-segment64" d="M89,100L92,95"></path><path style="stroke: #546737;" class="elevation route-segment65" d="M92,95L92,100"></path><path style="stroke: #416f34;" class="elevation route-segment66" d="M92,100L94,98"></path><path style="stroke: #416f34;" class="elevation route-segment67" d="M94,98L96,98"></path><path style="stroke: #416f34;" class="elevation route-segment68" d="M96,98L101,97"></path><path style="stroke: #546737;" class="elevation route-segment69" d="M101,97L104,98"></path><path style="stroke: #416f34;" class="elevation route-segment70" d="M104,98L106,99"></path><path style="stroke: #416f34;" class="elevation route-segment71" d="M106,99L108,99"></path><path style="stroke: #416f34;" class="elevation route-segment72" d="M108,99L110,98"></path><path style="stroke: #546737;" class="elevation route-segment73" d="M110,98L111,98"></path><path style="stroke: #546737;" class="elevation route-segment74" d="M111,98L111,98"></path><path style="stroke: #546737;" class="elevation route-segment75" d="M111,98L111,98"></path><path style="stroke: #546737;" class="elevation route-segment76" d="M111,98L112,96"></path><path style="stroke: #546737;" class="elevation route-segment77" d="M112,96L113,96"></path><path style="stroke: #546737;" class="elevation route-segment78" d="M113,96L115,94"></path><path style="stroke: #546737;" class="elevation route-segment79" d="M115,94L118,93"></path><path style="stroke: #546737;" class="elevation route-segment80" d="M118,93L120,92"></path><path style="stroke: #546737;" class="elevation route-segment81" d="M120,92L122,95"></path><path style="stroke: #546737;" class="elevation route-segment82" d="M122,95L125,92"></path><path style="stroke: #546737;" class="elevation route-segment83" d="M125,92L126,92"></path><path style="stroke: #546737;" class="elevation route-segment84" d="M126,92L127,87"></path><path style="stroke: #546737;" class="elevation route-segment85" d="M127,87L128,87"></path><path style="stroke: #546737;" class="elevation route-segment86" d="M128,87L131,85"></path><path style="stroke: #546737;" class="elevation route-segment87" d="M131,85L132,83"></path><path style="stroke: #546737;" class="elevation route-segment88" d="M132,83L135,81"></path><path style="stroke: #79623e;" class="elevation route-segment89" d="M135,81L138,76"></path><path style="stroke: #79623e;" class="elevation route-segment90" d="M138,76L140,74"></path><path style="stroke: #79623e;" class="elevation route-segment91" d="M140,74L142,72"></path><path style="stroke: #79623e;" class="elevation route-segment92" d="M142,72L143,72"></path><path style="stroke: #79623e;" class="elevation route-segment93" d="M143,72L146,69"></path><path style="stroke: #9d5e46;" class="elevation route-segment94" d="M146,69L150,66"></path><path style="stroke: #9d5e46;" class="elevation route-segment95" d="M150,66L152,65"></path><path style="stroke: #9d5e46;" class="elevation route-segment96" d="M152,65L154,67"></path><path style="stroke: #9d5e46;" class="elevation route-segment97" d="M154,67L155,69"></path><path style="stroke: #9d5e46;" class="elevation route-segment98" d="M155,69L156,69"></path><path style="stroke: #9d5e46;" class="elevation route-segment99" d="M156,69L157,69"></path><path style="stroke: #9d5e46;" class="elevation route-segment100" d="M157,69L157,69"></path><path style="stroke: #9d5e46;" class="elevation route-segment101" d="M157,69L158,71"></path><path style="stroke: #79623e;" class="elevation route-segment102" d="M158,71L160,70"></path><path style="stroke: #79623e;" class="elevation route-segment103" d="M160,70L161,70"></path><path style="stroke: #79623e;" class="elevation route-segment104" d="M161,70L162,77"></path><path style="stroke: #79623e;" class="elevation route-segment105" d="M162,77L163,77"></path><path style="stroke: #79623e;" class="elevation route-segment106" d="M163,77L165,77"></path><path style="stroke: #79623e;" class="elevation route-segment107" d="M165,77L166,77"></path><path style="stroke: #79623e;" class="elevation route-segment108" d="M166,77L167,77"></path><path style="stroke: #79623e;" class="elevation route-segment109" d="M167,77L168,77"></path><path style="stroke: #79623e;" class="elevation route-segment110" d="M168,77L168,77"></path><path style="stroke: #79623e;" class="elevation route-segment111" d="M168,77L168,77"></path><path style="stroke: #79623e;" class="elevation route-segment112" d="M168,77L168,83"></path><path style="stroke: #79623e;" class="elevation route-segment113" d="M168,83L169,87"></path><path style="stroke: #546737;" class="elevation route-segment114" d="M169,87L170,88"></path><path style="stroke: #546737;" class="elevation route-segment115" d="M170,88L171,88"></path><path style="stroke: #546737;" class="elevation route-segment116" d="M171,88L172,87"></path><path style="stroke: #546737;" class="elevation route-segment117" d="M172,87L173,87"></path><path style="stroke: #546737;" class="elevation route-segment118" d="M173,87L174,87"></path><path style="stroke: #546737;" class="elevation route-segment119" d="M174,87L176,83"></path><path style="stroke: #79623e;" class="elevation route-segment120" d="M176,83L177,79"></path><path style="stroke: #79623e;" class="elevation route-segment121" d="M177,79L178,79"></path><path style="stroke: #79623e;" class="elevation route-segment122" d="M178,79L179,72"></path><path style="stroke: #79623e;" class="elevation route-segment123" d="M179,72L180,73"></path><path style="stroke: #79623e;" class="elevation route-segment124" d="M180,73L182,74"></path><path style="stroke: #79623e;" class="elevation route-segment125" d="M182,74L186,83"></path><path style="stroke: #79623e;" class="elevation route-segment126" d="M186,83L188,77"></path><path style="stroke: #79623e;" class="elevation route-segment127" d="M188,77L191,78"></path><path style="stroke: #79623e;" class="elevation route-segment128" d="M191,78L193,77"></path><path style="stroke: #79623e;" class="elevation route-segment129" d="M193,77L195,73"></path><path style="stroke: #79623e;" class="elevation route-segment130" d="M195,73L197,68"></path><path style="stroke: #9d5e46;" class="elevation route-segment131" d="M197,68L198,67"></path><path style="stroke: #9d5e46;" class="elevation route-segment132" d="M198,67L200,59"></path><path style="stroke: #9d5e46;" class="elevation route-segment133" d="M200,59L201,56"></path><path style="stroke: #9d5e46;" class="elevation route-segment134" d="M201,56L203,49"></path><path style="stroke: #b9584a;" class="elevation route-segment135" d="M203,49L205,45"></path><path style="stroke: #b9584a;" class="elevation route-segment136" d="M205,45L206,45"></path><path style="stroke: #b9584a;" class="elevation route-segment137" d="M206,45L208,40"></path><path style="stroke: #b9584a;" class="elevation route-segment138" d="M208,40L211,47"></path><path style="stroke: #b9584a;" class="elevation route-segment139" d="M211,47L212,49"></path><path style="stroke: #b9584a;" class="elevation route-segment140" d="M212,49L214,46"></path><path style="stroke: #b9584a;" class="elevation route-segment141" d="M214,46L216,46"></path><path style="stroke: #b9584a;" class="elevation route-segment142" d="M216,46L217,46"></path><path style="stroke: #b9584a;" class="elevation route-segment143" d="M217,46L218,43"></path><path style="stroke: #b9584a;" class="elevation route-segment144" d="M218,43L220,41"></path><path style="stroke: #b9584a;" class="elevation route-segment145" d="M220,41L223,40"></path><path style="stroke: #b9584a;" class="elevation route-segment146" d="M223,40L226,30"></path><path style="stroke: #af4b3d;" class="elevation route-segment147" d="M226,30L232,23"></path><path style="stroke: #a53e30;" class="elevation route-segment148" d="M232,23L234,19"></path><path style="stroke: #a53e30;" class="elevation route-segment149" d="M234,19L235,20"></path><path style="stroke: #a53e30;" class="elevation route-segment150" d="M235,20L236,23"></path><path style="stroke: #a53e30;" class="elevation route-segment151" d="M236,23L238,26"></path><path style="stroke: #af4b3d;" class="elevation route-segment152" d="M238,26L239,23"></path><path style="stroke: #a53e30;" class="elevation route-segment153" d="M239,23L241,20"></path><path style="stroke: #a53e30;" class="elevation route-segment154" d="M241,20L242,20"></path><path style="stroke: #a53e30;" class="elevation route-segment155" d="M242,20L243,20"></path><path style="stroke: #a53e30;" class="elevation route-segment156" d="M243,20L244,16"></path><path style="stroke: #a53e30;" class="elevation route-segment157" d="M244,16L245,17"></path><path style="stroke: #a53e30;" class="elevation route-segment158" d="M245,17L246,17"></path><path style="stroke: #a53e30;" class="elevation route-segment159" d="M246,17L247,14"></path><path style="stroke: #a53e30;" class="elevation route-segment160" d="M247,14L248,9"></path><path style="stroke: #9a3123;" class="elevation route-segment161" d="M248,9L249,10"></path><path style="stroke: #9a3123;" class="elevation route-segment162" d="M249,10L250,11"></path><path style="stroke: #a53e30;" class="elevation route-segment163" d="M250,11L250,11"></path><path style="stroke: #a53e30;" class="elevation route-segment164" d="M250,11L251,11"></path><path style="stroke: #a53e30;" class="elevation route-segment165" d="M251,11L252,11"></path><path style="stroke: #a53e30;" class="elevation route-segment166" d="M252,11L252,11"></path><path style="stroke: #a53e30;" class="elevation route-segment167" d="M252,11L253,10"></path><path style="stroke: #9a3123;" class="elevation route-segment168" d="M253,10L253,10"></path><path style="stroke: #9a3123;" class="elevation route-segment169" d="M253,10L254,10"></path><path style="stroke: #9a3123;" class="elevation route-segment170" d="M254,10L255,10"></path><path style="stroke: #9a3123;" class="elevation route-segment171" d="M255,10L257,9"></path><path style="stroke: #9a3123;" class="elevation route-segment172" d="M257,9L258,8"></path><path style="stroke: #9a3123;" class="elevation route-segment173" d="M258,8L258,8"></path><path style="stroke: #9a3123;" class="elevation route-segment174" d="M258,8L259,14"></path><path style="stroke: #a53e30;" class="elevation route-segment175" d="M259,14L260,14"></path><path style="stroke: #a53e30;" class="elevation route-segment176" d="M260,14L262,17"></path><path style="stroke: #a53e30;" class="elevation route-segment177" d="M262,17L263,17"></path><path style="stroke: #a53e30;" class="elevation route-segment178" d="M263,17L265,20"></path><path style="stroke: #a53e30;" class="elevation route-segment179" d="M265,20L266,23"></path><path style="stroke: #a53e30;" class="elevation route-segment180" d="M266,23L267,25"></path><path style="stroke: #af4b3d;" class="elevation route-segment181" d="M267,25L268,28"></path><path style="stroke: #af4b3d;" class="elevation route-segment182" d="M268,28L269,25"></path><path style="stroke: #af4b3d;" class="elevation route-segment183" d="M269,25L270,25"></path><path style="stroke: #af4b3d;" class="elevation route-segment184" d="M270,25L271,24"></path><path style="stroke: #a53e30;" class="elevation route-segment185" d="M271,24L273,23"></path><path style="stroke: #a53e30;" class="elevation route-segment186" d="M273,23L274,23"></path><path style="stroke: #a53e30;" class="elevation route-segment187" d="M274,23L275,23"></path><path style="stroke: #a53e30;" class="elevation route-segment188" d="M275,23L276,23"></path><path style="stroke: #a53e30;" class="elevation route-segment189" d="M276,23L277,27"></path><path style="stroke: #af4b3d;" class="elevation route-segment190" d="M277,27L278,30"></path><path style="stroke: #af4b3d;" class="elevation route-segment191" d="M278,30L279,30"></path><path style="stroke: #af4b3d;" class="elevation route-segment192" d="M279,30L280,27"></path><path style="stroke: #af4b3d;" class="elevation route-segment193" d="M280,27L281,27"></path><path style="stroke: #af4b3d;" class="elevation route-segment194" d="M281,27L281,27"></path><path style="stroke: #af4b3d;" class="elevation route-segment195" d="M281,27L283,28"></path><path style="stroke: #af4b3d;" class="elevation route-segment196" d="M283,28L284,32"></path><path style="stroke: #af4b3d;" class="elevation route-segment197" d="M284,32L285,30"></path><path style="stroke: #af4b3d;" class="elevation route-segment198" d="M285,30L286,30"></path><path style="stroke: #af4b3d;" class="elevation route-segment199" d="M286,30L288,32"></path><path style="stroke: #af4b3d;" class="elevation route-segment200" d="M288,32L292,40"></path><path style="stroke: #b9584a;" class="elevation route-segment201" d="M292,40L293,43"></path><path style="stroke: #b9584a;" class="elevation route-segment202" d="M293,43L294,43"></path><path style="stroke: #b9584a;" class="elevation route-segment203" d="M294,43L295,50"></path><path style="stroke: #b9584a;" class="elevation route-segment204" d="M295,50L296,50"></path><path style="stroke: #b9584a;" class="elevation route-segment205" d="M296,50L297,47"></path><path style="stroke: #b9584a;" class="elevation route-segment206" d="M297,47L298,47"></path><path style="stroke: #b9584a;" class="elevation route-segment207" d="M298,47L300,51"></path><path style="stroke: #b9584a;" class="elevation route-segment208" d="M300,51L301,51"></path><path style="stroke: #b9584a;" class="elevation route-segment209" d="M301,51L303,53"></path><path style="stroke: #b9584a;" class="elevation route-segment210" d="M303,53L304,51"></path><path style="stroke: #b9584a;" class="elevation route-segment211" d="M304,51L305,56"></path><path style="stroke: #9d5e46;" class="elevation route-segment212" d="M305,56L307,53"></path><path style="stroke: #b9584a;" class="elevation route-segment213" d="M307,53L309,42"></path><path style="stroke: #b9584a;" class="elevation route-segment214" d="M309,42L309,40"></path><path style="stroke: #b9584a;" class="elevation route-segment215" d="M309,40L310,46"></path><path style="stroke: #b9584a;" class="elevation route-segment216" d="M310,46L311,46"></path><path style="stroke: #b9584a;" class="elevation route-segment217" d="M311,46L312,43"></path><path style="stroke: #b9584a;" class="elevation route-segment218" d="M312,43L313,45"></path><path style="stroke: #b9584a;" class="elevation route-segment219" d="M313,45L314,45"></path><path style="stroke: #b9584a;" class="elevation route-segment220" d="M314,45L315,45"></path><path style="stroke: #b9584a;" class="elevation route-segment221" d="M315,45L316,50"></path><path style="stroke: #b9584a;" class="elevation route-segment222" d="M316,50L318,50"></path><path style="stroke: #b9584a;" class="elevation route-segment223" d="M318,50L319,50"></path><path style="stroke: #b9584a;" class="elevation route-segment224" d="M319,50L320,52"></path><path style="stroke: #b9584a;" class="elevation route-segment225" d="M320,52L323,49"></path><path style="stroke: #b9584a;" class="elevation route-segment226" d="M323,49L324,43"></path><path style="stroke: #b9584a;" class="elevation route-segment227" d="M324,43L325,44"></path><path style="stroke: #b9584a;" class="elevation route-segment228" d="M325,44L327,49"></path><path style="stroke: #b9584a;" class="elevation route-segment229" d="M327,49L329,46"></path><path style="stroke: #b9584a;" class="elevation route-segment230" d="M329,46L333,44"></path><path style="stroke: #b9584a;" class="elevation route-segment231" d="M333,44L334,43"></path><path style="stroke: #b9584a;" class="elevation route-segment232" d="M334,43L336,45"></path><path style="stroke: #b9584a;" class="elevation route-segment233" d="M336,45L337,45"></path><path style="stroke: #b9584a;" class="elevation route-segment234" d="M337,45L337,43"></path><path style="stroke: #b9584a;" class="elevation route-segment235" d="M337,43L339,44"></path><path style="stroke: #b9584a;" class="elevation route-segment236" d="M339,44L339,44"></path><path style="stroke: #b9584a;" class="elevation route-segment237" d="M339,44L341,42"></path><path style="stroke: #b9584a;" class="elevation route-segment238" d="M341,42L342,41"></path><path style="stroke: #b9584a;" class="elevation route-segment239" d="M342,41L342,42"></path><path style="stroke: #b9584a;" class="elevation route-segment240" d="M342,42L343,42"></path><path style="stroke: #b9584a;" class="elevation route-segment241" d="M343,42L344,50"></path><path style="stroke: #b9584a;" class="elevation route-segment242" d="M344,50L345,50"></path><path style="stroke: #b9584a;" class="elevation route-segment243" d="M345,50L347,40"></path><path style="stroke: #b9584a;" class="elevation route-segment244" d="M347,40L349,38"></path><path style="stroke: #af4b3d;" class="elevation route-segment245" d="M349,38L350,36"></path><path style="stroke: #af4b3d;" class="elevation route-segment246" d="M350,36L351,42"></path><path style="stroke: #b9584a;" class="elevation route-segment247" d="M351,42L352,42"></path><path style="stroke: #b9584a;" class="elevation route-segment248" d="M352,42L354,46"></path><path style="stroke: #b9584a;" class="elevation route-segment249" d="M354,46L355,46"></path><path style="stroke: #b9584a;" class="elevation route-segment250" d="M355,46L356,48"></path><path style="stroke: #b9584a;" class="elevation route-segment251" d="M356,48L357,53"></path><path style="stroke: #b9584a;" class="elevation route-segment252" d="M357,53L358,51"></path><path style="stroke: #b9584a;" class="elevation route-segment253" d="M358,51L360,49"></path><path style="stroke: #b9584a;" class="elevation route-segment254" d="M360,49L362,44"></path><path style="stroke: #b9584a;" class="elevation route-segment255" d="M362,44L364,46"></path><path style="stroke: #b9584a;" class="elevation route-segment256" d="M364,46L365,39"></path><path style="stroke: #af4b3d;" class="elevation route-segment257" d="M365,39L365,39"></path><path style="stroke: #af4b3d;" class="elevation route-segment258" d="M365,39L365,38"></path><path style="stroke: #af4b3d;" class="elevation route-segment259" d="M365,38L366,38"></path><path style="stroke: #af4b3d;" class="elevation route-segment260" d="M366,38L367,45"></path><path style="stroke: #b9584a;" class="elevation route-segment261" d="M367,45L368,45"></path><path style="stroke: #b9584a;" class="elevation route-segment262" d="M368,45L369,51"></path><path style="stroke: #b9584a;" class="elevation route-segment263" d="M369,51L370,48"></path><path style="stroke: #b9584a;" class="elevation route-segment264" d="M370,48L371,46"></path><path style="stroke: #b9584a;" class="elevation route-segment265" d="M371,46L372,46"></path><path style="stroke: #b9584a;" class="elevation route-segment266" d="M372,46L373,48"></path><path style="stroke: #b9584a;" class="elevation route-segment267" d="M373,48L374,48"></path><path style="stroke: #b9584a;" class="elevation route-segment268" d="M374,48L375,48"></path><path style="stroke: #b9584a;" class="elevation route-segment269" d="M375,48L376,46"></path><path style="stroke: #b9584a;" class="elevation route-segment270" d="M376,46L377,46"></path><path style="stroke: #b9584a;" class="elevation route-segment271" d="M377,46L378,46"></path><path style="stroke: #b9584a;" class="elevation route-segment272" d="M378,46L380,44"></path><path style="stroke: #b9584a;" class="elevation route-segment273" d="M380,44L382,40"></path><path style="stroke: #b9584a;" class="elevation route-segment274" d="M382,40L382,35"></path><path style="stroke: #af4b3d;" class="elevation route-segment275" d="M382,35L383,38"></path><path style="stroke: #af4b3d;" class="elevation route-segment276" d="M383,38L384,46"></path><path style="stroke: #b9584a;" class="elevation route-segment277" d="M384,46L385,39"></path><path style="stroke: #af4b3d;" class="elevation route-segment278" d="M385,39L386,45"></path><path style="stroke: #b9584a;" class="elevation route-segment279" d="M386,45L387,45"></path><path style="stroke: #b9584a;" class="elevation route-segment280" d="M387,45L389,49"></path><path style="stroke: #b9584a;" class="elevation route-segment281" d="M389,49L389,49"></path><path style="stroke: #b9584a;" class="elevation route-segment282" d="M389,49L389,49"></path><path style="stroke: #b9584a;" class="elevation route-segment283" d="M389,49L390,47"></path><path style="stroke: #b9584a;" class="elevation route-segment284" d="M390,47L392,46"></path><path style="stroke: #b9584a;" class="elevation route-segment285" d="M392,46L394,47"></path><path style="stroke: #b9584a;" class="elevation route-segment286" d="M394,47L394,49"></path><path style="stroke: #b9584a;" class="elevation route-segment287" d="M394,49L395,49"></path><path style="stroke: #b9584a;" class="elevation route-segment288" d="M395,49L397,47"></path><path style="stroke: #b9584a;" class="elevation route-segment289" d="M397,47L399,39"></path><path style="stroke: #af4b3d;" class="elevation route-segment290" d="M399,39L400,44"></path><path style="stroke: #b9584a;" class="elevation route-segment291" d="M400,44L401,44"></path><path style="stroke: #b9584a;" class="elevation route-segment292" d="M401,44L402,42"></path><path style="stroke: #b9584a;" class="elevation route-segment293" d="M402,42L403,46"></path><path style="stroke: #b9584a;" class="elevation route-segment294" d="M403,46L404,40"></path><path style="stroke: #b9584a;" class="elevation route-segment295" d="M404,40L405,46"></path><path style="stroke: #b9584a;" class="elevation route-segment296" d="M405,46L406,46"></path><path style="stroke: #b9584a;" class="elevation route-segment297" d="M406,46L407,46"></path><path style="stroke: #b9584a;" class="elevation route-segment298" d="M407,46L408,48"></path><path style="stroke: #b9584a;" class="elevation route-segment299" d="M408,48L410,53"></path><path style="stroke: #b9584a;" class="elevation route-segment300" d="M410,53L411,53"></path><path style="stroke: #b9584a;" class="elevation route-segment301" d="M411,53L412,53"></path><path style="stroke: #b9584a;" class="elevation route-segment302" d="M412,53L413,58"></path><path style="stroke: #9d5e46;" class="elevation route-segment303" d="M413,58L414,58"></path><path style="stroke: #9d5e46;" class="elevation route-segment304" d="M414,58L415,56"></path><path style="stroke: #9d5e46;" class="elevation route-segment305" d="M415,56L416,56"></path><path style="stroke: #9d5e46;" class="elevation route-segment306" d="M416,56L417,60"></path><path style="stroke: #9d5e46;" class="elevation route-segment307" d="M417,60L418,60"></path><path style="stroke: #9d5e46;" class="elevation route-segment308" d="M418,60L419,66"></path><path style="stroke: #9d5e46;" class="elevation route-segment309" d="M419,66L420,70"></path><path style="stroke: #79623e;" class="elevation route-segment310" d="M420,70L422,77"></path><path style="stroke: #79623e;" class="elevation route-segment311" d="M422,77L422,74"></path><path style="stroke: #79623e;" class="elevation route-segment312" d="M422,74L423,65"></path><path style="stroke: #9d5e46;" class="elevation route-segment313" d="M423,65L424,71"></path><path style="stroke: #79623e;" class="elevation route-segment314" d="M424,71L425,69"></path><path style="stroke: #79623e;" class="elevation route-segment315" d="M425,69L426,69"></path><path style="stroke: #79623e;" class="elevation route-segment316" d="M426,69L427,74"></path><path style="stroke: #79623e;" class="elevation route-segment317" d="M427,74L428,74"></path><path style="stroke: #79623e;" class="elevation route-segment318" d="M428,74L429,80"></path><path style="stroke: #79623e;" class="elevation route-segment319" d="M429,80L431,80"></path><path style="stroke: #79623e;" class="elevation route-segment320" d="M431,80L433,80"></path><path style="stroke: #79623e;" class="elevation route-segment321" d="M433,80L434,80"></path><path style="stroke: #79623e;" class="elevation route-segment322" d="M434,80L436,76"></path><path style="stroke: #79623e;" class="elevation route-segment323" d="M436,76L437,76"></path><path style="stroke: #79623e;" class="elevation route-segment324" d="M437,76L437,76"></path><path style="stroke: #79623e;" class="elevation route-segment325" d="M437,76L437,76"></path><path style="stroke: #79623e;" class="elevation route-segment326" d="M437,76L439,79"></path><path style="stroke: #79623e;" class="elevation route-segment327" d="M439,79L440,75"></path><path style="stroke: #79623e;" class="elevation route-segment328" d="M440,75L441,77"></path><path style="stroke: #79623e;" class="elevation route-segment329" d="M441,77L442,77"></path><path style="stroke: #79623e;" class="elevation route-segment330" d="M442,77L443,78"></path><path style="stroke: #79623e;" class="elevation route-segment331" d="M443,78L445,80"></path><path style="stroke: #79623e;" class="elevation route-segment332" d="M445,80L446,83"></path><path style="stroke: #79623e;" class="elevation route-segment333" d="M446,83L448,83"></path><path style="stroke: #79623e;" class="elevation route-segment334" d="M448,83L449,88"></path><path style="stroke: #546737;" class="elevation route-segment335" d="M449,88L450,88"></path><path style="stroke: #546737;" class="elevation route-segment336" d="M450,88L450,92"></path><path style="stroke: #546737;" class="elevation route-segment337" d="M450,92L451,92"></path><path style="stroke: #546737;" class="elevation route-segment338" d="M451,92L453,85"></path><path style="stroke: #546737;" class="elevation route-segment339" d="M453,85L454,88"></path><path style="stroke: #546737;" class="elevation route-segment340" d="M454,88L455,88"></path><path style="stroke: #546737;" class="elevation route-segment341" d="M455,88L457,90"></path><path style="stroke: #546737;" class="elevation route-segment342" d="M457,90L458,90"></path><path style="stroke: #546737;" class="elevation route-segment343" d="M458,90L459,90"></path><path style="stroke: #546737;" class="elevation route-segment344" d="M459,90L460,90"></path><path style="stroke: #546737;" class="elevation route-segment345" d="M460,90L462,95"></path><path style="stroke: #546737;" class="elevation route-segment346" d="M462,95L463,95"></path><path style="stroke: #546737;" class="elevation route-segment347" d="M463,95L464,101"></path><path style="stroke: #416f34;" class="elevation route-segment348" d="M464,101L465,101"></path><path style="stroke: #416f34;" class="elevation route-segment349" d="M465,101L466,105"></path><path style="stroke: #416f34;" class="elevation route-segment350" d="M466,105L467,108"></path><path style="stroke: #416f34;" class="elevation route-segment351" d="M467,108L469,103"></path><path style="stroke: #416f34;" class="elevation route-segment352" d="M469,103L471,103"></path><path style="stroke: #416f34;" class="elevation route-segment353" d="M471,103L472,103"></path><path style="stroke: #416f34;" class="elevation route-segment354" d="M472,103L473,104"></path><path style="stroke: #416f34;" class="elevation route-segment355" d="M473,104L474,106"></path><path style="stroke: #416f34;" class="elevation route-segment356" d="M474,106L475,106"></path><path style="stroke: #416f34;" class="elevation route-segment357" d="M475,106L476,111"></path><path style="stroke: #416f34;" class="elevation route-segment358" d="M476,111L477,113"></path><path style="stroke: #4a7a38;" class="elevation route-segment359" d="M477,113L478,113"></path><path style="stroke: #4a7a38;" class="elevation route-segment360" d="M478,113L478,116"></path><path style="stroke: #4a7a38;" class="elevation route-segment361" d="M478,116L479,120"></path><path style="stroke: #4a7a38;" class="elevation route-segment362" d="M479,120L480,120"></path><path style="stroke: #4a7a38;" class="elevation route-segment363" d="M480,120L481,118"></path><path style="stroke: #4a7a38;" class="elevation route-segment364" d="M481,118L481,118"></path><path style="stroke: #4a7a38;" class="elevation route-segment365" d="M481,118L482,120"></path><path style="stroke: #4a7a38;" class="elevation route-segment366" d="M482,120L483,120"></path><path style="stroke: #4a7a38;" class="elevation route-segment367" d="M483,120L484,122"></path><path style="stroke: #4a7a38;" class="elevation route-segment368" d="M484,122L485,122"></path><path style="stroke: #4a7a38;" class="elevation route-segment369" d="M485,122L487,124"></path><path style="stroke: #4a7a38;" class="elevation route-segment370" d="M487,124L488,126"></path><path style="stroke: #4a7a38;" class="elevation route-segment371" d="M488,126L489,125"></path><path style="stroke: #4a7a38;" class="elevation route-segment372" d="M489,125L490,126"></path><path style="stroke: #4a7a38;" class="elevation route-segment373" d="M490,126L492,127"></path><path style="stroke: #4a7a38;" class="elevation route-segment374" d="M492,127L494,127"></path><path style="stroke: #4a7a38;" class="elevation route-segment375" d="M494,127L494,127"></path><path style="stroke: #4a7a38;" class="elevation route-segment376" d="M0,0"></path></svg>
