<?xml version="1.0" standalone="yes"?>
<svg width="760" height="150" xmlns="http://www.w3.org/2000/svg"><path style="stroke: #4a7a38;" class="elevation route-segment1" d="M4,120L6,120"></path><path style="stroke: #4a7a38;" class="elevation route-segment2" d="M6,120L11,119"></path><path style="stroke: #4a7a38;" class="elevation route-segment3" d="M11,119L16,122"></path><path style="stroke: #4a7a38;" class="elevation route-segment4" d="M16,122L19,122"></path><path style="stroke: #4a7a38;" class="elevation route-segment5" d="M19,122L23,123"></path><path style="stroke: #4a7a38;" class="elevation route-segment6" d="M23,123L26,128"></path><path style="stroke: #52863c;" class="elevation route-segment7" d="M26,128L28,123"></path><path style="stroke: #4a7a38;" class="elevation route-segment8" d="M28,123L31,121"></path><path style="stroke: #4a7a38;" class="elevation route-segment9" d="M31,121L34,117"></path><path style="stroke: #4a7a38;" class="elevation route-segment10" d="M34,117L36,115"></path><path style="stroke: #4a7a38;" class="elevation route-segment11" d="M36,115L38,117"></path><path style="stroke: #4a7a38;" class="elevation route-segment12" d="M38,117L41,120"></path><path style="stroke: #4a7a38;" class="elevation route-segment13" d="M41,120L43,115"></path><path style="stroke: #4a7a38;" class="elevation route-segment14" d="M43,115L47,117"></path><path style="stroke: #4a7a38;" class="elevation route-segment15" d="M47,117L49,121"></path><path style="stroke: #4a7a38;" class="elevation route-segment16" d="M49,121L50,117"></path><path style="stroke: #4a7a38;" class="elevation route-segment17" d="M50,117L52,116"></path><path style="stroke: #4a7a38;" class="elevation route-segment18" d="M52,116L54,119"></path><path style="stroke: #4a7a38;" class="elevation route-segment19" d="M54,119L55,114"></path><path style="stroke: #4a7a38;" class="elevation route-segment20" d="M55,114L56,114"></path><path style="stroke: #4a7a38;" class="elevation route-segment21" d="M56,114L56,113"></path><path style="stroke: #4a7a38;" class="elevation route-segment22" d="M56,113L58,114"></path><path style="stroke: #4a7a38;" class="elevation route-segment23" d="M58,114L60,114"></path><path style="stroke: #4a7a38;" class="elevation route-segment24" d="M60,114L61,114"></path><path style="stroke: #4a7a38;" class="elevation route-segment25" d="M61,114L62,119"></path><path style="stroke: #4a7a38;" class="elevation route-segment26" d="M62,119L64,120"></path><path style="stroke: #4a7a38;" class="elevation route-segment27" d="M64,120L66,120"></path><path style="stroke: #4a7a38;" class="elevation route-segment28" d="M66,120L68,123"></path><path style="stroke: #4a7a38;" class="elevation route-segment29" d="M68,123L70,126"></path><path style="stroke: #4a7a38;" class="elevation route-segment30" d="M70,126L71,123"></path><path style="stroke: #4a7a38;" class="elevation route-segment31" d="M71,123L72,122"></path><path style="stroke: #4a7a38;" class="elevation route-segment32" d="M72,122L73,126"></path><path style="stroke: #4a7a38;" class="elevation route-segment33" d="M73,126L75,130"></path><path style="stroke: #52863c;" class="elevation route-segment34" d="M75,130L77,136"></path><path style="stroke: #52863c;" class="elevation route-segment35" d="M77,136L78,136"></path><path style="stroke: #52863c;" class="elevation route-segment36" d="M78,136L79,138"></path><path style="stroke: #52863c;" class="elevation route-segment37" d="M79,138L81,140"></path><path style="stroke: #52863c;" class="elevation route-segment38" d="M81,140L83,143"></path><path style="stroke: #5b9240;" class="elevation route-segment39" d="M83,143L84,142"></path><path style="stroke: #5b9240;" class="elevation route-segment40" d="M84,142L86,143"></path><path style="stroke: #5b9240;" class="elevation route-segment41" d="M86,143L89,147"></path><path style="stroke: #5b9240;" class="elevation route-segment42" d="M89,147L90,148"></path><path style="stroke: #5b9240;" class="elevation route-segment43" d="M90,148L92,146"></path><path style="stroke: #5b9240;" class="elevation route-segment44" d="M92,146L94,143"></path><path style="stroke: #5b9240;" class="elevation route-segment45" d="M94,143L95,138"></path><path style="stroke: #52863c;" class="elevation route-segment46" d="M95,138L96,138"></path><path style="stroke: #52863c;" class="elevation route-segment47" d="M96,138L96,135"></path><path style="stroke: #52863c;" class="elevation route-segment48" d="M96,135L97,135"></path><path style="stroke: #52863c;" class="elevation route-segment49" d="M97,135L99,126"></path><path style="stroke: #4a7a38;" class="elevation route-segment50" d="M99,126L101,126"></path><path style="stroke: #4a7a38;" class="elevation route-segment51" d="M101,126L102,123"></path><path style="stroke: #4a7a38;" class="elevation route-segment52" d="M102,123L104,123"></path><path style="stroke: #4a7a38;" class="elevation route-segment53" d="M104,123L106,120"></path><path style="stroke: #4a7a38;" class="elevation route-segment54" d="M106,120L108,117"></path><path style="stroke: #4a7a38;" class="elevation route-segment55" d="M108,117L110,114"></path><path style="stroke: #4a7a38;" class="elevation route-segment56" d="M110,114L113,118"></path><path style="stroke: #4a7a38;" class="elevation route-segment57" d="M113,118L116,115"></path><path style="stroke: #4a7a38;" class="elevation route-segment58" d="M116,115L119,116"></path><path style="stroke: #4a7a38;" class="elevation route-segment59" d="M119,116L121,113"></path><path style="stroke: #4a7a38;" class="elevation route-segment60" d="M121,113L123,109"></path><path style="stroke: #416f34;" class="elevation route-segment61" d="M123,109L125,105"></path><path style="stroke: #416f34;" class="elevation route-segment62" d="M125,105L126,105"></path><path style="stroke: #416f34;" class="elevation route-segment63" d="M126,105L128,107"></path><path style="stroke: #416f34;" class="elevation route-segment64" d="M128,107L130,112"></path><path style="stroke: #416f34;" class="elevation route-segment65" d="M130,112L132,115"></path><path style="stroke: #4a7a38;" class="elevation route-segment66" d="M132,115L133,119"></path><path style="stroke: #4a7a38;" class="elevation route-segment67" d="M133,119L134,119"></path><path style="stroke: #4a7a38;" class="elevation route-segment68" d="M134,119L138,116"></path><path style="stroke: #4a7a38;" class="elevation route-segment69" d="M138,116L140,119"></path><path style="stroke: #4a7a38;" class="elevation route-segment70" d="M140,119L142,112"></path><path style="stroke: #416f34;" class="elevation route-segment71" d="M142,112L145,111"></path><path style="stroke: #416f34;" class="elevation route-segment72" d="M145,111L148,109"></path><path style="stroke: #416f34;" class="elevation route-segment73" d="M148,109L150,115"></path><path style="stroke: #4a7a38;" class="elevation route-segment74" d="M150,115L152,109"></path><path style="stroke: #416f34;" class="elevation route-segment75" d="M152,109L156,116"></path><path style="stroke: #4a7a38;" class="elevation route-segment76" d="M156,116L159,117"></path><path style="stroke: #4a7a38;" class="elevation route-segment77" d="M159,117L161,116"></path><path style="stroke: #4a7a38;" class="elevation route-segment78" d="M161,116L162,120"></path><path style="stroke: #4a7a38;" class="elevation route-segment79" d="M162,120L163,120"></path><path style="stroke: #4a7a38;" class="elevation route-segment80" d="M163,120L164,128"></path><path style="stroke: #52863c;" class="elevation route-segment81" d="M164,128L165,126"></path><path style="stroke: #4a7a38;" class="elevation route-segment82" d="M165,126L166,126"></path><path style="stroke: #4a7a38;" class="elevation route-segment83" d="M166,126L167,126"></path><path style="stroke: #4a7a38;" class="elevation route-segment84" d="M167,126L168,121"></path><path style="stroke: #4a7a38;" class="elevation route-segment85" d="M168,121L170,121"></path><path style="stroke: #4a7a38;" class="elevation route-segment86" d="M170,121L171,118"></path><path style="stroke: #4a7a38;" class="elevation route-segment87" d="M171,118L174,115"></path><path style="stroke: #4a7a38;" class="elevation route-segment88" d="M174,115L178,108"></path><path style="stroke: #416f34;" class="elevation route-segment89" d="M178,108L182,110"></path><path style="stroke: #416f34;" class="elevation route-segment90" d="M182,110L187,106"></path><path style="stroke: #416f34;" class="elevation route-segment91" d="M187,106L189,103"></path><path style="stroke: #416f34;" class="elevation route-segment92" d="M189,103L192,104"></path><path style="stroke: #416f34;" class="elevation route-segment93" d="M192,104L196,101"></path><path style="stroke: #416f34;" class="elevation route-segment94" d="M196,101L200,101"></path><path style="stroke: #416f34;" class="elevation route-segment95" d="M200,101L201,103"></path><path style="stroke: #416f34;" class="elevation route-segment96" d="M201,103L203,100"></path><path style="stroke: #416f34;" class="elevation route-segment97" d="M203,100L205,97"></path><path style="stroke: #546737;" class="elevation route-segment98" d="M205,97L207,103"></path><path style="stroke: #416f34;" class="elevation route-segment99" d="M207,103L209,103"></path><path style="stroke: #416f34;" class="elevation route-segment100" d="M209,103L211,104"></path><path style="stroke: #416f34;" class="elevation route-segment101" d="M211,104L214,103"></path><path style="stroke: #416f34;" class="elevation route-segment102" d="M214,103L216,102"></path><path style="stroke: #416f34;" class="elevation route-segment103" d="M216,102L220,106"></path><path style="stroke: #416f34;" class="elevation route-segment104" d="M220,106L222,106"></path><path style="stroke: #416f34;" class="elevation route-segment105" d="M222,106L224,109"></path><path style="stroke: #416f34;" class="elevation route-segment106" d="M224,109L228,110"></path><path style="stroke: #416f34;" class="elevation route-segment107" d="M228,110L233,120"></path><path style="stroke: #4a7a38;" class="elevation route-segment108" d="M233,120L234,123"></path><path style="stroke: #4a7a38;" class="elevation route-segment109" d="M234,123L235,123"></path><path style="stroke: #4a7a38;" class="elevation route-segment110" d="M235,123L236,123"></path><path style="stroke: #4a7a38;" class="elevation route-segment111" d="M236,123L237,121"></path><path style="stroke: #4a7a38;" class="elevation route-segment112" d="M237,121L238,121"></path><path style="stroke: #4a7a38;" class="elevation route-segment113" d="M238,121L240,120"></path><path style="stroke: #4a7a38;" class="elevation route-segment114" d="M240,120L242,120"></path><path style="stroke: #4a7a38;" class="elevation route-segment115" d="M242,120L243,120"></path><path style="stroke: #4a7a38;" class="elevation route-segment116" d="M243,120L245,114"></path><path style="stroke: #4a7a38;" class="elevation route-segment117" d="M245,114L246,109"></path><path style="stroke: #416f34;" class="elevation route-segment118" d="M246,109L247,109"></path><path style="stroke: #416f34;" class="elevation route-segment119" d="M247,109L248,109"></path><path style="stroke: #416f34;" class="elevation route-segment120" d="M248,109L249,107"></path><path style="stroke: #416f34;" class="elevation route-segment121" d="M249,107L250,105"></path><path style="stroke: #416f34;" class="elevation route-segment122" d="M250,105L252,104"></path><path style="stroke: #416f34;" class="elevation route-segment123" d="M252,104L253,107"></path><path style="stroke: #416f34;" class="elevation route-segment124" d="M253,107L255,109"></path><path style="stroke: #416f34;" class="elevation route-segment125" d="M255,109L257,110"></path><path style="stroke: #416f34;" class="elevation route-segment126" d="M257,110L259,106"></path><path style="stroke: #416f34;" class="elevation route-segment127" d="M259,106L260,105"></path><path style="stroke: #416f34;" class="elevation route-segment128" d="M260,105L264,106"></path><path style="stroke: #416f34;" class="elevation route-segment129" d="M264,106L266,107"></path><path style="stroke: #416f34;" class="elevation route-segment130" d="M266,107L268,109"></path><path style="stroke: #416f34;" class="elevation route-segment131" d="M268,109L269,112"></path><path style="stroke: #416f34;" class="elevation route-segment132" d="M269,112L270,115"></path><path style="stroke: #4a7a38;" class="elevation route-segment133" d="M270,115L273,113"></path><path style="stroke: #4a7a38;" class="elevation route-segment134" d="M273,113L275,112"></path><path style="stroke: #416f34;" class="elevation route-segment135" d="M275,112L280,114"></path><path style="stroke: #4a7a38;" class="elevation route-segment136" d="M280,114L281,117"></path><path style="stroke: #4a7a38;" class="elevation route-segment137" d="M281,117L282,119"></path><path style="stroke: #4a7a38;" class="elevation route-segment138" d="M282,119L284,120"></path><path style="stroke: #4a7a38;" class="elevation route-segment139" d="M284,120L287,123"></path><path style="stroke: #4a7a38;" class="elevation route-segment140" d="M287,123L288,125"></path><path style="stroke: #4a7a38;" class="elevation route-segment141" d="M288,125L289,124"></path><path style="stroke: #4a7a38;" class="elevation route-segment142" d="M289,124L290,124"></path><path style="stroke: #4a7a38;" class="elevation route-segment143" d="M290,124L291,123"></path><path style="stroke: #4a7a38;" class="elevation route-segment144" d="M291,123L292,123"></path><path style="stroke: #4a7a38;" class="elevation route-segment145" d="M292,123L293,124"></path><path style="stroke: #4a7a38;" class="elevation route-segment146" d="M293,124L296,126"></path><path style="stroke: #4a7a38;" class="elevation route-segment147" d=""></path></svg>
