<?xml version="1.0" standalone="yes"?>
<svg width="760" height="150" xmlns="http://www.w3.org/2000/svg"><path style="stroke: #52863c;" class="elevation route-segment1" d="M0,133L0,133"></path><path style="stroke: #52863c;" class="elevation route-segment2" d="M0,133L0,133"></path><path style="stroke: #52863c;" class="elevation route-segment3" d="M0,133L0,133"></path><path style="stroke: #52863c;" class="elevation route-segment4" d="M0,133L1,130"></path><path style="stroke: #52863c;" class="elevation route-segment5" d="M1,130L2,130"></path><path style="stroke: #52863c;" class="elevation route-segment6" d="M2,130L4,115"></path><path style="stroke: #4a7a38;" class="elevation route-segment7" d="M4,115L5,112"></path><path style="stroke: #416f34;" class="elevation route-segment8" d="M5,112L6,112"></path><path style="stroke: #416f34;" class="elevation route-segment9" d="M6,112L8,107"></path><path style="stroke: #416f34;" class="elevation route-segment10" d="M8,107L10,104"></path><path style="stroke: #416f34;" class="elevation route-segment11" d="M10,104L12,104"></path><path style="stroke: #416f34;" class="elevation route-segment12" d="M12,104L14,101"></path><path style="stroke: #416f34;" class="elevation route-segment13" d="M14,101L16,101"></path><path style="stroke: #416f34;" class="elevation route-segment14" d="M16,101L17,100"></path><path style="stroke: #416f34;" class="elevation route-segment15" d="M17,100L19,95"></path><path style="stroke: #546737;" class="elevation route-segment16" d="M19,95L20,95"></path><path style="stroke: #546737;" class="elevation route-segment17" d="M20,95L22,91"></path><path style="stroke: #546737;" class="elevation route-segment18" d="M22,91L23,91"></path><path style="stroke: #546737;" class="elevation route-segment19" d="M23,91L24,92"></path><path style="stroke: #546737;" class="elevation route-segment20" d="M24,92L25,91"></path><path style="stroke: #546737;" class="elevation route-segment21" d="M25,91L26,90"></path><path style="stroke: #546737;" class="elevation route-segment22" d="M26,90L27,90"></path><path style="stroke: #546737;" class="elevation route-segment23" d="M27,90L28,91"></path><path style="stroke: #546737;" class="elevation route-segment24" d="M28,91L29,92"></path><path style="stroke: #546737;" class="elevation route-segment25" d="M29,92L31,92"></path><path style="stroke: #546737;" class="elevation route-segment26" d="M31,92L32,92"></path><path style="stroke: #546737;" class="elevation route-segment27" d="M32,92L34,91"></path><path style="stroke: #546737;" class="elevation route-segment28" d="M34,91L39,91"></path><path style="stroke: #546737;" class="elevation route-segment29" d="M39,91L44,90"></path><path style="stroke: #546737;" class="elevation route-segment30" d="M44,90L50,85"></path><path style="stroke: #546737;" class="elevation route-segment31" d="M50,85L52,83"></path><path style="stroke: #546737;" class="elevation route-segment32" d="M52,83L55,86"></path><path style="stroke: #546737;" class="elevation route-segment33" d="M55,86L56,84"></path><path style="stroke: #546737;" class="elevation route-segment34" d="M56,84L59,81"></path><path style="stroke: #79623e;" class="elevation route-segment35" d="M59,81L61,81"></path><path style="stroke: #79623e;" class="elevation route-segment36" d="M61,81L62,79"></path><path style="stroke: #79623e;" class="elevation route-segment37" d="M62,79L65,76"></path><path style="stroke: #79623e;" class="elevation route-segment38" d="M65,76L67,74"></path><path style="stroke: #79623e;" class="elevation route-segment39" d="M67,74L70,71"></path><path style="stroke: #79623e;" class="elevation route-segment40" d="M70,71L73,73"></path><path style="stroke: #79623e;" class="elevation route-segment41" d="M73,73L74,73"></path><path style="stroke: #79623e;" class="elevation route-segment42" d="M74,73L76,77"></path><path style="stroke: #79623e;" class="elevation route-segment43" d="M76,77L78,77"></path><path style="stroke: #79623e;" class="elevation route-segment44" d="M78,77L80,77"></path><path style="stroke: #79623e;" class="elevation route-segment45" d="M80,77L83,72"></path><path style="stroke: #79623e;" class="elevation route-segment46" d="M83,72L84,70"></path><path style="stroke: #79623e;" class="elevation route-segment47" d="M84,70L85,65"></path><path style="stroke: #9d5e46;" class="elevation route-segment48" d="M85,65L87,65"></path><path style="stroke: #9d5e46;" class="elevation route-segment49" d="M87,65L88,62"></path><path style="stroke: #9d5e46;" class="elevation route-segment50" d="M88,62L89,62"></path><path style="stroke: #9d5e46;" class="elevation route-segment51" d="M89,62L90,60"></path><path style="stroke: #9d5e46;" class="elevation route-segment52" d="M90,60L93,61"></path><path style="stroke: #9d5e46;" class="elevation route-segment53" d="M93,61L96,61"></path><path style="stroke: #9d5e46;" class="elevation route-segment54" d="M96,61L98,62"></path><path style="stroke: #9d5e46;" class="elevation route-segment55" d="M98,62L99,62"></path><path style="stroke: #9d5e46;" class="elevation route-segment56" d="M99,62L101,61"></path><path style="stroke: #9d5e46;" class="elevation route-segment57" d="M101,61L103,60"></path><path style="stroke: #9d5e46;" class="elevation route-segment58" d="M103,60L104,57"></path><path style="stroke: #9d5e46;" class="elevation route-segment59" d="M104,57L105,57"></path><path style="stroke: #9d5e46;" class="elevation route-segment60" d="M105,57L106,59"></path><path style="stroke: #9d5e46;" class="elevation route-segment61" d="M106,59L107,60"></path><path style="stroke: #9d5e46;" class="elevation route-segment62" d="M107,60L108,61"></path><path style="stroke: #9d5e46;" class="elevation route-segment63" d="M108,61L110,62"></path><path style="stroke: #9d5e46;" class="elevation route-segment64" d="M110,62L111,62"></path><path style="stroke: #9d5e46;" class="elevation route-segment65" d="M111,62L112,64"></path><path style="stroke: #9d5e46;" class="elevation route-segment66" d="M112,64L112,63"></path><path style="stroke: #9d5e46;" class="elevation route-segment67" d="M112,63L113,66"></path><path style="stroke: #9d5e46;" class="elevation route-segment68" d="M113,66L114,69"></path><path style="stroke: #9d5e46;" class="elevation route-segment69" d="M114,69L115,71"></path><path style="stroke: #79623e;" class="elevation route-segment70" d="M115,71L116,71"></path><path style="stroke: #79623e;" class="elevation route-segment71" d="M116,71L117,73"></path><path style="stroke: #79623e;" class="elevation route-segment72" d="M117,73L118,76"></path><path style="stroke: #79623e;" class="elevation route-segment73" d="M118,76L119,78"></path><path style="stroke: #79623e;" class="elevation route-segment74" d="M119,78L120,78"></path><path style="stroke: #79623e;" class="elevation route-segment75" d="M120,78L121,80"></path><path style="stroke: #79623e;" class="elevation route-segment76" d="M121,80L122,83"></path><path style="stroke: #79623e;" class="elevation route-segment77" d="M122,83L124,83"></path><path style="stroke: #546737;" class="elevation route-segment78" d="M124,83L128,84"></path><path style="stroke: #546737;" class="elevation route-segment79" d="M128,84L130,89"></path><path style="stroke: #546737;" class="elevation route-segment80" d="M130,89L131,94"></path><path style="stroke: #546737;" class="elevation route-segment81" d="M131,94L132,95"></path><path style="stroke: #546737;" class="elevation route-segment82" d="M132,95L134,97"></path><path style="stroke: #546737;" class="elevation route-segment83" d="M134,97L136,97"></path><path style="stroke: #546737;" class="elevation route-segment84" d="M136,97L137,96"></path><path style="stroke: #546737;" class="elevation route-segment85" d="M137,96L138,99"></path><path style="stroke: #416f34;" class="elevation route-segment86" d="M138,99L140,103"></path><path style="stroke: #416f34;" class="elevation route-segment87" d="M140,103L141,104"></path><path style="stroke: #416f34;" class="elevation route-segment88" d="M141,104L143,103"></path><path style="stroke: #416f34;" class="elevation route-segment89" d="M143,103L148,108"></path><path style="stroke: #416f34;" class="elevation route-segment90" d="M148,108L153,113"></path><path style="stroke: #4a7a38;" class="elevation route-segment91" d="M153,113L157,115"></path><path style="stroke: #4a7a38;" class="elevation route-segment92" d="M157,115L160,115"></path><path style="stroke: #4a7a38;" class="elevation route-segment93" d="M160,115L162,115"></path><path style="stroke: #4a7a38;" class="elevation route-segment94" d="M162,115L165,117"></path><path style="stroke: #4a7a38;" class="elevation route-segment95" d="M165,117L167,121"></path><path style="stroke: #4a7a38;" class="elevation route-segment96" d="M167,121L168,122"></path><path style="stroke: #4a7a38;" class="elevation route-segment97" d="M168,122L170,121"></path><path style="stroke: #4a7a38;" class="elevation route-segment98" d="M170,121L173,123"></path><path style="stroke: #4a7a38;" class="elevation route-segment99" d="M173,123L176,123"></path><path style="stroke: #4a7a38;" class="elevation route-segment100" d="M176,123L178,121"></path><path style="stroke: #4a7a38;" class="elevation route-segment101" d="M178,121L183,124"></path><path style="stroke: #4a7a38;" class="elevation route-segment102" d="M183,124L186,126"></path><path style="stroke: #4a7a38;" class="elevation route-segment103" d="M186,126L188,126"></path><path style="stroke: #4a7a38;" class="elevation route-segment104" d="M188,126L191,128"></path><path style="stroke: #52863c;" class="elevation route-segment105" d="M191,128L194,128"></path><path style="stroke: #52863c;" class="elevation route-segment106" d="M194,128L197,126"></path><path style="stroke: #4a7a38;" class="elevation route-segment107" d="M197,126L200,126"></path><path style="stroke: #4a7a38;" class="elevation route-segment108" d="M200,126L207,129"></path><path style="stroke: #52863c;" class="elevation route-segment109" d="M207,129L212,133"></path><path style="stroke: #52863c;" class="elevation route-segment110" d="M212,133L216,136"></path><path style="stroke: #52863c;" class="elevation route-segment111" d="M216,136L218,137"></path><path style="stroke: #52863c;" class="elevation route-segment112" d="M218,137L220,137"></path><path style="stroke: #52863c;" class="elevation route-segment113" d="M220,137L221,136"></path><path style="stroke: #52863c;" class="elevation route-segment114" d="M221,136L223,131"></path><path style="stroke: #52863c;" class="elevation route-segment115" d="M223,131L226,141"></path><path style="stroke: #52863c;" class="elevation route-segment116" d="M226,141L227,141"></path><path style="stroke: #52863c;" class="elevation route-segment117" d="M227,141L229,142"></path><path style="stroke: #5b9240;" class="elevation route-segment118" d="M229,142L230,142"></path><path style="stroke: #5b9240;" class="elevation route-segment119" d="M230,142L231,141"></path><path style="stroke: #52863c;" class="elevation route-segment120" d="M231,141L232,139"></path><path style="stroke: #52863c;" class="elevation route-segment121" d="M232,139L232,139"></path><path style="stroke: #52863c;" class="elevation route-segment122" d="M232,139L233,139"></path><path style="stroke: #52863c;" class="elevation route-segment123" d="M233,139L234,139"></path><path style="stroke: #52863c;" class="elevation route-segment124" d="M234,139L236,134"></path><path style="stroke: #52863c;" class="elevation route-segment125" d="M236,134L237,136"></path><path style="stroke: #52863c;" class="elevation route-segment126" d="M237,136L238,133"></path><path style="stroke: #52863c;" class="elevation route-segment127" d="M238,133L239,134"></path><path style="stroke: #52863c;" class="elevation route-segment128" d="M239,134L240,130"></path><path style="stroke: #52863c;" class="elevation route-segment129" d="M240,130L246,127"></path><path style="stroke: #4a7a38;" class="elevation route-segment130" d="M246,127L248,126"></path><path style="stroke: #4a7a38;" class="elevation route-segment131" d="M248,126L250,125"></path><path style="stroke: #4a7a38;" class="elevation route-segment132" d="M250,125L253,124"></path><path style="stroke: #4a7a38;" class="elevation route-segment133" d="M253,124L256,124"></path><path style="stroke: #4a7a38;" class="elevation route-segment134" d="M256,124L258,126"></path><path style="stroke: #4a7a38;" class="elevation route-segment135" d="M258,126L261,126"></path><path style="stroke: #4a7a38;" class="elevation route-segment136" d="M261,126L262,126"></path><path style="stroke: #4a7a38;" class="elevation route-segment137" d="M262,126L263,129"></path><path style="stroke: #52863c;" class="elevation route-segment138" d="M263,129L264,123"></path><path style="stroke: #4a7a38;" class="elevation route-segment139" d="M264,123L266,127"></path><path style="stroke: #4a7a38;" class="elevation route-segment140" d="M266,127L268,124"></path><path style="stroke: #4a7a38;" class="elevation route-segment141" d="M268,124L273,126"></path><path style="stroke: #4a7a38;" class="elevation route-segment142" d="M273,126L275,126"></path><path style="stroke: #4a7a38;" class="elevation route-segment143" d="M275,126L276,125"></path><path style="stroke: #4a7a38;" class="elevation route-segment144" d="M276,125L277,125"></path><path style="stroke: #4a7a38;" class="elevation route-segment145" d="M277,125L279,122"></path><path style="stroke: #4a7a38;" class="elevation route-segment146" d="M279,122L281,124"></path><path style="stroke: #4a7a38;" class="elevation route-segment147" d="M281,124L282,121"></path><path style="stroke: #4a7a38;" class="elevation route-segment148" d="M282,121L283,123"></path><path style="stroke: #4a7a38;" class="elevation route-segment149" d="M283,123L285,123"></path><path style="stroke: #4a7a38;" class="elevation route-segment150" d="M285,123L286,123"></path><path style="stroke: #4a7a38;" class="elevation route-segment151" d="M286,123L288,122"></path><path style="stroke: #4a7a38;" class="elevation route-segment152" d="M288,122L289,120"></path><path style="stroke: #4a7a38;" class="elevation route-segment153" d="M289,120L290,120"></path><path style="stroke: #4a7a38;" class="elevation route-segment154" d="M290,120L291,121"></path><path style="stroke: #4a7a38;" class="elevation route-segment155" d="M291,121L293,119"></path><path style="stroke: #4a7a38;" class="elevation route-segment156" d="M293,119L294,119"></path><path style="stroke: #4a7a38;" class="elevation route-segment157" d="M294,119L295,119"></path><path style="stroke: #4a7a38;" class="elevation route-segment158" d="M295,119L296,119"></path><path style="stroke: #4a7a38;" class="elevation route-segment159" d="M296,119L297,120"></path><path style="stroke: #4a7a38;" class="elevation route-segment160" d="M297,120L299,120"></path><path style="stroke: #4a7a38;" class="elevation route-segment161" d="M299,120L300,119"></path><path style="stroke: #4a7a38;" class="elevation route-segment162" d="M300,119L301,119"></path><path style="stroke: #4a7a38;" class="elevation route-segment163" d="M301,119L302,119"></path><path style="stroke: #4a7a38;" class="elevation route-segment164" d="M302,119L303,120"></path><path style="stroke: #4a7a38;" class="elevation route-segment165" d="M303,120L304,120"></path><path style="stroke: #4a7a38;" class="elevation route-segment166" d="M304,120L305,120"></path><path style="stroke: #4a7a38;" class="elevation route-segment167" d="M305,120L306,118"></path><path style="stroke: #4a7a38;" class="elevation route-segment168" d="M306,118L307,118"></path><path style="stroke: #4a7a38;" class="elevation route-segment169" d="M307,118L308,117"></path><path style="stroke: #4a7a38;" class="elevation route-segment170" d="M308,117L309,119"></path><path style="stroke: #4a7a38;" class="elevation route-segment171" d="M309,119L309,118"></path><path style="stroke: #4a7a38;" class="elevation route-segment172" d="M309,118L310,118"></path><path style="stroke: #4a7a38;" class="elevation route-segment173" d="M310,118L312,117"></path><path style="stroke: #4a7a38;" class="elevation route-segment174" d="M312,117L313,117"></path><path style="stroke: #4a7a38;" class="elevation route-segment175" d="M313,117L315,116"></path><path style="stroke: #4a7a38;" class="elevation route-segment176" d="M315,116L317,115"></path><path style="stroke: #4a7a38;" class="elevation route-segment177" d="M317,115L318,115"></path><path style="stroke: #4a7a38;" class="elevation route-segment178" d="M318,115L319,115"></path><path style="stroke: #4a7a38;" class="elevation route-segment179" d="M319,115L320,115"></path><path style="stroke: #4a7a38;" class="elevation route-segment180" d="M320,115L321,115"></path><path style="stroke: #4a7a38;" class="elevation route-segment181" d="M321,115L322,115"></path><path style="stroke: #4a7a38;" class="elevation route-segment182" d="M322,115L323,115"></path><path style="stroke: #4a7a38;" class="elevation route-segment183" d="M323,115L324,114"></path><path style="stroke: #4a7a38;" class="elevation route-segment184" d="M324,114L325,112"></path><path style="stroke: #416f34;" class="elevation route-segment185" d="M325,112L326,112"></path><path style="stroke: #416f34;" class="elevation route-segment186" d="M326,112L327,112"></path><path style="stroke: #416f34;" class="elevation route-segment187" d="M327,112L328,110"></path><path style="stroke: #416f34;" class="elevation route-segment188" d="M328,110L329,110"></path><path style="stroke: #416f34;" class="elevation route-segment189" d="M329,110L330,110"></path><path style="stroke: #416f34;" class="elevation route-segment190" d="M330,110L331,108"></path><path style="stroke: #416f34;" class="elevation route-segment191" d="M331,108L332,108"></path><path style="stroke: #416f34;" class="elevation route-segment192" d="M332,108L333,108"></path><path style="stroke: #416f34;" class="elevation route-segment193" d="M333,108L334,108"></path><path style="stroke: #416f34;" class="elevation route-segment194" d="M334,108L336,108"></path><path style="stroke: #416f34;" class="elevation route-segment195" d="M336,108L337,108"></path><path style="stroke: #416f34;" class="elevation route-segment196" d="M337,108L337,106"></path><path style="stroke: #416f34;" class="elevation route-segment197" d="M337,106L338,103"></path><path style="stroke: #416f34;" class="elevation route-segment198" d="M338,103L339,106"></path><path style="stroke: #416f34;" class="elevation route-segment199" d="M339,106L340,102"></path><path style="stroke: #416f34;" class="elevation route-segment200" d="M340,102L342,105"></path><path style="stroke: #416f34;" class="elevation route-segment201" d="M342,105L343,104"></path><path style="stroke: #416f34;" class="elevation route-segment202" d="M343,104L344,102"></path><path style="stroke: #416f34;" class="elevation route-segment203" d="M344,102L345,102"></path><path style="stroke: #416f34;" class="elevation route-segment204" d="M345,102L347,98"></path><path style="stroke: #416f34;" class="elevation route-segment205" d="M347,98L348,96"></path><path style="stroke: #546737;" class="elevation route-segment206" d="M348,96L349,96"></path><path style="stroke: #546737;" class="elevation route-segment207" d="M349,96L353,93"></path><path style="stroke: #546737;" class="elevation route-segment208" d="M353,93L354,94"></path><path style="stroke: #546737;" class="elevation route-segment209" d="M354,94L355,93"></path><path style="stroke: #546737;" class="elevation route-segment210" d="M355,93L356,93"></path><path style="stroke: #546737;" class="elevation route-segment211" d="M356,93L357,94"></path><path style="stroke: #546737;" class="elevation route-segment212" d="M357,94L358,93"></path><path style="stroke: #546737;" class="elevation route-segment213" d="M358,93L359,93"></path><path style="stroke: #546737;" class="elevation route-segment214" d="M359,93L360,93"></path><path style="stroke: #546737;" class="elevation route-segment215" d="M360,93L362,92"></path><path style="stroke: #546737;" class="elevation route-segment216" d="M362,92L363,91"></path><path style="stroke: #546737;" class="elevation route-segment217" d="M363,91L366,88"></path><path style="stroke: #546737;" class="elevation route-segment218" d="M366,88L368,86"></path><path style="stroke: #546737;" class="elevation route-segment219" d="M368,86L370,84"></path><path style="stroke: #546737;" class="elevation route-segment220" d="M370,84L372,81"></path><path style="stroke: #79623e;" class="elevation route-segment221" d="M372,81L373,79"></path><path style="stroke: #79623e;" class="elevation route-segment222" d="M373,79L374,79"></path><path style="stroke: #79623e;" class="elevation route-segment223" d="M374,79L376,77"></path><path style="stroke: #79623e;" class="elevation route-segment224" d="M376,77L377,80"></path><path style="stroke: #79623e;" class="elevation route-segment225" d="M377,80L378,80"></path><path style="stroke: #79623e;" class="elevation route-segment226" d="M378,80L379,80"></path><path style="stroke: #79623e;" class="elevation route-segment227" d="M379,80L380,76"></path><path style="stroke: #79623e;" class="elevation route-segment228" d="M380,76L381,76"></path><path style="stroke: #79623e;" class="elevation route-segment229" d="M381,76L384,74"></path><path style="stroke: #79623e;" class="elevation route-segment230" d="M384,74L385,72"></path><path style="stroke: #79623e;" class="elevation route-segment231" d="M385,72L386,72"></path><path style="stroke: #79623e;" class="elevation route-segment232" d="M386,72L387,73"></path><path style="stroke: #79623e;" class="elevation route-segment233" d="M387,73L388,70"></path><path style="stroke: #79623e;" class="elevation route-segment234" d="M388,70L389,73"></path><path style="stroke: #79623e;" class="elevation route-segment235" d="M389,73L390,70"></path><path style="stroke: #79623e;" class="elevation route-segment236" d="M390,70L392,68"></path><path style="stroke: #9d5e46;" class="elevation route-segment237" d="M392,68L393,65"></path><path style="stroke: #9d5e46;" class="elevation route-segment238" d="M393,65L394,66"></path><path style="stroke: #9d5e46;" class="elevation route-segment239" d="M394,66L395,65"></path><path style="stroke: #9d5e46;" class="elevation route-segment240" d="M395,65L396,65"></path><path style="stroke: #9d5e46;" class="elevation route-segment241" d="M396,65L397,65"></path><path style="stroke: #9d5e46;" class="elevation route-segment242" d="M397,65L398,63"></path><path style="stroke: #9d5e46;" class="elevation route-segment243" d="M398,63L399,66"></path><path style="stroke: #9d5e46;" class="elevation route-segment244" d="M399,66L401,66"></path><path style="stroke: #9d5e46;" class="elevation route-segment245" d="M401,66L403,61"></path><path style="stroke: #9d5e46;" class="elevation route-segment246" d="M403,61L404,61"></path><path style="stroke: #9d5e46;" class="elevation route-segment247" d="M404,61L405,62"></path><path style="stroke: #9d5e46;" class="elevation route-segment248" d="M405,62L406,62"></path><path style="stroke: #9d5e46;" class="elevation route-segment249" d="M406,62L408,62"></path><path style="stroke: #9d5e46;" class="elevation route-segment250" d="M408,62L410,63"></path><path style="stroke: #9d5e46;" class="elevation route-segment251" d="M410,63L412,62"></path><path style="stroke: #9d5e46;" class="elevation route-segment252" d="M412,62L414,61"></path><path style="stroke: #9d5e46;" class="elevation route-segment253" d="M414,61L416,58"></path><path style="stroke: #9d5e46;" class="elevation route-segment254" d="M416,58L417,58"></path><path style="stroke: #9d5e46;" class="elevation route-segment255" d="M417,58L418,58"></path><path style="stroke: #9d5e46;" class="elevation route-segment256" d="M418,58L419,55"></path><path style="stroke: #9d5e46;" class="elevation route-segment257" d="M419,55L422,58"></path><path style="stroke: #9d5e46;" class="elevation route-segment258" d="M422,58L423,58"></path><path style="stroke: #9d5e46;" class="elevation route-segment259" d="M423,58L424,58"></path><path style="stroke: #9d5e46;" class="elevation route-segment260" d="M424,58L426,57"></path><path style="stroke: #9d5e46;" class="elevation route-segment261" d="M426,57L429,58"></path><path style="stroke: #9d5e46;" class="elevation route-segment262" d="M429,58L431,57"></path><path style="stroke: #9d5e46;" class="elevation route-segment263" d="M431,57L432,57"></path><path style="stroke: #9d5e46;" class="elevation route-segment264" d="M432,57L433,57"></path><path style="stroke: #9d5e46;" class="elevation route-segment265" d="M433,57L434,57"></path><path style="stroke: #9d5e46;" class="elevation route-segment266" d="M434,57L435,57"></path><path style="stroke: #9d5e46;" class="elevation route-segment267" d="M435,57L436,57"></path><path style="stroke: #9d5e46;" class="elevation route-segment268" d="M436,57L437,57"></path><path style="stroke: #9d5e46;" class="elevation route-segment269" d="M437,57L439,58"></path><path style="stroke: #9d5e46;" class="elevation route-segment270" d="M439,58L441,59"></path><path style="stroke: #9d5e46;" class="elevation route-segment271" d="M441,59L443,60"></path><path style="stroke: #9d5e46;" class="elevation route-segment272" d="M443,60L445,57"></path><path style="stroke: #9d5e46;" class="elevation route-segment273" d="M445,57L448,57"></path><path style="stroke: #9d5e46;" class="elevation route-segment274" d="M448,57L450,56"></path><path style="stroke: #9d5e46;" class="elevation route-segment275" d="M450,56L452,57"></path><path style="stroke: #9d5e46;" class="elevation route-segment276" d="M452,57L454,54"></path><path style="stroke: #9d5e46;" class="elevation route-segment277" d="M454,54L456,53"></path><path style="stroke: #b9584a;" class="elevation route-segment278" d="M456,53L458,53"></path><path style="stroke: #b9584a;" class="elevation route-segment279" d="M458,53L460,54"></path><path style="stroke: #b9584a;" class="elevation route-segment280" d="M460,54L463,55"></path><path style="stroke: #9d5e46;" class="elevation route-segment281" d="M463,55L465,56"></path><path style="stroke: #9d5e46;" class="elevation route-segment282" d="M465,56L469,61"></path><path style="stroke: #9d5e46;" class="elevation route-segment283" d="M469,61L471,61"></path><path style="stroke: #9d5e46;" class="elevation route-segment284" d="M471,61L474,60"></path><path style="stroke: #9d5e46;" class="elevation route-segment285" d="M474,60L477,61"></path><path style="stroke: #9d5e46;" class="elevation route-segment286" d="M477,61L478,63"></path><path style="stroke: #9d5e46;" class="elevation route-segment287" d="M478,63L481,70"></path><path style="stroke: #79623e;" class="elevation route-segment288" d="M481,70L483,72"></path><path style="stroke: #79623e;" class="elevation route-segment289" d="M483,72L485,69"></path><path style="stroke: #79623e;" class="elevation route-segment290" d="M485,69L487,72"></path><path style="stroke: #79623e;" class="elevation route-segment291" d="M487,72L491,70"></path><path style="stroke: #79623e;" class="elevation route-segment292" d="M491,70L493,73"></path><path style="stroke: #79623e;" class="elevation route-segment293" d="M493,73L495,79"></path><path style="stroke: #79623e;" class="elevation route-segment294" d="M495,79L498,76"></path><path style="stroke: #79623e;" class="elevation route-segment295" d="M498,76L501,84"></path><path style="stroke: #546737;" class="elevation route-segment296" d="M501,84L503,84"></path><path style="stroke: #546737;" class="elevation route-segment297" d="M503,84L506,83"></path><path style="stroke: #546737;" class="elevation route-segment298" d="M506,83L508,92"></path><path style="stroke: #546737;" class="elevation route-segment299" d="M508,92L510,89"></path><path style="stroke: #546737;" class="elevation route-segment300" d="M510,89L512,88"></path><path style="stroke: #546737;" class="elevation route-segment301" d="M512,88L514,96"></path><path style="stroke: #546737;" class="elevation route-segment302" d="M514,96L516,98"></path><path style="stroke: #546737;" class="elevation route-segment303" d="M516,98L518,99"></path><path style="stroke: #416f34;" class="elevation route-segment304" d="M518,99L519,102"></path><path style="stroke: #416f34;" class="elevation route-segment305" d="M519,102L522,96"></path><path style="stroke: #546737;" class="elevation route-segment306" d="M522,96L524,103"></path><path style="stroke: #416f34;" class="elevation route-segment307" d="M524,103L526,109"></path><path style="stroke: #416f34;" class="elevation route-segment308" d="M526,109L527,113"></path><path style="stroke: #4a7a38;" class="elevation route-segment309" d="M527,113L529,111"></path><path style="stroke: #416f34;" class="elevation route-segment310" d="M529,111L531,103"></path><path style="stroke: #416f34;" class="elevation route-segment311" d="M531,103L533,108"></path><path style="stroke: #416f34;" class="elevation route-segment312" d="M533,108L535,111"></path><path style="stroke: #416f34;" class="elevation route-segment313" d="M535,111L537,115"></path><path style="stroke: #4a7a38;" class="elevation route-segment314" d="M537,115L539,116"></path><path style="stroke: #4a7a38;" class="elevation route-segment315" d="M539,116L544,127"></path><path style="stroke: #4a7a38;" class="elevation route-segment316" d="M544,127L546,126"></path><path style="stroke: #4a7a38;" class="elevation route-segment317" d="M546,126L548,126"></path><path style="stroke: #4a7a38;" class="elevation route-segment318" d="M548,126L552,130"></path><path style="stroke: #52863c;" class="elevation route-segment319" d="M552,130L554,130"></path><path style="stroke: #52863c;" class="elevation route-segment320" d="M554,130L556,130"></path><path style="stroke: #52863c;" class="elevation route-segment321" d="M556,130L558,131"></path><path style="stroke: #52863c;" class="elevation route-segment322" d="M558,131L560,135"></path><path style="stroke: #52863c;" class="elevation route-segment323" d="M560,135L562,140"></path><path style="stroke: #52863c;" class="elevation route-segment324" d="M562,140L564,142"></path><path style="stroke: #5b9240;" class="elevation route-segment325" d="M564,142L567,142"></path><path style="stroke: #5b9240;" class="elevation route-segment326" d="M567,142L570,142"></path><path style="stroke: #5b9240;" class="elevation route-segment327" d="M570,142L573,142"></path><path style="stroke: #5b9240;" class="elevation route-segment328" d="M573,142L576,140"></path><path style="stroke: #52863c;" class="elevation route-segment329" d="M576,140L578,142"></path><path style="stroke: #5b9240;" class="elevation route-segment330" d="M578,142L581,143"></path><path style="stroke: #5b9240;" class="elevation route-segment331" d="M581,143L584,146"></path><path style="stroke: #5b9240;" class="elevation route-segment332" d="M584,146L586,146"></path><path style="stroke: #5b9240;" class="elevation route-segment333" d="M586,146L589,146"></path><path style="stroke: #5b9240;" class="elevation route-segment334" d="M589,146L591,147"></path><path style="stroke: #5b9240;" class="elevation route-segment335" d="M591,147L593,146"></path><path style="stroke: #5b9240;" class="elevation route-segment336" d="M593,146L595,146"></path><path style="stroke: #5b9240;" class="elevation route-segment337" d="M595,146L597,146"></path><path style="stroke: #5b9240;" class="elevation route-segment338" d="M597,146L599,145"></path><path style="stroke: #5b9240;" class="elevation route-segment339" d="M599,145L601,145"></path><path style="stroke: #5b9240;" class="elevation route-segment340" d="M601,145L604,145"></path><path style="stroke: #5b9240;" class="elevation route-segment341" d="M604,145L607,146"></path><path style="stroke: #5b9240;" class="elevation route-segment342" d="M607,146L610,146"></path><path style="stroke: #5b9240;" class="elevation route-segment343" d="M610,146L612,146"></path><path style="stroke: #5b9240;" class="elevation route-segment344" d="M612,146L615,147"></path><path style="stroke: #5b9240;" class="elevation route-segment345" d="M615,147L619,148"></path><path style="stroke: #5b9240;" class="elevation route-segment346" d="M619,148L620,147"></path><path style="stroke: #5b9240;" class="elevation route-segment347" d="M620,147L622,146"></path><path style="stroke: #5b9240;" class="elevation route-segment348" d="M622,146L624,147"></path><path style="stroke: #5b9240;" class="elevation route-segment349" d="M624,147L625,147"></path><path style="stroke: #5b9240;" class="elevation route-segment350" d="M625,147L626,147"></path><path style="stroke: #5b9240;" class="elevation route-segment351" d="M626,147L628,147"></path><path style="stroke: #5b9240;" class="elevation route-segment352" d="M628,147L630,148"></path><path style="stroke: #5b9240;" class="elevation route-segment353" d="M630,148L633,146"></path><path style="stroke: #5b9240;" class="elevation route-segment354" d="M633,146L635,146"></path><path style="stroke: #5b9240;" class="elevation route-segment355" d="M635,146L636,149"></path><path style="stroke: #5b9240;" class="elevation route-segment356" d="M636,149L638,147"></path><path style="stroke: #5b9240;" class="elevation route-segment357" d="M638,147L640,144"></path><path style="stroke: #5b9240;" class="elevation route-segment358" d="M640,144L642,149"></path><path style="stroke: #5b9240;" class="elevation route-segment359" d="M642,149L644,149"></path><path style="stroke: #5b9240;" class="elevation route-segment360" d="M644,149L647,145"></path><path style="stroke: #5b9240;" class="elevation route-segment361" d="M647,145L649,146"></path><path style="stroke: #5b9240;" class="elevation route-segment362" d="M649,146L652,146"></path><path style="stroke: #5b9240;" class="elevation route-segment363" d="M652,146L654,147"></path><path style="stroke: #5b9240;" class="elevation route-segment364" d="M654,147L655,147"></path><path style="stroke: #5b9240;" class="elevation route-segment365" d="M655,147L658,147"></path><path style="stroke: #5b9240;" class="elevation route-segment366" d="M658,147L660,147"></path><path style="stroke: #5b9240;" class="elevation route-segment367" d="M660,147L664,148"></path><path style="stroke: #5b9240;" class="elevation route-segment368" d="M664,148L669,148"></path><path style="stroke: #5b9240;" class="elevation route-segment369" d="M669,148L672,147"></path><path style="stroke: #5b9240;" class="elevation route-segment370" d="M672,147L673,148"></path><path style="stroke: #5b9240;" class="elevation route-segment371" d="M673,148L674,149"></path><path style="stroke: #5b9240;" class="elevation route-segment372" d="M674,149L675,149"></path><path style="stroke: #5b9240;" class="elevation route-segment373" d="M675,149L675,147"></path><path style="stroke: #5b9240;" class="elevation route-segment374" d="M675,147L676,147"></path><path style="stroke: #5b9240;" class="elevation route-segment375" d="M676,147L677,149"></path><path style="stroke: #5b9240;" class="elevation route-segment376" d="M677,149L678,149"></path><path style="stroke: #5b9240;" class="elevation route-segment377" d="M678,149L679,149"></path><path style="stroke: #5b9240;" class="elevation route-segment378" d="M679,149L681,149"></path><path style="stroke: #5b9240;" class="elevation route-segment379" d="M681,149L682,149"></path><path style="stroke: #5b9240;" class="elevation route-segment380" d="M682,149L684,149"></path><path style="stroke: #5b9240;" class="elevation route-segment381" d="M684,149L685,149"></path><path style="stroke: #5b9240;" class="elevation route-segment382" d="M685,149L686,149"></path><path style="stroke: #5b9240;" class="elevation route-segment383" d="M686,149L687,149"></path><path style="stroke: #5b9240;" class="elevation route-segment384" d="M687,149L688,149"></path><path style="stroke: #5b9240;" class="elevation route-segment385" d="M688,149L690,149"></path><path style="stroke: #5b9240;" class="elevation route-segment386" d="M690,149L691,149"></path><path style="stroke: #5b9240;" class="elevation route-segment387" d="M691,149L692,149"></path><path style="stroke: #5b9240;" class="elevation route-segment388" d="M692,149L693,149"></path><path style="stroke: #5b9240;" class="elevation route-segment389" d="M693,149L695,149"></path><path style="stroke: #5b9240;" class="elevation route-segment390" d="M695,149L697,149"></path><path style="stroke: #5b9240;" class="elevation route-segment391" d="M697,149L699,149"></path><path style="stroke: #5b9240;" class="elevation route-segment392" d="M699,149L701,149"></path><path style="stroke: #5b9240;" class="elevation route-segment393" d="M701,149L702,149"></path><path style="stroke: #5b9240;" class="elevation route-segment394" d="M702,149L703,149"></path><path style="stroke: #5b9240;" class="elevation route-segment395" d="M703,149L703,149"></path><path style="stroke: #5b9240;" class="elevation route-segment396" d="M703,149L704,149"></path><path style="stroke: #5b9240;" class="elevation route-segment397" d="M704,149L705,145"></path><path style="stroke: #5b9240;" class="elevation route-segment398" d="M705,145L706,140"></path><path style="stroke: #52863c;" class="elevation route-segment399" d="M706,140L708,143"></path><path style="stroke: #5b9240;" class="elevation route-segment400" d="M708,143L711,139"></path><path style="stroke: #52863c;" class="elevation route-segment401" d="M711,139L714,136"></path><path style="stroke: #52863c;" class="elevation route-segment402" d="M714,136L716,137"></path><path style="stroke: #52863c;" class="elevation route-segment403" d="M716,137L718,138"></path><path style="stroke: #52863c;" class="elevation route-segment404" d="M718,138L720,138"></path><path style="stroke: #52863c;" class="elevation route-segment405" d="M720,138L722,142"></path><path style="stroke: #5b9240;" class="elevation route-segment406" d="M722,142L724,145"></path><path style="stroke: #5b9240;" class="elevation route-segment407" d="M724,145L726,145"></path><path style="stroke: #5b9240;" class="elevation route-segment408" d="M726,145L728,145"></path><path style="stroke: #5b9240;" class="elevation route-segment409" d="M728,145L731,146"></path><path style="stroke: #5b9240;" class="elevation route-segment410" d="M731,146L733,146"></path><path style="stroke: #5b9240;" class="elevation route-segment411" d="M733,146L735,144"></path><path style="stroke: #5b9240;" class="elevation route-segment412" d="M735,144L738,143"></path><path style="stroke: #5b9240;" class="elevation route-segment413" d="M738,143L741,145"></path><path style="stroke: #5b9240;" class="elevation route-segment414" d="M741,145L745,144"></path><path style="stroke: #5b9240;" class="elevation route-segment415" d="M745,144L748,145"></path><path style="stroke: #5b9240;" class="elevation route-segment416" d="M748,145L751,144"></path><path style="stroke: #5b9240;" class="elevation route-segment417" d="M751,144L753,145"></path><path style="stroke: #5b9240;" class="elevation route-segment418" d="M753,145L754,144"></path><path style="stroke: #5b9240;" class="elevation route-segment419" d="M754,144L756,144"></path><path style="stroke: #5b9240;" class="elevation route-segment420" d="M756,144L757,143"></path><path style="stroke: #5b9240;" class="elevation route-segment421" d="M757,143L758,143"></path><path style="stroke: #5b9240;" class="elevation route-segment422" d="M758,143L759,143"></path><path style="stroke: #5b9240;" class="elevation route-segment423" d="M759,143L760,142"></path><path style="stroke: #5b9240;" class="elevation route-segment424" d="M0,0"></path></svg>
