<?xml version="1.0" standalone="yes"?>
<svg width="760" height="150" xmlns="http://www.w3.org/2000/svg"><path style="stroke: #5b9240;" class="elevation route-segment1" d="M0,148L0,148"></path><path style="stroke: #5b9240;" class="elevation route-segment2" d="M0,148L0,148"></path><path style="stroke: #5b9240;" class="elevation route-segment3" d="M0,148L0,148"></path><path style="stroke: #5b9240;" class="elevation route-segment4" d="M0,148L0,148"></path><path style="stroke: #5b9240;" class="elevation route-segment5" d="M0,148L0,148"></path><path style="stroke: #5b9240;" class="elevation route-segment6" d="M0,148L2,147"></path><path style="stroke: #5b9240;" class="elevation route-segment7" d="M2,147L3,147"></path><path style="stroke: #5b9240;" class="elevation route-segment8" d="M3,147L4,146"></path><path style="stroke: #5b9240;" class="elevation route-segment9" d="M4,146L4,146"></path><path style="stroke: #5b9240;" class="elevation route-segment10" d="M4,146L4,146"></path><path style="stroke: #5b9240;" class="elevation route-segment11" d="M4,146L5,144"></path><path style="stroke: #5b9240;" class="elevation route-segment12" d="M5,144L7,142"></path><path style="stroke: #5b9240;" class="elevation route-segment13" d="M7,142L7,142"></path><path style="stroke: #5b9240;" class="elevation route-segment14" d="M7,142L7,142"></path><path style="stroke: #5b9240;" class="elevation route-segment15" d="M7,142L7,142"></path><path style="stroke: #5b9240;" class="elevation route-segment16" d="M7,142L7,142"></path><path style="stroke: #5b9240;" class="elevation route-segment17" d="M7,142L7,142"></path><path style="stroke: #5b9240;" class="elevation route-segment18" d="M7,142L7,142"></path><path style="stroke: #5b9240;" class="elevation route-segment19" d="M7,142L8,143"></path><path style="stroke: #5b9240;" class="elevation route-segment20" d="M8,143L8,143"></path><path style="stroke: #5b9240;" class="elevation route-segment21" d="M8,143L8,145"></path><path style="stroke: #5b9240;" class="elevation route-segment22" d="M8,145L8,145"></path><path style="stroke: #5b9240;" class="elevation route-segment23" d="M8,145L9,144"></path><path style="stroke: #5b9240;" class="elevation route-segment24" d="M9,144L11,145"></path><path style="stroke: #5b9240;" class="elevation route-segment25" d="M11,145L11,145"></path><path style="stroke: #5b9240;" class="elevation route-segment26" d="M11,145L11,145"></path><path style="stroke: #5b9240;" class="elevation route-segment27" d="M11,145L11,145"></path><path style="stroke: #5b9240;" class="elevation route-segment28" d="M11,145L11,145"></path><path style="stroke: #5b9240;" class="elevation route-segment29" d="M11,145L11,145"></path><path style="stroke: #5b9240;" class="elevation route-segment30" d="M11,145L11,145"></path><path style="stroke: #5b9240;" class="elevation route-segment31" d="M11,145L12,145"></path><path style="stroke: #5b9240;" class="elevation route-segment32" d="M12,145L12,144"></path><path style="stroke: #5b9240;" class="elevation route-segment33" d="M12,144L13,144"></path><path style="stroke: #5b9240;" class="elevation route-segment34" d="M13,144L14,144"></path><path style="stroke: #5b9240;" class="elevation route-segment35" d="M14,144L15,142"></path><path style="stroke: #5b9240;" class="elevation route-segment36" d="M15,142L16,141"></path><path style="stroke: #52863c;" class="elevation route-segment37" d="M16,141L17,141"></path><path style="stroke: #52863c;" class="elevation route-segment38" d="M17,141L18,139"></path><path style="stroke: #52863c;" class="elevation route-segment39" d="M18,139L19,138"></path><path style="stroke: #52863c;" class="elevation route-segment40" d="M19,138L19,138"></path><path style="stroke: #52863c;" class="elevation route-segment41" d="M19,138L20,138"></path><path style="stroke: #52863c;" class="elevation route-segment42" d="M20,138L21,138"></path><path style="stroke: #52863c;" class="elevation route-segment43" d="M21,138L21,138"></path><path style="stroke: #52863c;" class="elevation route-segment44" d="M21,138L22,137"></path><path style="stroke: #52863c;" class="elevation route-segment45" d="M22,137L23,137"></path><path style="stroke: #52863c;" class="elevation route-segment46" d="M23,137L24,137"></path><path style="stroke: #52863c;" class="elevation route-segment47" d="M24,137L24,137"></path><path style="stroke: #52863c;" class="elevation route-segment48" d="M24,137L24,137"></path><path style="stroke: #52863c;" class="elevation route-segment49" d="M24,137L24,137"></path><path style="stroke: #52863c;" class="elevation route-segment50" d="M24,137L25,136"></path><path style="stroke: #52863c;" class="elevation route-segment51" d="M25,136L25,136"></path><path style="stroke: #52863c;" class="elevation route-segment52" d="M25,136L25,136"></path><path style="stroke: #52863c;" class="elevation route-segment53" d="M25,136L25,136"></path><path style="stroke: #52863c;" class="elevation route-segment54" d="M25,136L25,136"></path><path style="stroke: #52863c;" class="elevation route-segment55" d="M25,136L26,135"></path><path style="stroke: #52863c;" class="elevation route-segment56" d="M26,135L26,131"></path><path style="stroke: #52863c;" class="elevation route-segment57" d="M26,131L26,131"></path><path style="stroke: #52863c;" class="elevation route-segment58" d="M26,131L27,131"></path><path style="stroke: #52863c;" class="elevation route-segment59" d="M27,131L27,131"></path><path style="stroke: #52863c;" class="elevation route-segment60" d="M27,131L28,131"></path><path style="stroke: #52863c;" class="elevation route-segment61" d="M28,131L28,131"></path><path style="stroke: #52863c;" class="elevation route-segment62" d="M28,131L28,132"></path><path style="stroke: #52863c;" class="elevation route-segment63" d="M28,132L28,132"></path><path style="stroke: #52863c;" class="elevation route-segment64" d="M28,132L28,132"></path><path style="stroke: #52863c;" class="elevation route-segment65" d="M28,132L28,132"></path><path style="stroke: #52863c;" class="elevation route-segment66" d="M28,132L28,132"></path><path style="stroke: #52863c;" class="elevation route-segment67" d="M28,132L28,135"></path><path style="stroke: #52863c;" class="elevation route-segment68" d="M28,135L29,135"></path><path style="stroke: #52863c;" class="elevation route-segment69" d="M29,135L29,135"></path><path style="stroke: #52863c;" class="elevation route-segment70" d="M29,135L29,136"></path><path style="stroke: #52863c;" class="elevation route-segment71" d="M29,136L30,136"></path><path style="stroke: #52863c;" class="elevation route-segment72" d="M30,136L30,136"></path><path style="stroke: #52863c;" class="elevation route-segment73" d="M30,136L30,136"></path><path style="stroke: #52863c;" class="elevation route-segment74" d="M30,136L31,139"></path><path style="stroke: #52863c;" class="elevation route-segment75" d="M31,139L32,139"></path><path style="stroke: #52863c;" class="elevation route-segment76" d="M32,139L33,139"></path><path style="stroke: #52863c;" class="elevation route-segment77" d="M33,139L34,144"></path><path style="stroke: #5b9240;" class="elevation route-segment78" d="M34,144L35,144"></path><path style="stroke: #5b9240;" class="elevation route-segment79" d="M35,144L36,144"></path><path style="stroke: #5b9240;" class="elevation route-segment80" d="M36,144L37,145"></path><path style="stroke: #5b9240;" class="elevation route-segment81" d="M37,145L37,145"></path><path style="stroke: #5b9240;" class="elevation route-segment82" d="M37,145L37,145"></path><path style="stroke: #5b9240;" class="elevation route-segment83" d="M37,145L37,145"></path><path style="stroke: #5b9240;" class="elevation route-segment84" d="M37,145L37,145"></path><path style="stroke: #5b9240;" class="elevation route-segment85" d="M37,145L38,145"></path><path style="stroke: #5b9240;" class="elevation route-segment86" d="M38,145L39,142"></path><path style="stroke: #5b9240;" class="elevation route-segment87" d="M39,142L40,142"></path><path style="stroke: #5b9240;" class="elevation route-segment88" d="M40,142L40,142"></path><path style="stroke: #5b9240;" class="elevation route-segment89" d="M40,142L41,145"></path><path style="stroke: #5b9240;" class="elevation route-segment90" d="M41,145L41,145"></path><path style="stroke: #5b9240;" class="elevation route-segment91" d="M41,145L41,145"></path><path style="stroke: #5b9240;" class="elevation route-segment92" d="M41,145L41,145"></path><path style="stroke: #5b9240;" class="elevation route-segment93" d="M41,145L41,145"></path><path style="stroke: #5b9240;" class="elevation route-segment94" d="M41,145L41,145"></path><path style="stroke: #5b9240;" class="elevation route-segment95" d="M41,145L41,145"></path><path style="stroke: #5b9240;" class="elevation route-segment96" d="M41,145L41,145"></path><path style="stroke: #5b9240;" class="elevation route-segment97" d="M41,145L41,142"></path><path style="stroke: #5b9240;" class="elevation route-segment98" d="M41,142L41,144"></path><path style="stroke: #5b9240;" class="elevation route-segment99" d="M41,144L41,144"></path><path style="stroke: #5b9240;" class="elevation route-segment100" d="M41,144L41,144"></path><path style="stroke: #5b9240;" class="elevation route-segment101" d="M41,144L41,144"></path><path style="stroke: #5b9240;" class="elevation route-segment102" d="M41,144L41,144"></path><path style="stroke: #5b9240;" class="elevation route-segment103" d="M41,144L41,144"></path><path style="stroke: #5b9240;" class="elevation route-segment104" d="M41,144L41,144"></path><path style="stroke: #5b9240;" class="elevation route-segment105" d="M41,144L41,144"></path><path style="stroke: #5b9240;" class="elevation route-segment106" d="M41,144L41,144"></path><path style="stroke: #5b9240;" class="elevation route-segment107" d="M41,144L41,141"></path><path style="stroke: #52863c;" class="elevation route-segment108" d="M41,141L41,141"></path><path style="stroke: #52863c;" class="elevation route-segment109" d="M41,141L41,141"></path><path style="stroke: #52863c;" class="elevation route-segment110" d="M41,141L41,142"></path><path style="stroke: #5b9240;" class="elevation route-segment111" d="M41,142L41,142"></path><path style="stroke: #5b9240;" class="elevation route-segment112" d="M41,142L42,142"></path><path style="stroke: #5b9240;" class="elevation route-segment113" d="M42,142L43,142"></path><path style="stroke: #5b9240;" class="elevation route-segment114" d="M43,142L43,144"></path><path style="stroke: #5b9240;" class="elevation route-segment115" d="M43,144L43,144"></path><path style="stroke: #5b9240;" class="elevation route-segment116" d="M43,144L43,144"></path><path style="stroke: #5b9240;" class="elevation route-segment117" d="M43,144L43,144"></path><path style="stroke: #5b9240;" class="elevation route-segment118" d="M43,144L43,144"></path><path style="stroke: #5b9240;" class="elevation route-segment119" d="M43,144L43,144"></path><path style="stroke: #5b9240;" class="elevation route-segment120" d="M43,144L43,146"></path><path style="stroke: #5b9240;" class="elevation route-segment121" d="M43,146L43,146"></path><path style="stroke: #5b9240;" class="elevation route-segment122" d="M43,146L43,146"></path><path style="stroke: #5b9240;" class="elevation route-segment123" d="M43,146L43,146"></path><path style="stroke: #5b9240;" class="elevation route-segment124" d="M43,146L43,140"></path><path style="stroke: #52863c;" class="elevation route-segment125" d="M43,140L43,140"></path><path style="stroke: #52863c;" class="elevation route-segment126" d="M43,140L43,140"></path><path style="stroke: #52863c;" class="elevation route-segment127" d="M43,140L43,140"></path><path style="stroke: #52863c;" class="elevation route-segment128" d="M43,140L43,140"></path><path style="stroke: #52863c;" class="elevation route-segment129" d="M43,140L43,140"></path><path style="stroke: #52863c;" class="elevation route-segment130" d="M43,140L43,140"></path><path style="stroke: #52863c;" class="elevation route-segment131" d="M43,140L43,140"></path><path style="stroke: #52863c;" class="elevation route-segment132" d="M43,140L43,136"></path><path style="stroke: #52863c;" class="elevation route-segment133" d="M43,136L43,136"></path><path style="stroke: #52863c;" class="elevation route-segment134" d="M43,136L43,136"></path><path style="stroke: #52863c;" class="elevation route-segment135" d="M43,136L43,136"></path><path style="stroke: #52863c;" class="elevation route-segment136" d="M43,136L43,136"></path><path style="stroke: #52863c;" class="elevation route-segment137" d="M43,136L43,136"></path><path style="stroke: #52863c;" class="elevation route-segment138" d="M43,136L43,142"></path><path style="stroke: #5b9240;" class="elevation route-segment139" d="M43,142L43,142"></path><path style="stroke: #5b9240;" class="elevation route-segment140" d="M43,142L43,142"></path><path style="stroke: #5b9240;" class="elevation route-segment141" d="M43,142L43,142"></path><path style="stroke: #5b9240;" class="elevation route-segment142" d="M43,142L43,142"></path><path style="stroke: #5b9240;" class="elevation route-segment143" d="M43,142L43,142"></path><path style="stroke: #5b9240;" class="elevation route-segment144" d="M43,142L43,136"></path><path style="stroke: #52863c;" class="elevation route-segment145" d="M43,136L44,136"></path><path style="stroke: #52863c;" class="elevation route-segment146" d="M44,136L44,136"></path><path style="stroke: #52863c;" class="elevation route-segment147" d="M44,136L44,136"></path><path style="stroke: #52863c;" class="elevation route-segment148" d="M44,136L44,136"></path><path style="stroke: #52863c;" class="elevation route-segment149" d="M44,136L44,136"></path><path style="stroke: #52863c;" class="elevation route-segment150" d="M44,136L44,136"></path><path style="stroke: #52863c;" class="elevation route-segment151" d="M44,136L44,131"></path><path style="stroke: #52863c;" class="elevation route-segment152" d="M44,131L44,131"></path><path style="stroke: #52863c;" class="elevation route-segment153" d="M44,131L44,131"></path><path style="stroke: #52863c;" class="elevation route-segment154" d="M44,131L44,131"></path><path style="stroke: #52863c;" class="elevation route-segment155" d="M44,131L44,131"></path><path style="stroke: #52863c;" class="elevation route-segment156" d="M44,131L45,128"></path><path style="stroke: #52863c;" class="elevation route-segment157" d="M45,128L46,128"></path><path style="stroke: #52863c;" class="elevation route-segment158" d="M46,128L46,126"></path><path style="stroke: #4a7a38;" class="elevation route-segment159" d="M46,126L46,126"></path><path style="stroke: #4a7a38;" class="elevation route-segment160" d="M46,126L46,126"></path><path style="stroke: #4a7a38;" class="elevation route-segment161" d="M46,126L46,126"></path><path style="stroke: #4a7a38;" class="elevation route-segment162" d="M46,126L46,126"></path><path style="stroke: #4a7a38;" class="elevation route-segment163" d="M46,126L46,126"></path><path style="stroke: #4a7a38;" class="elevation route-segment164" d="M46,126L47,126"></path><path style="stroke: #4a7a38;" class="elevation route-segment165" d="M47,126L48,123"></path><path style="stroke: #4a7a38;" class="elevation route-segment166" d="M48,123L49,123"></path><path style="stroke: #4a7a38;" class="elevation route-segment167" d="M49,123L50,119"></path><path style="stroke: #4a7a38;" class="elevation route-segment168" d="M50,119L51,119"></path><path style="stroke: #4a7a38;" class="elevation route-segment169" d="M51,119L52,118"></path><path style="stroke: #4a7a38;" class="elevation route-segment170" d="M52,118L53,118"></path><path style="stroke: #4a7a38;" class="elevation route-segment171" d="M53,118L54,118"></path><path style="stroke: #4a7a38;" class="elevation route-segment172" d="M54,118L54,118"></path><path style="stroke: #4a7a38;" class="elevation route-segment173" d="M54,118L54,118"></path><path style="stroke: #4a7a38;" class="elevation route-segment174" d="M54,118L54,118"></path><path style="stroke: #4a7a38;" class="elevation route-segment175" d="M54,118L54,118"></path><path style="stroke: #4a7a38;" class="elevation route-segment176" d="M54,118L56,116"></path><path style="stroke: #4a7a38;" class="elevation route-segment177" d="M56,116L57,115"></path><path style="stroke: #4a7a38;" class="elevation route-segment178" d="M57,115L58,115"></path><path style="stroke: #4a7a38;" class="elevation route-segment179" d="M58,115L59,115"></path><path style="stroke: #4a7a38;" class="elevation route-segment180" d="M59,115L59,115"></path><path style="stroke: #4a7a38;" class="elevation route-segment181" d="M59,115L60,108"></path><path style="stroke: #416f34;" class="elevation route-segment182" d="M60,108L60,108"></path><path style="stroke: #416f34;" class="elevation route-segment183" d="M60,108L60,108"></path><path style="stroke: #416f34;" class="elevation route-segment184" d="M60,108L60,108"></path><path style="stroke: #416f34;" class="elevation route-segment185" d="M60,108L61,105"></path><path style="stroke: #416f34;" class="elevation route-segment186" d="M61,105L64,108"></path><path style="stroke: #416f34;" class="elevation route-segment187" d="M64,108L65,107"></path><path style="stroke: #416f34;" class="elevation route-segment188" d="M65,107L66,107"></path><path style="stroke: #416f34;" class="elevation route-segment189" d="M66,107L67,106"></path><path style="stroke: #416f34;" class="elevation route-segment190" d="M67,106L68,106"></path><path style="stroke: #416f34;" class="elevation route-segment191" d="M68,106L69,104"></path><path style="stroke: #416f34;" class="elevation route-segment192" d="M69,104L72,98"></path><path style="stroke: #416f34;" class="elevation route-segment193" d="M72,98L72,98"></path><path style="stroke: #416f34;" class="elevation route-segment194" d="M72,98L77,102"></path><path style="stroke: #416f34;" class="elevation route-segment195" d="M77,102L77,102"></path><path style="stroke: #416f34;" class="elevation route-segment196" d="M77,102L82,98"></path><path style="stroke: #416f34;" class="elevation route-segment197" d="M82,98L82,98"></path><path style="stroke: #416f34;" class="elevation route-segment198" d="M82,98L84,104"></path><path style="stroke: #416f34;" class="elevation route-segment199" d="M84,104L85,106"></path><path style="stroke: #416f34;" class="elevation route-segment200" d="M85,106L86,106"></path><path style="stroke: #416f34;" class="elevation route-segment201" d="M86,106L87,107"></path><path style="stroke: #416f34;" class="elevation route-segment202" d="M87,107L88,107"></path><path style="stroke: #416f34;" class="elevation route-segment203" d="M88,107L89,108"></path><path style="stroke: #416f34;" class="elevation route-segment204" d="M89,108L92,105"></path><path style="stroke: #416f34;" class="elevation route-segment205" d="M92,105L93,108"></path><path style="stroke: #416f34;" class="elevation route-segment206" d="M93,108L93,108"></path><path style="stroke: #416f34;" class="elevation route-segment207" d="M93,108L93,108"></path><path style="stroke: #416f34;" class="elevation route-segment208" d="M93,108L93,108"></path><path style="stroke: #416f34;" class="elevation route-segment209" d="M93,108L94,115"></path><path style="stroke: #4a7a38;" class="elevation route-segment210" d="M94,115L94,115"></path><path style="stroke: #4a7a38;" class="elevation route-segment211" d="M94,115L95,115"></path><path style="stroke: #4a7a38;" class="elevation route-segment212" d="M95,115L96,115"></path><path style="stroke: #4a7a38;" class="elevation route-segment213" d="M96,115L97,116"></path><path style="stroke: #4a7a38;" class="elevation route-segment214" d="M97,116L100,118"></path><path style="stroke: #4a7a38;" class="elevation route-segment215" d="M100,118L100,118"></path><path style="stroke: #4a7a38;" class="elevation route-segment216" d="M100,118L100,118"></path><path style="stroke: #4a7a38;" class="elevation route-segment217" d="M100,118L100,118"></path><path style="stroke: #4a7a38;" class="elevation route-segment218" d="M100,118L100,118"></path><path style="stroke: #4a7a38;" class="elevation route-segment219" d="M100,118L101,118"></path><path style="stroke: #4a7a38;" class="elevation route-segment220" d="M101,118L102,118"></path><path style="stroke: #4a7a38;" class="elevation route-segment221" d="M102,118L103,119"></path><path style="stroke: #4a7a38;" class="elevation route-segment222" d="M103,119L104,119"></path><path style="stroke: #4a7a38;" class="elevation route-segment223" d="M104,119L105,123"></path><path style="stroke: #4a7a38;" class="elevation route-segment224" d="M105,123L106,123"></path><path style="stroke: #4a7a38;" class="elevation route-segment225" d="M106,123L107,126"></path><path style="stroke: #4a7a38;" class="elevation route-segment226" d="M107,126L108,126"></path><path style="stroke: #4a7a38;" class="elevation route-segment227" d="M108,126L108,126"></path><path style="stroke: #4a7a38;" class="elevation route-segment228" d="M108,126L108,126"></path><path style="stroke: #4a7a38;" class="elevation route-segment229" d="M108,126L108,126"></path><path style="stroke: #4a7a38;" class="elevation route-segment230" d="M108,126L108,126"></path><path style="stroke: #4a7a38;" class="elevation route-segment231" d="M108,126L108,126"></path><path style="stroke: #4a7a38;" class="elevation route-segment232" d="M108,126L108,128"></path><path style="stroke: #52863c;" class="elevation route-segment233" d="M108,128L109,128"></path><path style="stroke: #52863c;" class="elevation route-segment234" d="M109,128L110,131"></path><path style="stroke: #52863c;" class="elevation route-segment235" d="M110,131L110,131"></path><path style="stroke: #52863c;" class="elevation route-segment236" d="M110,131L110,131"></path><path style="stroke: #52863c;" class="elevation route-segment237" d="M110,131L110,131"></path><path style="stroke: #52863c;" class="elevation route-segment238" d="M110,131L110,131"></path><path style="stroke: #52863c;" class="elevation route-segment239" d="M110,131L110,136"></path><path style="stroke: #52863c;" class="elevation route-segment240" d="M110,136L110,136"></path><path style="stroke: #52863c;" class="elevation route-segment241" d="M110,136L110,136"></path><path style="stroke: #52863c;" class="elevation route-segment242" d="M110,136L110,136"></path><path style="stroke: #52863c;" class="elevation route-segment243" d="M110,136L110,136"></path><path style="stroke: #52863c;" class="elevation route-segment244" d="M110,136L110,136"></path><path style="stroke: #52863c;" class="elevation route-segment245" d="M110,136L111,136"></path><path style="stroke: #52863c;" class="elevation route-segment246" d="M111,136L111,142"></path><path style="stroke: #5b9240;" class="elevation route-segment247" d="M111,142L111,142"></path><path style="stroke: #5b9240;" class="elevation route-segment248" d="M111,142L111,142"></path><path style="stroke: #5b9240;" class="elevation route-segment249" d="M111,142L111,142"></path><path style="stroke: #5b9240;" class="elevation route-segment250" d="M111,142L111,142"></path><path style="stroke: #5b9240;" class="elevation route-segment251" d="M111,142L111,142"></path><path style="stroke: #5b9240;" class="elevation route-segment252" d="M111,142L111,136"></path><path style="stroke: #52863c;" class="elevation route-segment253" d="M111,136L111,136"></path><path style="stroke: #52863c;" class="elevation route-segment254" d="M111,136L111,136"></path><path style="stroke: #52863c;" class="elevation route-segment255" d="M111,136L111,136"></path><path style="stroke: #52863c;" class="elevation route-segment256" d="M111,136L111,136"></path><path style="stroke: #52863c;" class="elevation route-segment257" d="M111,136L111,136"></path><path style="stroke: #52863c;" class="elevation route-segment258" d="M111,136L111,140"></path><path style="stroke: #52863c;" class="elevation route-segment259" d="M111,140L111,140"></path><path style="stroke: #52863c;" class="elevation route-segment260" d="M111,140L111,140"></path><path style="stroke: #52863c;" class="elevation route-segment261" d="M111,140L111,140"></path><path style="stroke: #52863c;" class="elevation route-segment262" d="M111,140L111,140"></path><path style="stroke: #52863c;" class="elevation route-segment263" d="M111,140L111,140"></path><path style="stroke: #52863c;" class="elevation route-segment264" d="M111,140L111,140"></path><path style="stroke: #52863c;" class="elevation route-segment265" d="M111,140L111,140"></path><path style="stroke: #52863c;" class="elevation route-segment266" d="M111,140L111,146"></path><path style="stroke: #5b9240;" class="elevation route-segment267" d="M111,146L111,146"></path><path style="stroke: #5b9240;" class="elevation route-segment268" d="M111,146L111,146"></path><path style="stroke: #5b9240;" class="elevation route-segment269" d="M111,146L111,146"></path><path style="stroke: #5b9240;" class="elevation route-segment270" d="M111,146L111,144"></path><path style="stroke: #5b9240;" class="elevation route-segment271" d="M111,144L111,144"></path><path style="stroke: #5b9240;" class="elevation route-segment272" d="M111,144L111,144"></path><path style="stroke: #5b9240;" class="elevation route-segment273" d="M111,144L111,144"></path><path style="stroke: #5b9240;" class="elevation route-segment274" d="M111,144L111,144"></path><path style="stroke: #5b9240;" class="elevation route-segment275" d="M111,144L111,144"></path><path style="stroke: #5b9240;" class="elevation route-segment276" d="M111,144L111,142"></path><path style="stroke: #5b9240;" class="elevation route-segment277" d="M111,142L112,142"></path><path style="stroke: #5b9240;" class="elevation route-segment278" d="M112,142L112,142"></path><path style="stroke: #5b9240;" class="elevation route-segment279" d="M112,142L112,142"></path><path style="stroke: #5b9240;" class="elevation route-segment280" d="M112,142L112,141"></path><path style="stroke: #52863c;" class="elevation route-segment281" d="M112,141L112,141"></path><path style="stroke: #52863c;" class="elevation route-segment282" d="M112,141L112,141"></path><path style="stroke: #52863c;" class="elevation route-segment283" d="M112,141L112,144"></path><path style="stroke: #5b9240;" class="elevation route-segment284" d="M112,144L112,144"></path><path style="stroke: #5b9240;" class="elevation route-segment285" d="M112,144L112,144"></path><path style="stroke: #5b9240;" class="elevation route-segment286" d="M112,144L112,144"></path><path style="stroke: #5b9240;" class="elevation route-segment287" d="M112,144L112,144"></path><path style="stroke: #5b9240;" class="elevation route-segment288" d="M112,144L112,144"></path><path style="stroke: #5b9240;" class="elevation route-segment289" d="M112,144L112,144"></path><path style="stroke: #5b9240;" class="elevation route-segment290" d="M112,144L112,144"></path><path style="stroke: #5b9240;" class="elevation route-segment291" d="M112,144L112,144"></path><path style="stroke: #5b9240;" class="elevation route-segment292" d="M112,144L112,142"></path><path style="stroke: #5b9240;" class="elevation route-segment293" d="M112,142L112,145"></path><path style="stroke: #5b9240;" class="elevation route-segment294" d="M112,145L112,145"></path><path style="stroke: #5b9240;" class="elevation route-segment295" d="M112,145L112,145"></path><path style="stroke: #5b9240;" class="elevation route-segment296" d="M112,145L112,145"></path><path style="stroke: #5b9240;" class="elevation route-segment297" d="M112,145L112,145"></path><path style="stroke: #5b9240;" class="elevation route-segment298" d="M112,145L112,145"></path><path style="stroke: #5b9240;" class="elevation route-segment299" d="M112,145L112,145"></path><path style="stroke: #5b9240;" class="elevation route-segment300" d="M112,145L112,145"></path><path style="stroke: #5b9240;" class="elevation route-segment301" d="M112,145L113,142"></path><path style="stroke: #5b9240;" class="elevation route-segment302" d="M113,142L113,142"></path><path style="stroke: #5b9240;" class="elevation route-segment303" d="M113,142L114,142"></path><path style="stroke: #5b9240;" class="elevation route-segment304" d="M114,142L115,145"></path><path style="stroke: #5b9240;" class="elevation route-segment305" d="M115,145L116,145"></path><path style="stroke: #5b9240;" class="elevation route-segment306" d="M116,145L116,145"></path><path style="stroke: #5b9240;" class="elevation route-segment307" d="M116,145L116,145"></path><path style="stroke: #5b9240;" class="elevation route-segment308" d="M116,145L116,145"></path><path style="stroke: #5b9240;" class="elevation route-segment309" d="M116,145L116,145"></path><path style="stroke: #5b9240;" class="elevation route-segment310" d="M116,145L117,144"></path><path style="stroke: #5b9240;" class="elevation route-segment311" d="M117,144L118,144"></path><path style="stroke: #5b9240;" class="elevation route-segment312" d="M118,144L119,144"></path><path style="stroke: #5b9240;" class="elevation route-segment313" d="M119,144L120,139"></path><path style="stroke: #52863c;" class="elevation route-segment314" d="M120,139L121,139"></path><path style="stroke: #52863c;" class="elevation route-segment315" d="M121,139L122,139"></path><path style="stroke: #52863c;" class="elevation route-segment316" d="M122,139L123,136"></path><path style="stroke: #52863c;" class="elevation route-segment317" d="M123,136L123,136"></path><path style="stroke: #52863c;" class="elevation route-segment318" d="M123,136L123,136"></path><path style="stroke: #52863c;" class="elevation route-segment319" d="M123,136L124,136"></path><path style="stroke: #52863c;" class="elevation route-segment320" d="M124,136L124,135"></path><path style="stroke: #52863c;" class="elevation route-segment321" d="M124,135L124,135"></path><path style="stroke: #52863c;" class="elevation route-segment322" d="M124,135L125,135"></path><path style="stroke: #52863c;" class="elevation route-segment323" d="M125,135L126,132"></path><path style="stroke: #52863c;" class="elevation route-segment324" d="M126,132L126,132"></path><path style="stroke: #52863c;" class="elevation route-segment325" d="M126,132L126,132"></path><path style="stroke: #52863c;" class="elevation route-segment326" d="M126,132L126,132"></path><path style="stroke: #52863c;" class="elevation route-segment327" d="M126,132L126,132"></path><path style="stroke: #52863c;" class="elevation route-segment328" d="M126,132L126,131"></path><path style="stroke: #52863c;" class="elevation route-segment329" d="M126,131L126,131"></path><path style="stroke: #52863c;" class="elevation route-segment330" d="M126,131L127,131"></path><path style="stroke: #52863c;" class="elevation route-segment331" d="M127,131L127,131"></path><path style="stroke: #52863c;" class="elevation route-segment332" d="M127,131L128,131"></path><path style="stroke: #52863c;" class="elevation route-segment333" d="M128,131L128,131"></path><path style="stroke: #52863c;" class="elevation route-segment334" d="M128,131L128,135"></path><path style="stroke: #52863c;" class="elevation route-segment335" d="M128,135L129,136"></path><path style="stroke: #52863c;" class="elevation route-segment336" d="M129,136L129,136"></path><path style="stroke: #52863c;" class="elevation route-segment337" d="M129,136L129,136"></path><path style="stroke: #52863c;" class="elevation route-segment338" d="M129,136L129,136"></path><path style="stroke: #52863c;" class="elevation route-segment339" d="M129,136L129,136"></path><path style="stroke: #52863c;" class="elevation route-segment340" d="M129,136L130,137"></path><path style="stroke: #52863c;" class="elevation route-segment341" d="M130,137L130,137"></path><path style="stroke: #52863c;" class="elevation route-segment342" d="M130,137L130,137"></path><path style="stroke: #52863c;" class="elevation route-segment343" d="M130,137L130,137"></path><path style="stroke: #52863c;" class="elevation route-segment344" d="M130,137L131,137"></path><path style="stroke: #52863c;" class="elevation route-segment345" d="M131,137L132,137"></path><path style="stroke: #52863c;" class="elevation route-segment346" d="M132,137L133,138"></path><path style="stroke: #52863c;" class="elevation route-segment347" d="M133,138L133,138"></path><path style="stroke: #52863c;" class="elevation route-segment348" d="M133,138L134,138"></path><path style="stroke: #52863c;" class="elevation route-segment349" d="M134,138L135,138"></path><path style="stroke: #52863c;" class="elevation route-segment350" d="M135,138L135,138"></path><path style="stroke: #52863c;" class="elevation route-segment351" d="M135,138L136,139"></path><path style="stroke: #52863c;" class="elevation route-segment352" d="M136,139L137,141"></path><path style="stroke: #52863c;" class="elevation route-segment353" d="M137,141L138,141"></path><path style="stroke: #52863c;" class="elevation route-segment354" d="M138,141L139,142"></path><path style="stroke: #5b9240;" class="elevation route-segment355" d="M139,142L140,144"></path><path style="stroke: #5b9240;" class="elevation route-segment356" d="M140,144L140,144"></path><path style="stroke: #5b9240;" class="elevation route-segment357" d="M140,144L141,144"></path><path style="stroke: #5b9240;" class="elevation route-segment358" d="M141,144L141,145"></path><path style="stroke: #5b9240;" class="elevation route-segment359" d="M141,145L142,145"></path><path style="stroke: #5b9240;" class="elevation route-segment360" d="M142,145L142,145"></path><path style="stroke: #5b9240;" class="elevation route-segment361" d="M142,145L142,145"></path><path style="stroke: #5b9240;" class="elevation route-segment362" d="M142,145L142,145"></path><path style="stroke: #5b9240;" class="elevation route-segment363" d="M142,145L142,145"></path><path style="stroke: #5b9240;" class="elevation route-segment364" d="M142,145L142,145"></path><path style="stroke: #5b9240;" class="elevation route-segment365" d="M142,145L142,145"></path><path style="stroke: #5b9240;" class="elevation route-segment366" d="M142,145L144,144"></path><path style="stroke: #5b9240;" class="elevation route-segment367" d="M144,144L145,145"></path><path style="stroke: #5b9240;" class="elevation route-segment368" d="M145,145L145,145"></path><path style="stroke: #5b9240;" class="elevation route-segment369" d="M145,145L145,143"></path><path style="stroke: #5b9240;" class="elevation route-segment370" d="M145,143L145,143"></path><path style="stroke: #5b9240;" class="elevation route-segment371" d="M145,143L146,142"></path><path style="stroke: #5b9240;" class="elevation route-segment372" d="M146,142L146,142"></path><path style="stroke: #5b9240;" class="elevation route-segment373" d="M146,142L146,142"></path><path style="stroke: #5b9240;" class="elevation route-segment374" d="M146,142L146,142"></path><path style="stroke: #5b9240;" class="elevation route-segment375" d="M146,142L146,142"></path><path style="stroke: #5b9240;" class="elevation route-segment376" d="M146,142L146,142"></path><path style="stroke: #5b9240;" class="elevation route-segment377" d="M146,142L146,142"></path><path style="stroke: #5b9240;" class="elevation route-segment378" d="M146,142L148,144"></path><path style="stroke: #5b9240;" class="elevation route-segment379" d="M148,144L149,146"></path><path style="stroke: #5b9240;" class="elevation route-segment380" d="M149,146L149,146"></path><path style="stroke: #5b9240;" class="elevation route-segment381" d="M149,146L149,146"></path><path style="stroke: #5b9240;" class="elevation route-segment382" d="M149,146L150,147"></path><path style="stroke: #5b9240;" class="elevation route-segment383" d="M150,147L151,147"></path><path style="stroke: #5b9240;" class="elevation route-segment384" d="M151,147L153,148"></path><path style="stroke: #5b9240;" class="elevation route-segment385" d="M153,148L154,148"></path><path style="stroke: #5b9240;" class="elevation route-segment386" d="M154,148L154,148"></path><path style="stroke: #5b9240;" class="elevation route-segment387" d="M0,0"></path></svg>
