<?xml version="1.0" standalone="yes"?>
<svg width="760" height="150" xmlns="http://www.w3.org/2000/svg"><path style="stroke: #4a7a38;" class="elevation route-segment1" d="M0,120L1,120"></path><path style="stroke: #4a7b38;" class="elevation route-segment2" d="M1,120L1,120"></path><path style="stroke: #4a7b38;" class="elevation route-segment3" d="M1,120L4,119"></path><path style="stroke: #497a38;" class="elevation route-segment4" d="M4,119L10,120"></path><path style="stroke: #4a7b38;" class="elevation route-segment5" d="M10,120L16,121"></path><path style="stroke: #4b7b38;" class="elevation route-segment6" d="M16,121L19,125"></path><path style="stroke: #4d7e39;" class="elevation route-segment7" d="M19,125L21,126"></path><path style="stroke: #4d7f39;" class="elevation route-segment8" d="M21,126L25,126"></path><path style="stroke: #4d7f39;" class="elevation route-segment9" d="M25,126L27,126"></path><path style="stroke: #4d7f39;" class="elevation route-segment10" d="M27,126L28,126"></path><path style="stroke: #4d7f39;" class="elevation route-segment11" d="M28,126L28,125"></path><path style="stroke: #4d7e39;" class="elevation route-segment12" d="M28,125L29,125"></path><path style="stroke: #4d7e39;" class="elevation route-segment13" d="M29,125L30,125"></path><path style="stroke: #4d7e39;" class="elevation route-segment14" d="M30,125L30,125"></path><path style="stroke: #4d7e39;" class="elevation route-segment15" d="M30,125L30,125"></path><path style="stroke: #4d7e39;" class="elevation route-segment16" d="M30,125L31,125"></path><path style="stroke: #4d7e39;" class="elevation route-segment17" d="M31,125L33,126"></path><path style="stroke: #4d7f39;" class="elevation route-segment18" d="M33,126L34,126"></path><path style="stroke: #4d7f39;" class="elevation route-segment19" d="M34,126L35,125"></path><path style="stroke: #4d7e39;" class="elevation route-segment20" d="M35,125L36,125"></path><path style="stroke: #4d7e39;" class="elevation route-segment21" d="M36,125L41,124"></path><path style="stroke: #4c7d39;" class="elevation route-segment22" d="M41,124L42,123"></path><path style="stroke: #4b7d38;" class="elevation route-segment23" d="M42,123L45,125"></path><path style="stroke: #4d7e39;" class="elevation route-segment24" d="M45,125L46,126"></path><path style="stroke: #4d7f39;" class="elevation route-segment25" d="M46,126L46,126"></path><path style="stroke: #4d7f39;" class="elevation route-segment26" d="M46,126L46,126"></path><path style="stroke: #4d7f39;" class="elevation route-segment27" d="M46,126L48,126"></path><path style="stroke: #4d7f39;" class="elevation route-segment28" d="M48,126L49,126"></path><path style="stroke: #4d7f39;" class="elevation route-segment29" d="M49,126L51,126"></path><path style="stroke: #4d7f39;" class="elevation route-segment30" d="M51,126L53,126"></path><path style="stroke: #4e803a;" class="elevation route-segment31" d="M53,126L56,127"></path><path style="stroke: #4e803a;" class="elevation route-segment32" d="M56,127L59,126"></path><path style="stroke: #4d7f39;" class="elevation route-segment33" d="M59,126L61,127"></path><path style="stroke: #4e803a;" class="elevation route-segment34" d="M61,127L63,130"></path><path style="stroke: #50833b;" class="elevation route-segment35" d="M63,130L64,132"></path><path style="stroke: #51843b;" class="elevation route-segment36" d="M64,132L64,132"></path><path style="stroke: #51843b;" class="elevation route-segment37" d="M64,132L64,132"></path><path style="stroke: #51843b;" class="elevation route-segment38" d="M64,132L69,131"></path><path style="stroke: #50833b;" class="elevation route-segment39" d="M69,131L71,132"></path><path style="stroke: #51843b;" class="elevation route-segment40" d="M71,132L73,132"></path><path style="stroke: #51843b;" class="elevation route-segment41" d="M73,132L76,133"></path><path style="stroke: #52853b;" class="elevation route-segment42" d="M76,133L79,133"></path><path style="stroke: #52853b;" class="elevation route-segment43" d="M79,133L82,135"></path><path style="stroke: #53863c;" class="elevation route-segment44" d="M82,135L84,135"></path><path style="stroke: #53863c;" class="elevation route-segment45" d="M84,135L84,135"></path><path style="stroke: #53863c;" class="elevation route-segment46" d="M84,135L84,135"></path><path style="stroke: #53863c;" class="elevation route-segment47" d="M84,135L85,135"></path><path style="stroke: #53863c;" class="elevation route-segment48" d="M85,135L85,135"></path><path style="stroke: #53863c;" class="elevation route-segment49" d="M85,135L88,135"></path><path style="stroke: #53863c;" class="elevation route-segment50" d="M88,135L89,134"></path><path style="stroke: #52863c;" class="elevation route-segment51" d="M89,134L91,139"></path><path style="stroke: #558a3d;" class="elevation route-segment52" d="M91,139L95,138"></path><path style="stroke: #55893d;" class="elevation route-segment53" d="M95,138L96,135"></path><path style="stroke: #53863c;" class="elevation route-segment54" d="M96,135L99,137"></path><path style="stroke: #53883c;" class="elevation route-segment55" d="M99,137L101,138"></path><path style="stroke: #54893d;" class="elevation route-segment56" d="M101,138L104,137"></path><path style="stroke: #54883d;" class="elevation route-segment57" d="M104,137L105,137"></path><path style="stroke: #54883d;" class="elevation route-segment58" d="M105,137L106,137"></path><path style="stroke: #54883d;" class="elevation route-segment59" d="M106,137L109,133"></path><path style="stroke: #52853b;" class="elevation route-segment60" d="M109,133L110,133"></path><path style="stroke: #52853b;" class="elevation route-segment61" d="M110,133L112,134"></path><path style="stroke: #52863c;" class="elevation route-segment62" d="M112,134L113,134"></path><path style="stroke: #52863c;" class="elevation route-segment63" d="M113,134L113,134"></path><path style="stroke: #52863c;" class="elevation route-segment64" d="M113,134L114,133"></path><path style="stroke: #52853b;" class="elevation route-segment65" d="M114,133L114,135"></path><path style="stroke: #52863c;" class="elevation route-segment66" d="M114,135L115,135"></path><path style="stroke: #52863c;" class="elevation route-segment67" d="M115,135L117,132"></path><path style="stroke: #51843b;" class="elevation route-segment68" d="M117,132L118,132"></path><path style="stroke: #51843b;" class="elevation route-segment69" d="M118,132L121,133"></path><path style="stroke: #51853b;" class="elevation route-segment70" d="M121,133L124,134"></path><path style="stroke: #52853c;" class="elevation route-segment71" d="M124,134L125,137"></path><path style="stroke: #53883c;" class="elevation route-segment72" d="M125,137L126,137"></path><path style="stroke: #53883c;" class="elevation route-segment73" d="M126,137L130,134"></path><path style="stroke: #52863c;" class="elevation route-segment74" d="M130,134L130,134"></path><path style="stroke: #52863c;" class="elevation route-segment75" d="M130,134L135,133"></path><path style="stroke: #52853b;" class="elevation route-segment76" d="M135,133L136,133"></path><path style="stroke: #52853b;" class="elevation route-segment77" d="M136,133L137,136"></path><path style="stroke: #53873c;" class="elevation route-segment78" d="M137,136L140,139"></path><path style="stroke: #558a3d;" class="elevation route-segment79" d="M140,139L140,139"></path><path style="stroke: #558a3d;" class="elevation route-segment80" d="M140,139L146,144"></path><path style="stroke: #588d3e;" class="elevation route-segment81" d="M146,144L147,144"></path><path style="stroke: #588d3e;" class="elevation route-segment82" d="M147,144L148,145"></path><path style="stroke: #588e3f;" class="elevation route-segment83" d="M148,145L149,144"></path><path style="stroke: #588d3e;" class="elevation route-segment84" d="M149,144L150,145"></path><path style="stroke: #588e3f;" class="elevation route-segment85" d="M150,145L152,145"></path><path style="stroke: #588e3f;" class="elevation route-segment86" d="M152,145L153,143"></path><path style="stroke: #578d3e;" class="elevation route-segment87" d="M153,143L154,143"></path><path style="stroke: #578d3e;" class="elevation route-segment88" d="M154,143L155,142"></path><path style="stroke: #578c3e;" class="elevation route-segment89" d="M155,142L156,143"></path><path style="stroke: #578d3e;" class="elevation route-segment90" d="M156,143L157,141"></path><path style="stroke: #568b3e;" class="elevation route-segment91" d="M157,141L158,138"></path><path style="stroke: #55893d;" class="elevation route-segment92" d="M158,138L158,138"></path><path style="stroke: #55893d;" class="elevation route-segment93" d="M158,138L158,138"></path><path style="stroke: #55893d;" class="elevation route-segment94" d="M158,138L159,140"></path><path style="stroke: #558a3d;" class="elevation route-segment95" d="M159,140L160,140"></path><path style="stroke: #558a3d;" class="elevation route-segment96" d="M160,140L163,142"></path><path style="stroke: #578c3e;" class="elevation route-segment97" d="M163,142L165,143"></path><path style="stroke: #578d3e;" class="elevation route-segment98" d="M165,143L166,143"></path><path style="stroke: #578d3e;" class="elevation route-segment99" d="M166,143L167,143"></path><path style="stroke: #578d3e;" class="elevation route-segment100" d="M167,143L167,143"></path><path style="stroke: #578d3e;" class="elevation route-segment101" d="M167,143L167,143"></path><path style="stroke: #578d3e;" class="elevation route-segment102" d="M167,143L167,143"></path><path style="stroke: #578d3e;" class="elevation route-segment103" d="M167,143L168,142"></path><path style="stroke: #578c3e;" class="elevation route-segment104" d="M168,142L168,142"></path><path style="stroke: #578c3e;" class="elevation route-segment105" d="M168,142L171,143"></path><path style="stroke: #578d3e;" class="elevation route-segment106" d="M171,143L173,145"></path><path style="stroke: #588f3f;" class="elevation route-segment107" d="M173,145L174,146"></path><path style="stroke: #598f3f;" class="elevation route-segment108" d="M174,146L174,146"></path><path style="stroke: #598f3f;" class="elevation route-segment109" d="M174,146L174,146"></path><path style="stroke: #598f3f;" class="elevation route-segment110" d="M174,146L174,146"></path><path style="stroke: #598f3f;" class="elevation route-segment111" d="M174,146L175,145"></path><path style="stroke: #588f3f;" class="elevation route-segment112" d="M175,145L177,143"></path><path style="stroke: #578d3e;" class="elevation route-segment113" d="M177,143L180,142"></path><path style="stroke: #578c3e;" class="elevation route-segment114" d="M180,142L181,142"></path><path style="stroke: #578c3e;" class="elevation route-segment115" d="M181,142L182,143"></path><path style="stroke: #578d3e;" class="elevation route-segment116" d="M182,143L182,143"></path><path style="stroke: #578d3e;" class="elevation route-segment117" d="M182,143L182,143"></path><path style="stroke: #578d3e;" class="elevation route-segment118" d="M182,143L183,143"></path><path style="stroke: #578d3e;" class="elevation route-segment119" d="M183,143L184,143"></path><path style="stroke: #578d3e;" class="elevation route-segment120" d="M184,143L186,142"></path><path style="stroke: #578c3e;" class="elevation route-segment121" d="M186,142L189,140"></path><path style="stroke: #558a3d;" class="elevation route-segment122" d="M189,140L190,140"></path><path style="stroke: #558a3d;" class="elevation route-segment123" d="M190,140L191,138"></path><path style="stroke: #55893d;" class="elevation route-segment124" d="M191,138L193,141"></path><path style="stroke: #568b3e;" class="elevation route-segment125" d="M193,141L193,141"></path><path style="stroke: #568b3e;" class="elevation route-segment126" d="M193,141L193,141"></path><path style="stroke: #568b3e;" class="elevation route-segment127" d="M193,141L194,143"></path><path style="stroke: #578d3e;" class="elevation route-segment128" d="M194,143L195,142"></path><path style="stroke: #578c3e;" class="elevation route-segment129" d="M195,142L196,143"></path><path style="stroke: #578d3e;" class="elevation route-segment130" d="M196,143L197,143"></path><path style="stroke: #578d3e;" class="elevation route-segment131" d="M197,143L197,145"></path><path style="stroke: #588e3f;" class="elevation route-segment132" d="M197,145L199,145"></path><path style="stroke: #588e3f;" class="elevation route-segment133" d="M199,145L200,144"></path><path style="stroke: #588d3e;" class="elevation route-segment134" d="M200,144L201,145"></path><path style="stroke: #588e3f;" class="elevation route-segment135" d="M201,145L202,144"></path><path style="stroke: #588d3e;" class="elevation route-segment136" d="M202,144L203,144"></path><path style="stroke: #588d3e;" class="elevation route-segment137" d="M203,144L214,136"></path><path style="stroke: #53873c;" class="elevation route-segment138" d="M214,136L215,133"></path><path style="stroke: #52853b;" class="elevation route-segment139" d="M215,133L216,133"></path><path style="stroke: #52853b;" class="elevation route-segment140" d="M216,133L225,137"></path><path style="stroke: #53883c;" class="elevation route-segment141" d="M225,137L225,137"></path><path style="stroke: #53883c;" class="elevation route-segment142" d="M225,137L226,134"></path><path style="stroke: #52853c;" class="elevation route-segment143" d="M226,134L229,133"></path><path style="stroke: #51853b;" class="elevation route-segment144" d="M229,133L231,132"></path><path style="stroke: #51843b;" class="elevation route-segment145" d="M231,132L231,132"></path><path style="stroke: #51843b;" class="elevation route-segment146" d="M231,132L232,132"></path><path style="stroke: #51843b;" class="elevation route-segment147" d="M232,132L232,132"></path><path style="stroke: #51843b;" class="elevation route-segment148" d="M232,132L234,129"></path><path style="stroke: #4f823a;" class="elevation route-segment149" d="M234,129L234,129"></path><path style="stroke: #4f823a;" class="elevation route-segment150" d="M234,129L234,129"></path><path style="stroke: #4f823a;" class="elevation route-segment151" d="M234,129L238,128"></path><path style="stroke: #4e813a;" class="elevation route-segment152" d="M238,128L240,125"></path><path style="stroke: #4d7e39;" class="elevation route-segment153" d="M240,125L241,121"></path><path style="stroke: #4b7b38;" class="elevation route-segment154" d="M241,121L244,120"></path><path style="stroke: #4a7b38;" class="elevation route-segment155" d="M244,120L246,118"></path><path style="stroke: #497937;" class="elevation route-segment156" d="M246,118L246,118"></path><path style="stroke: #497937;" class="elevation route-segment157" d="M246,118L248,116"></path><path style="stroke: #487737;" class="elevation route-segment158" d="M248,116L250,117"></path><path style="stroke: #487837;" class="elevation route-segment159" d="M250,117L252,115"></path><path style="stroke: #477636;" class="elevation route-segment160" d="M252,115L256,107"></path><path style="stroke: #427034;" class="elevation route-segment161" d="M256,107L257,105"></path><path style="stroke: #416f34;" class="elevation route-segment162" d="M257,105L259,105"></path><path style="stroke: #416f34;" class="elevation route-segment163" d="M259,105L260,107"></path><path style="stroke: #427034;" class="elevation route-segment164" d="M260,107L261,107"></path><path style="stroke: #427034;" class="elevation route-segment165" d="M261,107L262,107"></path><path style="stroke: #427034;" class="elevation route-segment166" d="M262,107L263,102"></path><path style="stroke: #3f6c33;" class="elevation route-segment167" d="M263,102L264,102"></path><path style="stroke: #3f6c33;" class="elevation route-segment168" d="M264,102L264,98"></path><path style="stroke: #416a33;" class="elevation route-segment169" d="M264,98L264,98"></path><path style="stroke: #416a33;" class="elevation route-segment170" d="M264,98L265,98"></path><path style="stroke: #426933;" class="elevation route-segment171" d="M265,98L266,98"></path><path style="stroke: #426933;" class="elevation route-segment172" d="M266,98L266,98"></path><path style="stroke: #426933;" class="elevation route-segment173" d="M266,98L267,98"></path><path style="stroke: #416a33;" class="elevation route-segment174" d="M267,98L268,98"></path><path style="stroke: #416a33;" class="elevation route-segment175" d="M268,98L269,99"></path><path style="stroke: #406a32;" class="elevation route-segment176" d="M269,99L273,95"></path><path style="stroke: #4a6934;" class="elevation route-segment177" d="M273,95L275,91"></path><path style="stroke: #546737;" class="elevation route-segment178" d="M275,91L276,92"></path><path style="stroke: #526736;" class="elevation route-segment179" d="M276,92L277,89"></path><path style="stroke: #586737;" class="elevation route-segment180" d="M277,89L279,89"></path><path style="stroke: #586737;" class="elevation route-segment181" d="M279,89L280,86"></path><path style="stroke: #606639;" class="elevation route-segment182" d="M280,86L281,86"></path><path style="stroke: #606639;" class="elevation route-segment183" d="M281,86L281,87"></path><path style="stroke: #5e6639;" class="elevation route-segment184" d="M281,87L282,83"></path><path style="stroke: #68653b;" class="elevation route-segment185" d="M282,83L283,83"></path><path style="stroke: #68653b;" class="elevation route-segment186" d="M283,83L284,83"></path><path style="stroke: #68653b;" class="elevation route-segment187" d="M284,83L285,78"></path><path style="stroke: #75633d;" class="elevation route-segment188" d="M285,78L288,78"></path><path style="stroke: #75633d;" class="elevation route-segment189" d="M288,78L289,78"></path><path style="stroke: #75633d;" class="elevation route-segment190" d="M289,78L290,76"></path><path style="stroke: #7a623e;" class="elevation route-segment191" d="M290,76L291,75"></path><path style="stroke: #7b623f;" class="elevation route-segment192" d="M291,75L292,75"></path><path style="stroke: #7b623f;" class="elevation route-segment193" d="M292,75L292,75"></path><path style="stroke: #7b623f;" class="elevation route-segment194" d="M292,75L295,69"></path><path style="stroke: #896042;" class="elevation route-segment195" d="M295,69L296,69"></path><path style="stroke: #8a6042;" class="elevation route-segment196" d="M296,69L297,70"></path><path style="stroke: #876141;" class="elevation route-segment197" d="M297,70L297,70"></path><path style="stroke: #876141;" class="elevation route-segment198" d="M297,70L298,69"></path><path style="stroke: #8b6042;" class="elevation route-segment199" d="M298,69L299,69"></path><path style="stroke: #8b6042;" class="elevation route-segment200" d="M299,69L300,68"></path><path style="stroke: #8e6043;" class="elevation route-segment201" d="M300,68L301,68"></path><path style="stroke: #8e6043;" class="elevation route-segment202" d="M301,68L305,66"></path><path style="stroke: #935f44;" class="elevation route-segment203" d="M305,66L307,65"></path><path style="stroke: #945f44;" class="elevation route-segment204" d="M307,65L308,63"></path><path style="stroke: #995e45;" class="elevation route-segment205" d="M308,63L309,63"></path><path style="stroke: #995e45;" class="elevation route-segment206" d="M309,63L309,61"></path><path style="stroke: #9d5e46;" class="elevation route-segment207" d="M309,61L310,61"></path><path style="stroke: #9f5e46;" class="elevation route-segment208" d="M310,61L310,61"></path><path style="stroke: #9f5e46;" class="elevation route-segment209" d="M310,61L311,61"></path><path style="stroke: #9d5e46;" class="elevation route-segment210" d="M311,61L312,61"></path><path style="stroke: #9d5e46;" class="elevation route-segment211" d="M312,61L313,61"></path><path style="stroke: #9f5e46;" class="elevation route-segment212" d="M313,61L324,55"></path><path style="stroke: #ae5c49;" class="elevation route-segment213" d="M324,55L324,53"></path><path style="stroke: #b35b4a;" class="elevation route-segment214" d="M324,53L324,53"></path><path style="stroke: #b35b4a;" class="elevation route-segment215" d="M324,53L327,49"></path><path style="stroke: #bb5a4c;" class="elevation route-segment216" d="M327,49L328,47"></path><path style="stroke: #b9584a;" class="elevation route-segment217" d="M328,47L329,47"></path><path style="stroke: #b9584a;" class="elevation route-segment218" d="M329,47L329,47"></path><path style="stroke: #b9584a;" class="elevation route-segment219" d="M329,47L330,47"></path><path style="stroke: #b9584a;" class="elevation route-segment220" d="M330,47L331,47"></path><path style="stroke: #b9584a;" class="elevation route-segment221" d="M331,47L333,47"></path><path style="stroke: #ba584a;" class="elevation route-segment222" d="M333,47L335,48"></path><path style="stroke: #ba594b;" class="elevation route-segment223" d="M335,48L338,48"></path><path style="stroke: #ba594b;" class="elevation route-segment224" d="M338,48L339,48"></path><path style="stroke: #ba594b;" class="elevation route-segment225" d="M339,48L342,46"></path><path style="stroke: #b85648;" class="elevation route-segment226" d="M342,46L345,42"></path><path style="stroke: #b65446;" class="elevation route-segment227" d="M345,42L346,40"></path><path style="stroke: #b45143;" class="elevation route-segment228" d="M346,40L346,40"></path><path style="stroke: #b45143;" class="elevation route-segment229" d="M346,40L347,38"></path><path style="stroke: #b35042;" class="elevation route-segment230" d="M347,38L350,37"></path><path style="stroke: #b24f41;" class="elevation route-segment231" d="M350,37L351,37"></path><path style="stroke: #b24f41;" class="elevation route-segment232" d="M351,37L356,35"></path><path style="stroke: #b14d3f;" class="elevation route-segment233" d="M356,35L357,35"></path><path style="stroke: #b14d3f;" class="elevation route-segment234" d="M357,35L358,35"></path><path style="stroke: #b14d3f;" class="elevation route-segment235" d="M358,35L361,34"></path><path style="stroke: #b04c3e;" class="elevation route-segment236" d="M361,34L365,29"></path><path style="stroke: #ac483a;" class="elevation route-segment237" d="M365,29L365,29"></path><path style="stroke: #ac483a;" class="elevation route-segment238" d="M365,29L367,26"></path><path style="stroke: #aa4537;" class="elevation route-segment239" d="M367,26L368,26"></path><path style="stroke: #aa4537;" class="elevation route-segment240" d="M368,26L368,26"></path><path style="stroke: #aa4537;" class="elevation route-segment241" d="M368,26L368,24"></path><path style="stroke: #a94436;" class="elevation route-segment242" d="M368,24L368,24"></path><path style="stroke: #a94436;" class="elevation route-segment243" d="M368,24L369,26"></path><path style="stroke: #aa4537;" class="elevation route-segment244" d="M369,26L371,26"></path><path style="stroke: #aa4537;" class="elevation route-segment245" d="M371,26L378,37"></path><path style="stroke: #b34f41;" class="elevation route-segment246" d="M378,37L382,44"></path><path style="stroke: #b75547;" class="elevation route-segment247" d="M382,44L384,46"></path><path style="stroke: #b95749;" class="elevation route-segment248" d="M384,46L387,52"></path><path style="stroke: #b55b4b;" class="elevation route-segment249" d="M387,52L388,52"></path><path style="stroke: #b55b4b;" class="elevation route-segment250" d="M388,52L388,52"></path><path style="stroke: #b55b4b;" class="elevation route-segment251" d="M388,52L391,57"></path><path style="stroke: #a85c48;" class="elevation route-segment252" d="M391,57L395,60"></path><path style="stroke: #a15d47;" class="elevation route-segment253" d="M395,60L397,63"></path><path style="stroke: #995e45;" class="elevation route-segment254" d="M397,63L399,64"></path><path style="stroke: #975f45;" class="elevation route-segment255" d="M399,64L402,64"></path><path style="stroke: #975f45;" class="elevation route-segment256" d="M402,64L403,65"></path><path style="stroke: #955f44;" class="elevation route-segment257" d="M403,65L405,68"></path><path style="stroke: #8e6043;" class="elevation route-segment258" d="M405,68L406,68"></path><path style="stroke: #8e6043;" class="elevation route-segment259" d="M406,68L406,68"></path><path style="stroke: #8e6043;" class="elevation route-segment260" d="M406,68L409,70"></path><path style="stroke: #876141;" class="elevation route-segment261" d="M409,70L412,72"></path><path style="stroke: #826140;" class="elevation route-segment262" d="M412,72L415,77"></path><path style="stroke: #77633e;" class="elevation route-segment263" d="M415,77L419,80"></path><path style="stroke: #6f643c;" class="elevation route-segment264" d="M419,80L422,81"></path><path style="stroke: #6c643c;" class="elevation route-segment265" d="M422,81L422,81"></path><path style="stroke: #6c643c;" class="elevation route-segment266" d="M422,81L424,83"></path><path style="stroke: #68653b;" class="elevation route-segment267" d="M424,83L427,84"></path><path style="stroke: #64653a;" class="elevation route-segment268" d="M427,84L428,86"></path><path style="stroke: #606639;" class="elevation route-segment269" d="M428,86L430,85"></path><path style="stroke: #626539;" class="elevation route-segment270" d="M430,85L431,85"></path><path style="stroke: #626539;" class="elevation route-segment271" d="M431,85L431,86"></path><path style="stroke: #5f6639;" class="elevation route-segment272" d="M431,86L431,86"></path><path style="stroke: #5f6639;" class="elevation route-segment273" d="M431,86L432,86"></path><path style="stroke: #5f6639;" class="elevation route-segment274" d="M432,86L432,86"></path><path style="stroke: #5f6639;" class="elevation route-segment275" d="M432,86L434,90"></path><path style="stroke: #576737;" class="elevation route-segment276" d="M434,90L435,91"></path><path style="stroke: #536736;" class="elevation route-segment277" d="M435,91L436,91"></path><path style="stroke: #536736;" class="elevation route-segment278" d="M436,91L441,98"></path><path style="stroke: #426933;" class="elevation route-segment279" d="M441,98L443,102"></path><path style="stroke: #3f6c33;" class="elevation route-segment280" d="M443,102L444,103"></path><path style="stroke: #406d33;" class="elevation route-segment281" d="M444,103L445,106"></path><path style="stroke: #426f34;" class="elevation route-segment282" d="M445,106L446,106"></path><path style="stroke: #426f34;" class="elevation route-segment283" d="M446,106L447,106"></path><path style="stroke: #426f34;" class="elevation route-segment284" d="M447,106L449,109"></path><path style="stroke: #447235;" class="elevation route-segment285" d="M449,109L450,112"></path><path style="stroke: #457435;" class="elevation route-segment286" d="M450,112L450,112"></path><path style="stroke: #457435;" class="elevation route-segment287" d="M450,112L451,114"></path><path style="stroke: #467636;" class="elevation route-segment288" d="M451,114L452,114"></path><path style="stroke: #467636;" class="elevation route-segment289" d="M452,114L453,115"></path><path style="stroke: #477736;" class="elevation route-segment290" d="M453,115L455,115"></path><path style="stroke: #477736;" class="elevation route-segment291" d="M455,115L456,118"></path><path style="stroke: #497937;" class="elevation route-segment292" d="M456,118L457,116"></path><path style="stroke: #487837;" class="elevation route-segment293" d="M457,116L458,119"></path><path style="stroke: #497a38;" class="elevation route-segment294" d="M458,119L458,119"></path><path style="stroke: #497a38;" class="elevation route-segment295" d="M458,119L458,119"></path><path style="stroke: #497a38;" class="elevation route-segment296" d="M458,119L458,119"></path><path style="stroke: #497a38;" class="elevation route-segment297" d="M458,119L458,119"></path><path style="stroke: #497a38;" class="elevation route-segment298" d="M458,119L458,119"></path><path style="stroke: #497a38;" class="elevation route-segment299" d="M458,119L459,123"></path><path style="stroke: #4c7d39;" class="elevation route-segment300" d="M459,123L460,123"></path><path style="stroke: #4c7d39;" class="elevation route-segment301" d="M460,123L461,122"></path><path style="stroke: #4b7c38;" class="elevation route-segment302" d="M461,122L462,123"></path><path style="stroke: #4c7d39;" class="elevation route-segment303" d="M462,123L463,123"></path><path style="stroke: #4c7d39;" class="elevation route-segment304" d="M463,123L464,125"></path><path style="stroke: #4d7e39;" class="elevation route-segment305" d="M464,125L465,125"></path><path style="stroke: #4d7e39;" class="elevation route-segment306" d="M465,125L465,122"></path><path style="stroke: #4b7c38;" class="elevation route-segment307" d="M465,122L466,123"></path><path style="stroke: #4c7d39;" class="elevation route-segment308" d="M466,123L468,124"></path><path style="stroke: #4c7d39;" class="elevation route-segment309" d="M468,124L468,124"></path><path style="stroke: #4c7d39;" class="elevation route-segment310" d="M468,124L468,124"></path><path style="stroke: #4c7d39;" class="elevation route-segment311" d="M468,124L469,125"></path><path style="stroke: #4d7e39;" class="elevation route-segment312" d="M469,125L469,125"></path><path style="stroke: #4d7e39;" class="elevation route-segment313" d="M469,125L469,125"></path><path style="stroke: #4d7e39;" class="elevation route-segment314" d="M469,125L469,125"></path><path style="stroke: #4d7e39;" class="elevation route-segment315" d="M469,125L470,125"></path><path style="stroke: #4d7e39;" class="elevation route-segment316" d="M470,125L471,126"></path><path style="stroke: #4d7f39;" class="elevation route-segment317" d="M471,126L472,126"></path><path style="stroke: #4d7f39;" class="elevation route-segment318" d="M472,126L474,125"></path><path style="stroke: #4d7e39;" class="elevation route-segment319" d="M474,125L475,125"></path><path style="stroke: #4d7e39;" class="elevation route-segment320" d="M475,125L476,125"></path><path style="stroke: #4d7e39;" class="elevation route-segment321" d="M476,125L477,125"></path><path style="stroke: #4d7e39;" class="elevation route-segment322" d="M477,125L478,126"></path><path style="stroke: #4d7f39;" class="elevation route-segment323" d="M478,126L478,126"></path><path style="stroke: #4d7f39;" class="elevation route-segment324" d="M478,126L480,126"></path><path style="stroke: #4d7f39;" class="elevation route-segment325" d="M480,126L484,126"></path><path style="stroke: #4d7f39;" class="elevation route-segment326" d="M484,126L486,125"></path><path style="stroke: #4d7e39;" class="elevation route-segment327" d="M486,125L487,122"></path><path style="stroke: #4b7c38;" class="elevation route-segment328" d="M487,122L487,122"></path><path style="stroke: #4b7c38;" class="elevation route-segment329" d="M487,122L489,121"></path><path style="stroke: #4b7b38;" class="elevation route-segment330" d="M489,121L495,120"></path><path style="stroke: #4a7b38;" class="elevation route-segment331" d="M495,120L501,119"></path><path style="stroke: #497a38;" class="elevation route-segment332" d="M501,119L501,119"></path><path style="stroke: #497a38;" class="elevation route-segment333" d="M501,119L502,119"></path><path style="stroke: #497a38;" class="elevation route-segment334" d="M502,119L502,119"></path><path style="stroke: #497a38;" class="elevation route-segment335" d="M502,119L504,120"></path><path style="stroke: #4a7b38;" class="elevation route-segment336" d="M504,120L504,120"></path><path style="stroke: #4a7b38;" class="elevation route-segment337" d="M504,120L505,120"></path><path style="stroke: #4a7a38;" class="elevation route-segment338" d="M0,0"></path></svg>
